<?xml version="1.0" encoding="UTF-8"?>
<!DOCTYPE svg PUBLIC "-//W3C//DTD SVG 1.1//EN" "http://www.w3.org/Graphics/SVG/1.1/DTD/svg11.dtd">
<svg xmlns="http://www.w3.org/2000/svg" version="1.1" width="296px" height="296px" style="shape-rendering:geometricPrecision; text-rendering:geometricPrecision; image-rendering:optimizeQuality; fill-rule:evenodd; clip-rule:evenodd" xmlns:xlink="http://www.w3.org/1999/xlink">
<g><path style="opacity:1" fill="#faf9f8" d="M 130.5,7.5 C 190.411,3.53921 236.578,26.5392 269,76.5C 288.695,112.018 293.028,149.351 282,188.5C 262.439,244.7 223.273,277.533 164.5,287C 104.566,291.449 58.3996,268.616 26,218.5C 6.305,182.982 1.97167,145.649 13,106.5C 32.7936,50.3725 71.9602,17.3725 130.5,7.5 Z"/></g>
<g><path style="opacity:1" fill="#faedc2" d="M 208.5,35.5 C 187.133,36.2 165.633,36.2 144,35.5C 142.209,37.5127 140.875,37.5127 140,35.5C 133.961,35.579 127.794,35.579 121.5,35.5C 120.459,37.9913 119.626,37.9913 119,35.5C 111.265,35.7069 103.598,35.7069 96,35.5C 94.5272,35.9031 93.1939,36.5697 92,37.5C 90.4748,37.1119 88.8082,37.1119 87,37.5C 86.5357,36.9056 86.369,36.2389 86.5,35.5C 115.074,19.819 145.407,15.6523 177.5,23C 188.426,25.9145 198.759,30.0812 208.5,35.5 Z"/></g>
<g><path style="opacity:1" fill="#fae7b9" d="M 86.5,35.5 C 86.369,36.2389 86.5357,36.9056 87,37.5C 88.8082,37.1119 90.4748,37.1119 92,37.5C 93.1939,36.5697 94.5272,35.9031 96,35.5C 103.598,35.7069 111.265,35.7069 119,35.5C 119.626,37.9913 120.459,37.9913 121.5,35.5C 127.794,35.579 133.961,35.579 140,35.5C 140.875,37.5127 142.209,37.5127 144,35.5C 165.633,36.2 187.133,36.2 208.5,35.5C 216.369,38.9293 223.369,43.596 229.5,49.5C 226.005,53.1266 222.172,53.4599 218,50.5C 215.243,50.9193 212.243,51.5859 209,52.5C 208.692,51.6919 208.192,51.0253 207.5,50.5C 204.218,49.9674 201.051,50.634 198,52.5C 197.667,51.8333 197.333,51.1667 197,50.5C 196,51.8333 195,51.8333 194,50.5C 193.125,52.5127 191.791,52.5127 190,50.5C 187.92,52.9733 185.754,52.9733 183.5,50.5C 182.402,51.6155 181.235,51.6155 180,50.5C 178.166,52.7562 176.499,52.7562 175,50.5C 164.749,51.6684 155.082,51.6684 146,50.5C 142.11,52.9912 137.943,52.9912 133.5,50.5C 132.459,52.9913 131.626,52.9913 131,50.5C 108.614,51.2193 86.4473,51.2193 64.5,50.5C 70.7846,44.0196 78.118,39.0196 86.5,35.5 Z"/></g>
<g><path style="opacity:1" fill="#f9e0b4" d="M 229.5,49.5 C 232.859,52.5285 236.192,55.5285 239.5,58.5C 215.703,58.537 192.036,58.537 168.5,58.5C 166.422,56.5476 163.922,55.5476 161,55.5C 156.47,57.4258 151.804,59.0925 147,60.5C 142.606,58.6208 138.106,56.9542 133.5,55.5C 130.583,55.9638 127.916,56.9638 125.5,58.5C 102.864,58.8854 79.5303,58.8854 55.5,58.5C 58.4744,55.8621 61.4744,53.1954 64.5,50.5C 86.4473,51.2193 108.614,51.2193 131,50.5C 131.626,52.9913 132.459,52.9913 133.5,50.5C 137.943,52.9912 142.11,52.9912 146,50.5C 155.082,51.6684 164.749,51.6684 175,50.5C 176.499,52.7562 178.166,52.7562 180,50.5C 181.235,51.6155 182.402,51.6155 183.5,50.5C 185.754,52.9733 187.92,52.9733 190,50.5C 191.791,52.5127 193.125,52.5127 194,50.5C 195,51.8333 196,51.8333 197,50.5C 197.333,51.1667 197.667,51.8333 198,52.5C 201.051,50.634 204.218,49.9674 207.5,50.5C 208.192,51.0253 208.692,51.6919 209,52.5C 212.243,51.5859 215.243,50.9193 218,50.5C 222.172,53.4599 226.005,53.1266 229.5,49.5 Z"/></g>
<g><path style="opacity:1" fill="#f9dfae" d="M 55.5,58.5 C 79.5303,58.8854 102.864,58.8854 125.5,58.5C 122.577,64.0151 119.91,69.6818 117.5,75.5C 116.596,76.209 116.263,77.209 116.5,78.5C 114.167,76.5 111.833,74.5 109.5,72.5C 108.833,71.1667 107.833,70.1667 106.5,69.5C 86.806,68.4235 66.806,68.4235 46.5,69.5C 49.1218,65.5428 52.1218,61.8761 55.5,58.5 Z"/></g>
<g><path style="opacity:1" fill="#f9e0ae" d="M 168.5,58.5 C 192.036,58.537 215.703,58.537 239.5,58.5C 242.547,61.5448 245.213,64.8781 247.5,68.5C 223.307,69.3987 199.307,69.732 175.5,69.5C 173.43,65.7004 171.097,62.0338 168.5,58.5 Z"/></g>
<g><path style="opacity:1" fill="#936204" d="M 168.5,58.5 C 171.097,62.0338 173.43,65.7004 175.5,69.5C 176.167,71.5 176.833,73.5 177.5,75.5C 176.292,76.2341 174.959,76.5674 173.5,76.5C 172.598,71.2151 170.931,66.2151 168.5,61.5C 159.281,55.552 154.615,58.052 154.5,69C 154.667,71.1667 154.833,73.3333 155,75.5C 155.498,77.5444 156.665,78.8777 158.5,79.5C 158.5,80.1667 158.167,80.5 157.5,80.5C 151.5,80.5 145.5,80.5 139.5,80.5C 142.001,74.8841 142.501,69.2175 141,63.5C 137.536,56.8119 132.869,55.8119 127,60.5C 123.726,65.3715 121.893,70.7048 121.5,76.5C 119.901,76.7678 118.568,76.4345 117.5,75.5C 119.91,69.6818 122.577,64.0151 125.5,58.5C 127.916,56.9638 130.583,55.9638 133.5,55.5C 138.106,56.9542 142.606,58.6208 147,60.5C 151.804,59.0925 156.47,57.4258 161,55.5C 163.922,55.5476 166.422,56.5476 168.5,58.5 Z"/></g>
<g><path style="opacity:1" fill="#f9d9a8" d="M 106.5,69.5 C 104.973,69.427 103.973,70.0937 103.5,71.5C 99.8896,76.7607 97.223,82.4274 95.5,88.5C 87.6428,84.55 79.3095,82.8833 70.5,83.5C 67.1212,83.6782 63.9546,83.6782 61,83.5C 60.6667,84.1667 60.3333,84.8333 60,85.5C 57.6667,84.8333 55.3333,84.1667 53,83.5C 52.6924,84.3081 52.1924,84.9747 51.5,85.5C 51.1667,84.8333 50.8333,84.1667 50.5,83.5C 47.3616,83.3561 44.1949,84.0227 41,85.5C 40.6667,84.8333 40.3333,84.1667 40,83.5C 38.9887,84.3366 37.8221,84.67 36.5,84.5C 39.0921,78.9756 42.4254,73.9756 46.5,69.5C 66.806,68.4235 86.806,68.4235 106.5,69.5 Z"/></g>
<g><path style="opacity:1" fill="#724a00" d="M 173.5,76.5 C 168.819,78.8798 163.819,79.8798 158.5,79.5C 156.665,78.8777 155.498,77.5444 155,75.5C 154.833,73.3333 154.667,71.1667 154.5,69C 154.615,58.052 159.281,55.552 168.5,61.5C 170.931,66.2151 172.598,71.2151 173.5,76.5 Z"/></g>
<g><path style="opacity:1" fill="#f9d7a6" d="M 247.5,68.5 C 255.48,77.1838 261.48,87.1838 265.5,98.5C 260.276,99.6638 254.776,99.6638 249,98.5C 248,99.1667 247,99.8333 246,100.5C 243.184,101.13 240.518,100.464 238,98.5C 237.329,99.2524 236.496,99.5858 235.5,99.5C 235.737,98.209 235.404,97.209 234.5,96.5C 234.5,96.1667 234.5,95.8333 234.5,95.5C 230.773,85.1789 223.44,81.3455 212.5,84C 207.962,85.0123 203.629,86.5123 199.5,88.5C 197.777,82.4274 195.11,76.7607 191.5,71.5C 189.185,68.8112 187.185,69.1445 185.5,72.5C 183.167,74.5 180.833,76.5 178.5,78.5C 178.737,77.209 178.404,76.209 177.5,75.5C 176.833,73.5 176.167,71.5 175.5,69.5C 199.307,69.732 223.307,69.3987 247.5,68.5 Z"/></g>
<g><path style="opacity:1" fill="#744b00" d="M 139.5,80.5 C 138.167,80.5 136.833,80.5 135.5,80.5C 130.583,79.7734 125.917,78.44 121.5,76.5C 121.893,70.7048 123.726,65.3715 127,60.5C 132.869,55.8119 137.536,56.8119 141,63.5C 142.501,69.2175 142.001,74.8841 139.5,80.5 Z"/></g>
<g><path style="opacity:1" fill="#0b0b0b" d="M 103.5,71.5 C 104.931,71.8807 105.764,72.8807 106,74.5C 106.499,80.4908 106.666,86.4908 106.5,92.5C 102.721,91.4422 99.0541,90.1089 95.5,88.5C 97.223,82.4274 99.8896,76.7607 103.5,71.5 Z"/></g>
<g><path style="opacity:1" fill="#0b0b0b" d="M 191.5,71.5 C 195.11,76.7607 197.777,82.4274 199.5,88.5C 195.833,89.8333 192.167,91.1667 188.5,92.5C 188.334,86.4908 188.501,80.4908 189,74.5C 189.236,72.8807 190.069,71.8807 191.5,71.5 Z"/></g>
<g><path style="opacity:1" fill="#f9d19d" d="M 70.5,83.5 C 67.9784,85.3606 65.4784,87.3606 63,89.5C 61.9914,91.0249 61.4914,92.6916 61.5,94.5C 60.6618,94.8417 60.3284,95.5084 60.5,96.5C 59.441,101.675 59.441,107.009 60.5,112.5C 59.5263,114.085 58.0263,115.085 56,115.5C 49.4094,114.671 42.576,114.504 35.5,115C 35.8333,115.333 36.1667,115.667 36.5,116C 35.6919,116.308 35.0253,116.808 34.5,117.5C 35.8972,119.982 36.7306,122.648 37,125.5C 37.4996,132.158 37.6663,138.825 37.5,145.5C 36.8505,138.285 36.0171,130.951 35,123.5C 32.8162,119.308 29.4829,116.642 25,115.5C 24.5172,114.552 24.3505,113.552 24.5,112.5C 27.1528,102.527 31.1528,93.1932 36.5,84.5C 37.8221,84.67 38.9887,84.3366 40,83.5C 40.3333,84.1667 40.6667,84.8333 41,85.5C 44.1949,84.0227 47.3616,83.3561 50.5,83.5C 50.8333,84.1667 51.1667,84.8333 51.5,85.5C 52.1924,84.9747 52.6924,84.3081 53,83.5C 55.3333,84.1667 57.6667,84.8333 60,85.5C 60.3333,84.8333 60.6667,84.1667 61,83.5C 63.9546,83.6782 67.1212,83.6782 70.5,83.5 Z"/></g>
<g><path style="opacity:1" fill="#d0a734" d="M 70.5,83.5 C 79.3095,82.8833 87.6428,84.55 95.5,88.5C 99.0541,90.1089 102.721,91.4422 106.5,92.5C 112.268,95.1109 118.268,97.1109 124.5,98.5C 139.81,102.344 155.143,102.344 170.5,98.5C 176.704,97.0988 182.704,95.0988 188.5,92.5C 192.167,91.1667 195.833,89.8333 199.5,88.5C 203.629,86.5123 207.962,85.0123 212.5,84C 223.44,81.3455 230.773,85.1789 234.5,95.5C 232.117,93.6418 229.45,92.3084 226.5,91.5C 224.883,90.962 223.216,90.6287 221.5,90.5C 214.601,89.8198 208.268,91.1531 202.5,94.5C 190.136,99.5114 177.469,103.678 164.5,107C 150.001,109.518 135.668,108.851 121.5,105C 111.56,101.19 101.56,97.6899 91.5,94.5C 84.8611,90.6989 77.8611,89.6989 70.5,91.5C 67.2084,91.6469 64.2084,92.6469 61.5,94.5C 61.4914,92.6916 61.9914,91.0249 63,89.5C 65.4784,87.3606 67.9784,85.3606 70.5,83.5 Z"/></g>
<g><path style="opacity:1" fill="#bfa041" d="M 117.5,75.5 C 118.568,76.4345 119.901,76.7678 121.5,76.5C 125.917,78.44 130.583,79.7734 135.5,80.5C 134.094,83.4135 132.094,85.9135 129.5,88C 130.056,88.3826 130.389,88.8826 130.5,89.5C 127.598,88.4222 124.598,87.7556 121.5,87.5C 119.568,84.6339 117.901,81.6339 116.5,78.5C 116.263,77.209 116.596,76.209 117.5,75.5 Z"/></g>
<g><path style="opacity:1" fill="#c1a242" d="M 177.5,75.5 C 178.404,76.209 178.737,77.209 178.5,78.5C 177.099,81.6339 175.432,84.6339 173.5,87.5C 170.167,88.1667 166.833,88.8333 163.5,89.5C 160.949,86.8838 158.949,83.8838 157.5,80.5C 158.167,80.5 158.5,80.1667 158.5,79.5C 163.819,79.8798 168.819,78.8798 173.5,76.5C 174.959,76.5674 176.292,76.2341 177.5,75.5 Z"/></g>
<g><path style="opacity:1" fill="#1f2226" d="M 109.5,72.5 C 111.833,74.5 114.167,76.5 116.5,78.5C 117.901,81.6339 119.568,84.6339 121.5,87.5C 122.363,89.4214 123.029,91.4214 123.5,93.5C 118.663,92.9299 114.163,92.2632 110,91.5C 109.792,85.449 109.292,79.449 108.5,73.5C 108.624,72.8933 108.957,72.56 109.5,72.5 Z"/></g>
<g><path style="opacity:1" fill="#e2c562" d="M 135.5,80.5 C 136.833,80.5 138.167,80.5 139.5,80.5C 145.5,80.5 151.5,80.5 157.5,80.5C 158.949,83.8838 160.949,86.8838 163.5,89.5C 159.658,91.0017 155.658,91.6684 151.5,91.5C 152.126,88.3278 152.793,85.1612 153.5,82C 150.518,81.502 147.518,81.3354 144.5,81.5C 144.253,84.9387 144.586,88.272 145.5,91.5C 140.436,91.2051 135.436,90.5384 130.5,89.5C 130.389,88.8826 130.056,88.3826 129.5,88C 132.094,85.9135 134.094,83.4135 135.5,80.5 Z"/></g>
<g><path style="opacity:1" fill="#1e2225" d="M 185.5,72.5 C 186.043,72.56 186.376,72.8933 186.5,73.5C 185.711,79.1152 185.211,84.7818 185,90.5C 183.445,92.1458 181.779,92.4791 180,91.5C 177.379,92.9915 174.545,93.6582 171.5,93.5C 172.167,91.5 172.833,89.5 173.5,87.5C 175.432,84.6339 177.099,81.6339 178.5,78.5C 180.833,76.5 183.167,74.5 185.5,72.5 Z"/></g>
<g><path style="opacity:1" fill="#f8e9af" d="M 151.5,91.5 C 149.5,91.5 147.5,91.5 145.5,91.5C 144.586,88.272 144.253,84.9387 144.5,81.5C 147.518,81.3354 150.518,81.502 153.5,82C 152.793,85.1612 152.126,88.3278 151.5,91.5 Z"/></g>
<g><path style="opacity:1" fill="#40260c" d="M 221.5,90.5 C 221.5,91.5 221.5,92.5 221.5,93.5C 219.436,93.687 217.436,94.187 215.5,95C 212.564,97.767 209.231,99.9337 205.5,101.5C 204.945,98.904 203.945,96.5707 202.5,94.5C 208.268,91.1531 214.601,89.8198 221.5,90.5 Z"/></g>
<g><path style="opacity:1" fill="#333537" d="M 106.5,69.5 C 107.833,70.1667 108.833,71.1667 109.5,72.5C 108.957,72.56 108.624,72.8933 108.5,73.5C 109.292,79.449 109.792,85.449 110,91.5C 114.163,92.2632 118.663,92.9299 123.5,93.5C 124.153,94.8068 124.82,96.1401 125.5,97.5C 125.376,98.1067 125.043,98.44 124.5,98.5C 118.268,97.1109 112.268,95.1109 106.5,92.5C 106.666,86.4908 106.499,80.4908 106,74.5C 105.764,72.8807 104.931,71.8807 103.5,71.5C 103.973,70.0937 104.973,69.427 106.5,69.5 Z"/></g>
<g><path style="opacity:1" fill="#323436" d="M 191.5,71.5 C 190.069,71.8807 189.236,72.8807 189,74.5C 188.501,80.4908 188.334,86.4908 188.5,92.5C 182.704,95.0988 176.704,97.0988 170.5,98.5C 169.957,98.44 169.624,98.1067 169.5,97.5C 169.994,95.9745 170.661,94.6412 171.5,93.5C 174.545,93.6582 177.379,92.9915 180,91.5C 181.779,92.4791 183.445,92.1458 185,90.5C 185.211,84.7818 185.711,79.1152 186.5,73.5C 186.376,72.8933 186.043,72.56 185.5,72.5C 187.185,69.1445 189.185,68.8112 191.5,71.5 Z"/></g>
<g><path style="opacity:1" fill="#4b2a03" d="M 221.5,90.5 C 223.216,90.6287 224.883,90.962 226.5,91.5C 225.376,94.2692 223.543,95.2692 221,94.5C 218.538,97.1663 215.705,99.4997 212.5,101.5C 214.392,103.881 214.892,106.547 214,109.5C 212.008,110.328 210.508,111.661 209.5,113.5C 208.219,109.576 206.885,105.576 205.5,101.5C 209.231,99.9337 212.564,97.767 215.5,95C 217.436,94.187 219.436,93.687 221.5,93.5C 221.5,92.5 221.5,91.5 221.5,90.5 Z"/></g>
<g><path style="opacity:1" fill="#442707" d="M 91.5,94.5 C 90.0065,99.6472 88.3398,104.647 86.5,109.5C 79.9824,106.971 79.9824,104.471 86.5,102C 84.9571,99.0517 82.7905,98.2184 80,99.5C 77.6124,96.3663 74.4457,94.533 70.5,94C 69.4019,93.2303 69.4019,92.397 70.5,91.5C 77.8611,89.6989 84.8611,90.6989 91.5,94.5 Z"/></g>
<g><path style="opacity:1" fill="#794d00" d="M 121.5,87.5 C 124.598,87.7556 127.598,88.4222 130.5,89.5C 135.436,90.5384 140.436,91.2051 145.5,91.5C 147.5,91.5 149.5,91.5 151.5,91.5C 155.658,91.6684 159.658,91.0017 163.5,89.5C 166.833,88.8333 170.167,88.1667 173.5,87.5C 172.833,89.5 172.167,91.5 171.5,93.5C 170.661,94.6412 169.994,95.9745 169.5,97.5C 169.624,98.1067 169.957,98.44 170.5,98.5C 155.143,102.344 139.81,102.344 124.5,98.5C 125.043,98.44 125.376,98.1067 125.5,97.5C 124.82,96.1401 124.153,94.8068 123.5,93.5C 123.029,91.4214 122.363,89.4214 121.5,87.5 Z"/></g>
<g><path style="opacity:1" fill="#613901" d="M 70.5,91.5 C 69.4019,92.397 69.4019,93.2303 70.5,94C 74.4457,94.533 77.6124,96.3663 80,99.5C 82.7905,98.2184 84.9571,99.0517 86.5,102C 79.9824,104.471 79.9824,106.971 86.5,109.5C 86.3239,112.727 85.6572,115.727 84.5,118.5C 84.4386,116.408 83.4386,114.908 81.5,114C 83.3008,113.683 83.6341,113.016 82.5,112C 77.1832,106.706 70.8499,103.039 63.5,101C 61.5614,100.092 60.5614,98.5922 60.5,96.5C 60.3284,95.5084 60.6618,94.8417 61.5,94.5C 64.2084,92.6469 67.2084,91.6469 70.5,91.5 Z"/></g>
<g><path style="opacity:1" fill="#643a00" d="M 226.5,91.5 C 229.45,92.3084 232.117,93.6418 234.5,95.5C 234.5,95.8333 234.5,96.1667 234.5,96.5C 234.209,100.309 232.376,101.976 229,101.5C 222.711,106.388 216.544,111.388 210.5,116.5C 209.596,115.791 209.263,114.791 209.5,113.5C 210.508,111.661 212.008,110.328 214,109.5C 214.892,106.547 214.392,103.881 212.5,101.5C 215.705,99.4997 218.538,97.1663 221,94.5C 223.543,95.2692 225.376,94.2692 226.5,91.5 Z"/></g>
<g><path style="opacity:1" fill="#754901" d="M 234.5,96.5 C 235.404,97.209 235.737,98.209 235.5,99.5C 235.677,103.234 235.344,106.901 234.5,110.5C 232.801,110.34 231.134,110.506 229.5,111C 224.112,115.023 218.446,118.523 212.5,121.5C 211.069,120.22 210.402,118.553 210.5,116.5C 216.544,111.388 222.711,106.388 229,101.5C 232.376,101.976 234.209,100.309 234.5,96.5 Z"/></g>
<g><path style="opacity:1" fill="#7d5001" d="M 60.5,96.5 C 60.5614,98.5922 61.5614,100.092 63.5,101C 70.8499,103.039 77.1832,106.706 82.5,112C 83.6341,113.016 83.3008,113.683 81.5,114C 83.4386,114.908 84.4386,116.408 84.5,118.5C 81.8816,122.74 79.5482,127.074 77.5,131.5C 76.391,131.443 75.391,131.11 74.5,130.5C 67.8938,125.907 63.2271,119.907 60.5,112.5C 59.441,107.009 59.441,101.675 60.5,96.5 Z"/></g>
<g><path style="opacity:1" fill="#202428" d="M 91.5,94.5 C 101.56,97.6899 111.56,101.19 121.5,105C 135.668,108.851 150.001,109.518 164.5,107C 177.469,103.678 190.136,99.5114 202.5,94.5C 203.945,96.5707 204.945,98.904 205.5,101.5C 206.885,105.576 208.219,109.576 209.5,113.5C 209.263,114.791 209.596,115.791 210.5,116.5C 210.402,118.553 211.069,120.22 212.5,121.5C 214.181,124.907 215.847,128.241 217.5,131.5C 221.005,143.907 222.338,156.574 221.5,169.5C 220.167,169.167 218.833,168.833 217.5,168.5C 216.791,167.596 215.791,167.263 214.5,167.5C 215.041,161.896 214.874,156.229 214,150.5C 210.477,138.663 207.477,126.997 205,115.5C 198.737,103.917 189.904,101.584 178.5,108.5C 177.197,107.282 176.197,107.615 175.5,109.5C 153.841,119.824 133.008,118.491 113,105.5C 112.586,105.957 112.086,106.291 111.5,106.5C 108.656,104.897 105.656,104.397 102.5,105C 99.714,106.501 97.0473,108.001 94.5,109.5C 94.5,110.167 94.5,110.833 94.5,111.5C 92.8622,113.301 91.0289,114.967 89,116.5C 85.0463,131.317 81.8797,146.317 79.5,161.5C 80.0136,163.605 80.3469,165.439 80.5,167C 79.5842,167.278 78.9175,167.778 78.5,168.5C 77.1779,168.33 76.0113,168.663 75,169.5C 74.7679,168.263 74.2679,167.263 73.5,166.5C 72.8091,154.58 74.1424,142.913 77.5,131.5C 79.5482,127.074 81.8816,122.74 84.5,118.5C 85.6572,115.727 86.3239,112.727 86.5,109.5C 88.3398,104.647 90.0065,99.6472 91.5,94.5 Z"/></g>
<g><path style="opacity:1" fill="#31363c" d="M 94.5,111.5 C 93.0047,119.411 92.1714,127.411 92,135.5C 89.4632,144.561 87.6299,153.727 86.5,163C 87.2524,163.671 87.5858,164.504 87.5,165.5C 87.5,166.833 87.5,168.167 87.5,169.5C 85.5648,168.85 83.5648,168.517 81.5,168.5C 80.5,168.5 79.5,168.5 78.5,168.5C 78.9175,167.778 79.5842,167.278 80.5,167C 80.3469,165.439 80.0136,163.605 79.5,161.5C 81.8797,146.317 85.0463,131.317 89,116.5C 91.0289,114.967 92.8622,113.301 94.5,111.5 Z"/></g>
<g><path style="opacity:1" fill="#30353b" d="M 217.5,168.5 C 216.167,168.5 214.833,168.5 213.5,168.5C 211.435,168.517 209.435,168.85 207.5,169.5C 207.5,168.5 207.5,167.5 207.5,166.5C 207.286,164.856 207.62,163.356 208.5,162C 206.391,150.658 204.057,139.325 201.5,128C 201.903,122.495 201.069,116.995 199,111.5C 198.167,110.667 197.333,109.833 196.5,109C 192.833,108.333 189.167,108.333 185.5,109C 181.653,110.616 177.653,111.616 173.5,112C 172.047,114.114 170.047,115.448 167.5,116C 156.915,118.861 146.249,119.194 135.5,117C 124.573,114.248 113.74,111.081 103,107.5C 100.222,108.325 97.3886,108.992 94.5,109.5C 97.0473,108.001 99.714,106.501 102.5,105C 105.656,104.397 108.656,104.897 111.5,106.5C 112.086,106.291 112.586,105.957 113,105.5C 133.008,118.491 153.841,119.824 175.5,109.5C 176.197,107.615 177.197,107.282 178.5,108.5C 189.904,101.584 198.737,103.917 205,115.5C 207.477,126.997 210.477,138.663 214,150.5C 214.874,156.229 215.041,161.896 214.5,167.5C 215.791,167.263 216.791,167.596 217.5,168.5 Z"/></g>
<g><path style="opacity:1" fill="#3c4349" d="M 207.5,166.5 C 202.515,160.213 199.515,153.213 198.5,145.5C 198.61,139.829 196.943,134.829 193.5,130.5C 193.443,129.391 193.11,128.391 192.5,127.5C 194.103,122.505 193.77,117.671 191.5,113C 189.5,112.833 187.5,112.667 185.5,112.5C 174.205,116.573 162.538,118.906 150.5,119.5C 134.88,119.154 119.714,116.487 105,111.5C 103.488,112.257 102.154,113.257 101,114.5C 100.034,119.39 100.534,124.057 102.5,128.5C 102.5,128.833 102.5,129.167 102.5,129.5C 98.8669,134.12 96.8669,139.454 96.5,145.5C 95.6805,148.305 95.1805,151.305 95,154.5C 91.9825,157.886 89.4825,161.553 87.5,165.5C 87.5858,164.504 87.2524,163.671 86.5,163C 87.6299,153.727 89.4632,144.561 92,135.5C 92.1714,127.411 93.0047,119.411 94.5,111.5C 94.5,110.833 94.5,110.167 94.5,109.5C 97.3886,108.992 100.222,108.325 103,107.5C 113.74,111.081 124.573,114.248 135.5,117C 146.249,119.194 156.915,118.861 167.5,116C 170.047,115.448 172.047,114.114 173.5,112C 177.653,111.616 181.653,110.616 185.5,109C 189.167,108.333 192.833,108.333 196.5,109C 197.333,109.833 198.167,110.667 199,111.5C 201.069,116.995 201.903,122.495 201.5,128C 204.057,139.325 206.391,150.658 208.5,162C 207.62,163.356 207.286,164.856 207.5,166.5 Z"/></g>
<g><path style="opacity:1" fill="#f9c78f" d="M 60.5,112.5 C 63.2271,119.907 67.8938,125.907 74.5,130.5C 74.741,133.999 73.9076,134.332 72,131.5C 62.0883,131.745 52.0883,131.745 42,131.5C 39.3968,134.043 38.2301,137.21 38.5,141C 38.8261,145.123 39.8261,148.956 41.5,152.5C 41.0679,153.71 40.4013,154.71 39.5,155.5C 31.4507,154.473 24.784,150.806 19.5,144.5C 19.5124,137.761 20.1791,131.095 21.5,124.5C 23.1409,130.447 24.1409,136.78 24.5,143.5C 27.076,146.787 30.076,149.62 33.5,152C 35.4727,152.495 37.4727,152.662 39.5,152.5C 39.7373,151.209 39.404,150.209 38.5,149.5C 38.1667,148.167 37.8333,146.833 37.5,145.5C 37.6663,138.825 37.4996,132.158 37,125.5C 36.7306,122.648 35.8972,119.982 34.5,117.5C 35.0253,116.808 35.6919,116.308 36.5,116C 36.1667,115.667 35.8333,115.333 35.5,115C 42.576,114.504 49.4094,114.671 56,115.5C 58.0263,115.085 59.5263,114.085 60.5,112.5 Z"/></g>
<g><path style="opacity:1" fill="#f9ca94" d="M 265.5,98.5 C 267.623,101.867 268.956,105.534 269.5,109.5C 269.229,111.312 268.562,112.978 267.5,114.5C 263.701,117.298 260.534,120.632 258,124.5C 257.716,133.525 257.216,142.525 256.5,151.5C 259.682,151.416 262.015,150.083 263.5,147.5C 264.89,146.101 265.89,144.434 266.5,142.5C 267.79,141.942 268.623,140.942 269,139.5C 269.333,134.167 269.667,128.833 270,123.5C 270.2,121.68 271.034,120.347 272.5,119.5C 274.156,125.364 274.823,131.364 274.5,137.5C 273.691,139.292 273.191,141.292 273,143.5C 268.206,148.814 262.373,152.481 255.5,154.5C 254.167,153.833 253.167,152.833 252.5,151.5C 254.614,150.64 255.78,148.973 256,146.5C 256.648,141.796 256.481,137.129 255.5,132.5C 253.738,132.643 252.071,132.309 250.5,131.5C 248.758,133.973 246.925,133.973 245,131.5C 243.667,132.833 242.333,132.833 241,131.5C 240.667,132.167 240.333,132.833 240,133.5C 238.215,132.76 236.382,132.093 234.5,131.5C 232.352,132.758 230.185,132.758 228,131.5C 227.055,131.905 226.388,132.572 226,133.5C 225.646,131.193 224.646,130.859 223,132.5C 221.97,132.164 221.47,131.497 221.5,130.5C 224.129,127.369 226.962,124.369 230,121.5C 232.066,118.039 233.566,114.373 234.5,110.5C 235.344,106.901 235.677,103.234 235.5,99.5C 236.496,99.5858 237.329,99.2524 238,98.5C 240.518,100.464 243.184,101.13 246,100.5C 247,99.8333 248,99.1667 249,98.5C 254.776,99.6638 260.276,99.6638 265.5,98.5 Z"/></g>
<g><path style="opacity:1" fill="#51575e" d="M 192.5,127.5 C 184.481,118.999 174.814,116.499 163.5,120C 155.993,124.157 147.993,125.491 139.5,124C 125.882,116.691 113.548,118.191 102.5,128.5C 100.534,124.057 100.034,119.39 101,114.5C 102.154,113.257 103.488,112.257 105,111.5C 119.714,116.487 134.88,119.154 150.5,119.5C 162.538,118.906 174.205,116.573 185.5,112.5C 187.5,112.667 189.5,112.833 191.5,113C 193.77,117.671 194.103,122.505 192.5,127.5 Z"/></g>
<g><path style="opacity:1" fill="#cba17f" d="M 192.5,127.5 C 193.11,128.391 193.443,129.391 193.5,130.5C 190.489,127.512 186.822,125.846 182.5,125.5C 173.421,126.655 164.255,128.321 155,130.5C 149.333,130.5 143.667,130.5 138,130.5C 128.369,128.166 118.869,126.999 109.5,127C 107.35,128.411 105.016,129.245 102.5,129.5C 102.5,129.167 102.5,128.833 102.5,128.5C 113.548,118.191 125.882,116.691 139.5,124C 147.993,125.491 155.993,124.157 163.5,120C 174.814,116.499 184.481,118.999 192.5,127.5 Z"/></g>
<g><path style="opacity:1" fill="#855602" d="M 234.5,110.5 C 233.566,114.373 232.066,118.039 230,121.5C 226.962,124.369 224.129,127.369 221.5,130.5C 220.167,130.833 218.833,131.167 217.5,131.5C 215.847,128.241 214.181,124.907 212.5,121.5C 218.446,118.523 224.112,115.023 229.5,111C 231.134,110.506 232.801,110.34 234.5,110.5 Z"/></g>
<g><path style="opacity:1" fill="#fadbb8" d="M 269.5,109.5 C 270.49,112.739 271.49,116.072 272.5,119.5C 271.034,120.347 270.2,121.68 270,123.5C 269.667,128.833 269.333,134.167 269,139.5C 268.623,140.942 267.79,141.942 266.5,142.5C 266.334,136.824 266.501,131.157 267,125.5C 267.892,122.716 269.058,120.05 270.5,117.5C 269.277,116.386 267.944,116.219 266.5,117C 263.567,119.264 261.4,122.098 260,125.5C 259.647,133.185 259.147,140.852 258.5,148.5C 260.216,148.371 261.883,148.038 263.5,147.5C 262.015,150.083 259.682,151.416 256.5,151.5C 257.216,142.525 257.716,133.525 258,124.5C 260.534,120.632 263.701,117.298 267.5,114.5C 268.562,112.978 269.229,111.312 269.5,109.5 Z"/></g>
<g><path style="opacity:1" fill="#c59671" d="M 193.5,130.5 C 196.943,134.829 198.61,139.829 198.5,145.5C 198.663,147.857 198.497,150.19 198,152.5C 197.811,147.654 196.811,142.988 195,138.5C 193.673,134.15 190.84,132.317 186.5,133C 184.513,135.236 182.513,136.736 180.5,137.5C 174.342,134.361 168.676,135.028 163.5,139.5C 152.244,139.774 141.244,139.774 130.5,139.5C 125.535,136.38 120.202,135.713 114.5,137.5C 108.321,130.369 103.154,131.703 99,141.5C 98.1473,145.469 97.4807,149.469 97,153.5C 96.5026,150.854 96.3359,148.187 96.5,145.5C 96.8669,139.454 98.8669,134.12 102.5,129.5C 105.016,129.245 107.35,128.411 109.5,127C 118.869,126.999 128.369,128.166 138,130.5C 143.667,130.5 149.333,130.5 155,130.5C 164.255,128.321 173.421,126.655 182.5,125.5C 186.822,125.846 190.489,127.512 193.5,130.5 Z"/></g>
<g><path style="opacity:1" fill="#fae6d2" d="M 266.5,142.5 C 265.89,144.434 264.89,146.101 263.5,147.5C 261.883,148.038 260.216,148.371 258.5,148.5C 259.147,140.852 259.647,133.185 260,125.5C 261.4,122.098 263.567,119.264 266.5,117C 267.944,116.219 269.277,116.386 270.5,117.5C 269.058,120.05 267.892,122.716 267,125.5C 266.501,131.157 266.334,136.824 266.5,142.5 Z"/></g>
<g><path style="opacity:1" fill="#f8be85" d="M 74.5,130.5 C 75.391,131.11 76.391,131.443 77.5,131.5C 74.1424,142.913 72.8091,154.58 73.5,166.5C 73.5,167.833 73.5,169.167 73.5,170.5C 72.5,169.833 71.5,169.167 70.5,168.5C 70.6749,162.344 67.6749,159.677 61.5,160.5C 60.5084,160.672 59.8417,160.338 59.5,159.5C 59.8851,156.11 58.5517,153.777 55.5,152.5C 53.1231,151.328 50.7898,151.661 48.5,153.5C 46.4168,151.396 44.0835,151.062 41.5,152.5C 39.8261,148.956 38.8261,145.123 38.5,141C 38.2301,137.21 39.3968,134.043 42,131.5C 52.0883,131.745 62.0883,131.745 72,131.5C 73.9076,134.332 74.741,133.999 74.5,130.5 Z"/></g>
<g><path style="opacity:1" fill="#f8be85" d="M 221.5,130.5 C 221.47,131.497 221.97,132.164 223,132.5C 224.646,130.859 225.646,131.193 226,133.5C 226.388,132.572 227.055,131.905 228,131.5C 230.185,132.758 232.352,132.758 234.5,131.5C 236.382,132.093 238.215,132.76 240,133.5C 240.333,132.833 240.667,132.167 241,131.5C 242.333,132.833 243.667,132.833 245,131.5C 246.925,133.973 248.758,133.973 250.5,131.5C 252.071,132.309 253.738,132.643 255.5,132.5C 256.481,137.129 256.648,141.796 256,146.5C 255.78,148.973 254.614,150.64 252.5,151.5C 251.209,151.263 250.209,151.596 249.5,152.5C 248.391,152.557 247.391,152.89 246.5,153.5C 240.096,150.212 236.429,152.212 235.5,159.5C 235.167,160.5 234.5,161.167 233.5,161.5C 232.739,160.609 231.739,159.942 230.5,159.5C 228.972,160.861 227.305,162.028 225.5,163C 224.594,164.699 224.261,166.533 224.5,168.5C 223.833,168.833 223.167,169.167 222.5,169.5C 222.167,169.5 221.833,169.5 221.5,169.5C 222.338,156.574 221.005,143.907 217.5,131.5C 218.833,131.167 220.167,130.833 221.5,130.5 Z"/></g>
<g><path style="opacity:1" fill="#b98763" d="M 114.5,137.5 C 109.571,140.914 107.071,145.581 107,151.5C 109.376,151.923 111.543,151.089 113.5,149C 115.167,148.833 116.833,148.667 118.5,148.5C 123.983,149.434 129.316,150.601 134.5,152C 135.668,147.14 134.335,142.973 130.5,139.5C 141.244,139.774 152.244,139.774 163.5,139.5C 159.665,142.973 158.332,147.14 159.5,152C 164.684,150.601 170.017,149.434 175.5,148.5C 179.512,148.174 182.845,149.507 185.5,152.5C 187.446,150.956 187.946,148.956 187,146.5C 185.389,143.062 183.223,140.062 180.5,137.5C 182.513,136.736 184.513,135.236 186.5,133C 190.84,132.317 193.673,134.15 195,138.5C 196.811,142.988 197.811,147.654 198,152.5C 198.497,150.19 198.663,147.857 198.5,145.5C 199.515,153.213 202.515,160.213 207.5,166.5C 207.5,167.5 207.5,168.5 207.5,169.5C 202.891,172.11 198.558,175.11 194.5,178.5C 191.703,178.967 190.369,180.633 190.5,183.5C 188.127,184.203 186.127,185.536 184.5,187.5C 184.5,187.167 184.5,186.833 184.5,186.5C 187.761,181.8 188.095,176.966 185.5,172C 183.256,171.094 180.923,170.594 178.5,170.5C 168.571,172.023 158.571,172.689 148.5,172.5C 136.118,172.412 123.785,171.912 111.5,171C 108.932,172.127 107.598,174.127 107.5,177C 108.071,179.544 108.738,182.044 109.5,184.5C 113.343,192.348 119.343,197.681 127.5,200.5C 128.842,201.793 130.509,202.626 132.5,203C 144.821,205.619 156.821,204.786 168.5,200.5C 174.684,197.983 179.684,193.983 183.5,188.5C 184.525,188.897 184.692,189.563 184,190.5C 180.285,196.444 175.118,200.611 168.5,203C 150.408,208.909 133.075,207.242 116.5,198C 113.009,192.848 109.176,188.015 105,183.5C 104.601,183.728 104.435,184.062 104.5,184.5C 100.42,177.756 94.7534,172.756 87.5,169.5C 87.5,168.167 87.5,166.833 87.5,165.5C 89.4825,161.553 91.9825,157.886 95,154.5C 95.1805,151.305 95.6805,148.305 96.5,145.5C 96.3359,148.187 96.5026,150.854 97,153.5C 97.4807,149.469 98.1473,145.469 99,141.5C 103.154,131.703 108.321,130.369 114.5,137.5 Z"/></g>
<g><path style="opacity:1" fill="#433424" d="M 130.5,139.5 C 134.335,142.973 135.668,147.14 134.5,152C 129.316,150.601 123.983,149.434 118.5,148.5C 116.833,148.667 115.167,148.833 113.5,149C 111.543,151.089 109.376,151.923 107,151.5C 107.071,145.581 109.571,140.914 114.5,137.5C 120.202,135.713 125.535,136.38 130.5,139.5 Z"/></g>
<g><path style="opacity:1" fill="#443424" d="M 180.5,137.5 C 183.223,140.062 185.389,143.062 187,146.5C 187.946,148.956 187.446,150.956 185.5,152.5C 182.845,149.507 179.512,148.174 175.5,148.5C 170.017,149.434 164.684,150.601 159.5,152C 158.332,147.14 159.665,142.973 163.5,139.5C 168.676,135.028 174.342,134.361 180.5,137.5 Z"/></g>
<g><path style="opacity:1" fill="#fad4ae" d="M 38.5,149.5 C 39.404,150.209 39.7373,151.209 39.5,152.5C 37.4727,152.662 35.4727,152.495 33.5,152C 30.076,149.62 27.076,146.787 24.5,143.5C 24.1409,136.78 23.1409,130.447 21.5,124.5C 22.1495,122.565 22.4828,120.565 22.5,118.5C 23.1174,118.389 23.6174,118.056 24,117.5C 25.7658,119.596 27.0991,121.929 28,124.5C 29.0592,131.547 29.7258,138.547 30,145.5C 32.6899,147.198 35.0232,149.198 37,151.5C 38.0299,151.164 38.5299,150.497 38.5,149.5 Z"/></g>
<g><path style="opacity:1" fill="#fae6d1" d="M 24.5,112.5 C 24.3505,113.552 24.5172,114.552 25,115.5C 29.4829,116.642 32.8162,119.308 35,123.5C 36.0171,130.951 36.8505,138.285 37.5,145.5C 37.8333,146.833 38.1667,148.167 38.5,149.5C 38.5299,150.497 38.0299,151.164 37,151.5C 35.0232,149.198 32.6899,147.198 30,145.5C 29.7258,138.547 29.0592,131.547 28,124.5C 27.0991,121.929 25.7658,119.596 24,117.5C 23.6174,118.056 23.1174,118.389 22.5,118.5C 22.8751,116.302 23.5418,114.302 24.5,112.5 Z"/></g>
<g><path style="opacity:1" fill="#ce433b" d="M 246.5,153.5 C 243.518,157.243 244.185,160.243 248.5,162.5C 249.609,162.443 250.609,162.11 251.5,161.5C 252.931,162.78 253.598,164.447 253.5,166.5C 251.008,170.266 247.674,171.266 243.5,169.5C 240.423,166.431 237.756,163.097 235.5,159.5C 236.429,152.212 240.096,150.212 246.5,153.5 Z"/></g>
<g><path style="opacity:1" fill="#71767e" d="M 249.5,152.5 C 250.209,151.596 251.209,151.263 252.5,151.5C 253.167,152.833 254.167,153.833 255.5,154.5C 255.657,155.873 255.49,157.207 255,158.5C 253.482,159.163 252.315,160.163 251.5,161.5C 250.609,162.11 249.609,162.443 248.5,162.5C 249.714,160.851 251.047,159.185 252.5,157.5C 251.725,155.604 250.725,153.937 249.5,152.5 Z"/></g>
<g><path style="opacity:1" fill="#4b4f56" d="M 48.5,153.5 C 49.4558,154.659 50.4558,155.826 51.5,157C 50.0008,161.067 47.3341,162.567 43.5,161.5C 41.5363,159.873 40.203,157.873 39.5,155.5C 40.4013,154.71 41.0679,153.71 41.5,152.5C 44.0835,151.062 46.4168,151.396 48.5,153.5 Z"/></g>
<g><path style="opacity:1" fill="#3f434b" d="M 249.5,152.5 C 250.725,153.937 251.725,155.604 252.5,157.5C 251.047,159.185 249.714,160.851 248.5,162.5C 244.185,160.243 243.518,157.243 246.5,153.5C 247.391,152.89 248.391,152.557 249.5,152.5 Z"/></g>
<g><path style="opacity:1" fill="#e6bb9a" d="M 141.5,154.5 C 145.514,154.334 149.514,154.501 153.5,155C 158.833,157.667 158.833,160.333 153.5,163C 149.5,163.667 145.5,163.667 141.5,163C 136.272,160.179 136.272,157.346 141.5,154.5 Z"/></g>
<g><path style="opacity:1" fill="#f7ecdc" d="M 144.5,155.5 C 147.807,155.063 150.807,155.73 153.5,157.5C 153.291,158.086 152.957,158.586 152.5,159C 149.167,159.667 145.833,159.667 142.5,159C 142.043,158.586 141.709,158.086 141.5,157.5C 142.602,156.824 143.602,156.158 144.5,155.5 Z"/></g>
<g><path style="opacity:1" fill="#d55442" d="M 55.5,152.5 C 53.9435,158.224 50.9435,163.058 46.5,167C 46.9891,168.138 47.3225,169.305 47.5,170.5C 46.391,170.443 45.391,170.11 44.5,169.5C 43.3146,168.143 42.3146,166.643 41.5,165C 41.8082,163.541 42.4749,162.374 43.5,161.5C 47.3341,162.567 50.0008,161.067 51.5,157C 50.4558,155.826 49.4558,154.659 48.5,153.5C 50.7898,151.661 53.1231,151.328 55.5,152.5 Z"/></g>
<g><path style="opacity:1" fill="#c13135" d="M 55.5,152.5 C 58.5517,153.777 59.8851,156.11 59.5,159.5C 57.2437,163.097 54.5771,166.431 51.5,169.5C 50.2921,170.234 48.9587,170.567 47.5,170.5C 47.3225,169.305 46.9891,168.138 46.5,167C 50.9435,163.058 53.9435,158.224 55.5,152.5 Z"/></g>
<g><path style="opacity:1" fill="#f9b77a" d="M 274.5,137.5 C 276.251,151.224 275.251,164.891 271.5,178.5C 269.801,178.38 268.135,178.046 266.5,177.5C 264.443,179.531 262.61,179.531 261,177.5C 259.093,177.421 257.093,177.754 255,178.5C 253.601,177.773 252.101,177.273 250.5,177C 253.021,173.73 254.021,170.23 253.5,166.5C 253.598,164.447 252.931,162.78 251.5,161.5C 252.315,160.163 253.482,159.163 255,158.5C 255.49,157.207 255.657,155.873 255.5,154.5C 262.373,152.481 268.206,148.814 273,143.5C 273.191,141.292 273.691,139.292 274.5,137.5 Z"/></g>
<g><path style="opacity:1" fill="#f8b578" d="M 19.5,144.5 C 24.784,150.806 31.4507,154.473 39.5,155.5C 40.203,157.873 41.5363,159.873 43.5,161.5C 42.4749,162.374 41.8082,163.541 41.5,165C 42.3146,166.643 43.3146,168.143 44.5,169.5C 45.6635,173.852 48.3301,175.352 52.5,174C 51.8333,174.333 51.1667,174.667 50.5,175C 52.9117,179.416 56.0783,183.249 60,186.5C 60.6667,187.167 60.6667,187.833 60,188.5C 54.6678,184.498 49.6678,180.164 45,175.5C 43.416,175.988 42.2494,176.988 41.5,178.5C 35.8272,179.814 29.8272,179.814 23.5,178.5C 20.4883,167.396 19.1549,156.063 19.5,144.5 Z"/></g>
<g><path style="opacity:1" fill="#a6a8b0" d="M 235.5,159.5 C 237.756,163.097 240.423,166.431 243.5,169.5C 243.167,170.167 242.833,170.833 242.5,171.5C 236.918,172.457 233.584,169.957 232.5,164C 232.528,162.93 232.861,162.097 233.5,161.5C 234.5,161.167 235.167,160.5 235.5,159.5 Z"/></g>
<g><path style="opacity:1" fill="#cc473f" d="M 61.5,160.5 C 67.6749,159.677 70.6749,162.344 70.5,168.5C 68.2437,172.097 65.5771,175.431 62.5,178.5C 58.177,180.172 55.177,178.839 53.5,174.5C 53.5427,173.584 53.8761,172.917 54.5,172.5C 59.0862,171.248 62.0862,168.248 63.5,163.5C 62.8075,162.482 62.1408,161.482 61.5,160.5 Z"/></g>
<g><path style="opacity:1" fill="#9f534c" d="M 213.5,168.5 C 214.833,168.5 216.167,168.5 217.5,168.5C 218.833,168.833 220.167,169.167 221.5,169.5C 221.833,169.5 222.167,169.5 222.5,169.5C 221.4,170.605 220.733,171.938 220.5,173.5C 218.167,173.5 215.833,173.5 213.5,173.5C 213.167,173.5 212.833,173.5 212.5,173.5C 212.5,172.5 212.5,171.5 212.5,170.5C 212.833,169.833 213.167,169.167 213.5,168.5 Z"/></g>
<g><path style="opacity:1" fill="#a7aab2" d="M 59.5,159.5 C 59.8417,160.338 60.5084,160.672 61.5,160.5C 62.1408,161.482 62.8075,162.482 63.5,163.5C 62.0862,168.248 59.0862,171.248 54.5,172.5C 53.3065,171.728 52.3065,170.728 51.5,169.5C 54.5771,166.431 57.2437,163.097 59.5,159.5 Z"/></g>
<g><path style="opacity:1" fill="#9e574f" d="M 73.5,166.5 C 74.2679,167.263 74.7679,168.263 75,169.5C 76.0113,168.663 77.1779,168.33 78.5,168.5C 79.5,168.5 80.5,168.5 81.5,168.5C 82.3007,170.042 82.634,171.708 82.5,173.5C 82.1667,173.5 81.8333,173.5 81.5,173.5C 79.1667,173.5 76.8333,173.5 74.5,173.5C 74.4431,172.391 74.1098,171.391 73.5,170.5C 73.5,169.167 73.5,167.833 73.5,166.5 Z"/></g>
<g><path style="opacity:1" fill="#d44d40" d="M 233.5,161.5 C 232.861,162.097 232.528,162.93 232.5,164C 233.584,169.957 236.918,172.457 242.5,171.5C 241.965,177.397 238.965,179.73 233.5,178.5C 235.416,177.335 236.249,175.668 236,173.5C 234.316,171.649 232.483,169.982 230.5,168.5C 229.378,169.63 228.044,170.297 226.5,170.5C 226.167,169.5 225.5,168.833 224.5,168.5C 224.261,166.533 224.594,164.699 225.5,163C 227.305,162.028 228.972,160.861 230.5,159.5C 231.739,159.942 232.739,160.609 233.5,161.5 Z"/></g>
<g><path style="opacity:1" fill="#4c0e11" d="M 184.5,186.5 C 183.532,184.393 183.198,182.059 183.5,179.5C 184.259,175.76 182.759,174.093 179,174.5C 157.998,177.15 136.998,177.15 116,174.5C 112.737,173.932 111.237,175.266 111.5,178.5C 110.952,180.626 110.285,182.626 109.5,184.5C 108.738,182.044 108.071,179.544 107.5,177C 107.598,174.127 108.932,172.127 111.5,171C 123.785,171.912 136.118,172.412 148.5,172.5C 158.571,172.689 168.571,172.023 178.5,170.5C 180.923,170.594 183.256,171.094 185.5,172C 188.095,176.966 187.761,181.8 184.5,186.5 Z"/></g>
<g><path style="opacity:1" fill="#ef9d87" d="M 212.5,170.5 C 212.5,171.5 212.5,172.5 212.5,173.5C 203.95,176.718 197.617,182.385 193.5,190.5C 192.207,191.842 191.374,193.509 191,195.5C 190.109,191.628 190.609,187.962 192.5,184.5C 198.377,178.61 205.043,173.944 212.5,170.5 Z"/></g>
<g><path style="opacity:1" fill="#b5262d" d="M 233.5,178.5 C 233.167,178.5 232.833,178.5 232.5,178.5C 230.115,176.116 228.115,173.45 226.5,170.5C 228.044,170.297 229.378,169.63 230.5,168.5C 232.483,169.982 234.316,171.649 236,173.5C 236.249,175.668 235.416,177.335 233.5,178.5 Z"/></g>
<g><path style="opacity:1" fill="#6c111b" d="M 74.5,173.5 C 76.8333,173.5 79.1667,173.5 81.5,173.5C 81.5,174.833 81.5,176.167 81.5,177.5C 80.1429,178.59 79.1429,179.924 78.5,181.5C 76.3302,182.838 74.6635,184.672 73.5,187C 71.0912,188.707 68.4245,189.54 65.5,189.5C 64.5975,186.609 64.2641,183.609 64.5,180.5C 69.2748,180.792 72.6081,178.459 74.5,173.5 Z"/></g>
<g><path style="opacity:1" fill="#eb8374" d="M 213.5,168.5 C 213.167,169.167 212.833,169.833 212.5,170.5C 205.043,173.944 198.377,178.61 192.5,184.5C 190.609,187.962 190.109,191.628 191,195.5C 191.374,193.509 192.207,191.842 193.5,190.5C 192.901,193.963 191.901,197.296 190.5,200.5C 189.778,200.082 189.278,199.416 189,198.5C 188.333,195.167 188.333,191.833 189,188.5C 190.592,184.979 192.425,181.646 194.5,178.5C 198.558,175.11 202.891,172.11 207.5,169.5C 209.435,168.85 211.435,168.517 213.5,168.5 Z"/></g>
<g><path style="opacity:1" fill="#680f1a" d="M 213.5,173.5 C 215.833,173.5 218.167,173.5 220.5,173.5C 222.26,177.595 225.26,180.262 229.5,181.5C 227.821,183 226.488,184.833 225.5,187C 224.552,187.483 223.552,187.649 222.5,187.5C 219.695,185.208 217.362,182.541 215.5,179.5C 214.262,177.786 213.595,175.786 213.5,173.5 Z"/></g>
<g><path style="opacity:1" fill="#ef9c85" d="M 103.5,194.5 C 100.025,186.907 94.6913,180.907 87.5,176.5C 86.7101,175.206 85.7101,174.039 84.5,173C 85.8333,172.333 87.1667,172.333 88.5,173C 96.9151,177.004 102.582,183.338 105.5,192C 105.316,193.376 104.649,194.209 103.5,194.5 Z"/></g>
<g><path style="opacity:1" fill="#a4a5ad" d="M 224.5,168.5 C 225.5,168.833 226.167,169.5 226.5,170.5C 228.115,173.45 230.115,176.116 232.5,178.5C 231.833,179.167 231.167,179.833 230.5,180.5C 229.833,180.5 229.5,180.833 229.5,181.5C 225.26,180.262 222.26,177.595 220.5,173.5C 220.733,171.938 221.4,170.605 222.5,169.5C 223.167,169.167 223.833,168.833 224.5,168.5 Z"/></g>
<g><path style="opacity:1" fill="#a7a9b1" d="M 70.5,168.5 C 71.5,169.167 72.5,169.833 73.5,170.5C 74.1098,171.391 74.4431,172.391 74.5,173.5C 72.6081,178.459 69.2748,180.792 64.5,180.5C 64.1667,179.5 63.5,178.833 62.5,178.5C 65.5771,175.431 68.2437,172.097 70.5,168.5 Z"/></g>
<g><path style="opacity:1" fill="#eb8475" d="M 81.5,168.5 C 83.5648,168.517 85.5648,168.85 87.5,169.5C 94.7534,172.756 100.42,177.756 104.5,184.5C 106.623,189.392 106.956,194.392 105.5,199.5C 103.744,198.448 103.077,196.781 103.5,194.5C 104.649,194.209 105.316,193.376 105.5,192C 102.582,183.338 96.9151,177.004 88.5,173C 87.1667,172.333 85.8333,172.333 84.5,173C 85.7101,174.039 86.7101,175.206 87.5,176.5C 85.5659,175.89 83.8993,174.89 82.5,173.5C 82.634,171.708 82.3007,170.042 81.5,168.5 Z"/></g>
<g><path style="opacity:1" fill="#f6ac6d" d="M 253.5,166.5 C 254.021,170.23 253.021,173.73 250.5,177C 252.101,177.273 253.601,177.773 255,178.5C 257.093,177.754 259.093,177.421 261,177.5C 262.61,179.531 264.443,179.531 266.5,177.5C 268.135,178.046 269.801,178.38 271.5,178.5C 270.095,184.715 268.095,190.715 265.5,196.5C 263.917,194.137 262.084,194.137 260,196.5C 259.309,194.109 258.309,194.109 257,196.5C 252,195.167 247,195.167 242,196.5C 239.656,194.997 237.323,194.331 235,194.5C 235.363,198.801 235.363,203.134 235,207.5C 234.654,204.424 233.988,201.424 233,198.5C 232.722,199.416 232.222,200.082 231.5,200.5C 231.025,198.216 230.025,196.216 228.5,194.5C 229.038,192.883 229.371,191.216 229.5,189.5C 230.477,186.713 230.81,183.713 230.5,180.5C 231.167,179.833 231.833,179.167 232.5,178.5C 232.833,178.5 233.167,178.5 233.5,178.5C 238.965,179.73 241.965,177.397 242.5,171.5C 242.833,170.833 243.167,170.167 243.5,169.5C 247.674,171.266 251.008,170.266 253.5,166.5 Z"/></g>
<g><path style="opacity:1" fill="#f6ac6d" d="M 44.5,169.5 C 45.391,170.11 46.391,170.443 47.5,170.5C 48.9587,170.567 50.2921,170.234 51.5,169.5C 52.3065,170.728 53.3065,171.728 54.5,172.5C 53.8761,172.917 53.5427,173.584 53.5,174.5C 55.177,178.839 58.177,180.172 62.5,178.5C 63.5,178.833 64.1667,179.5 64.5,180.5C 64.2641,183.609 64.5975,186.609 65.5,189.5C 65.8925,191.284 66.5592,192.95 67.5,194.5C 62.9948,200.454 63.9948,205.454 70.5,209.5C 67.9512,209.559 65.9512,208.559 64.5,206.5C 63.3591,203.938 62.5257,201.272 62,198.5C 61.1779,200.788 60.5112,203.122 60,205.5C 60.5361,201.369 60.5361,197.369 60,193.5C 59.5814,194.672 58.9147,195.672 58,196.5C 55.6125,196.469 53.1125,195.803 50.5,194.5C 44.6354,195.146 38.802,195.813 33,196.5C 31.9887,195.663 30.8221,195.33 29.5,195.5C 26.7315,190.2 24.7315,184.533 23.5,178.5C 29.8272,179.814 35.8272,179.814 41.5,178.5C 42.2494,176.988 43.416,175.988 45,175.5C 49.6678,180.164 54.6678,184.498 60,188.5C 60.6667,187.833 60.6667,187.167 60,186.5C 56.0783,183.249 52.9117,179.416 50.5,175C 51.1667,174.667 51.8333,174.333 52.5,174C 48.3301,175.352 45.6635,173.852 44.5,169.5 Z"/></g>
<g><path style="opacity:1" fill="#bda896" d="M 183.5,179.5 C 182.857,181.076 181.857,182.41 180.5,183.5C 180.291,182.078 179.791,180.745 179,179.5C 178.667,179.833 178.333,180.167 178,180.5C 175.753,179.02 173.253,178.353 170.5,178.5C 150.969,179.6 131.636,179.6 112.5,178.5C 112.167,178.5 111.833,178.5 111.5,178.5C 111.237,175.266 112.737,173.932 116,174.5C 136.998,177.15 157.998,177.15 179,174.5C 182.759,174.093 184.259,175.76 183.5,179.5 Z"/></g>
<g><path style="opacity:1" fill="#e8dfcf" d="M 180.5,183.5 C 161.894,185.484 143.227,185.984 124.5,185C 120.68,184.765 117.013,183.932 113.5,182.5C 112.754,181.264 112.421,179.93 112.5,178.5C 131.636,179.6 150.969,179.6 170.5,178.5C 173.253,178.353 175.753,179.02 178,180.5C 178.333,180.167 178.667,179.833 179,179.5C 179.791,180.745 180.291,182.078 180.5,183.5 Z"/></g>
<g><path style="opacity:1" fill="#731117" d="M 111.5,178.5 C 111.833,178.5 112.167,178.5 112.5,178.5C 112.421,179.93 112.754,181.264 113.5,182.5C 117.013,183.932 120.68,184.765 124.5,185C 143.227,185.984 161.894,185.484 180.5,183.5C 181.857,182.41 182.857,181.076 183.5,179.5C 183.198,182.059 183.532,184.393 184.5,186.5C 184.5,186.833 184.5,187.167 184.5,187.5C 183.833,187.5 183.5,187.833 183.5,188.5C 179.684,193.983 174.684,197.983 168.5,200.5C 167.5,198.833 166.167,197.5 164.5,196.5C 156.978,189.894 148.312,188.061 138.5,191C 136.308,191.926 134.308,193.093 132.5,194.5C 130.086,195.911 128.419,197.911 127.5,200.5C 119.343,197.681 113.343,192.348 109.5,184.5C 110.285,182.626 110.952,180.626 111.5,178.5 Z"/></g>
<g><path style="opacity:1" fill="#cd5149" d="M 212.5,173.5 C 212.963,176.482 213.296,179.482 213.5,182.5C 206.691,186.119 200.524,190.786 195,196.5C 194.667,198.5 194.333,200.5 194,202.5C 193.617,203.056 193.117,203.389 192.5,203.5C 191.094,203.027 190.427,202.027 190.5,200.5C 191.901,197.296 192.901,193.963 193.5,190.5C 197.617,182.385 203.95,176.718 212.5,173.5 Z"/></g>
<g><path style="opacity:1" fill="#a21d25" d="M 215.5,179.5 C 217.362,182.541 219.695,185.208 222.5,187.5C 223.807,188.802 223.807,190.135 222.5,191.5C 219.703,193.221 217.369,195.387 215.5,198C 210.034,201.174 204.367,203.674 198.5,205.5C 197.624,205.631 196.957,205.298 196.5,204.5C 197.919,202.664 199.086,200.664 200,198.5C 205.965,194.367 211.465,189.7 216.5,184.5C 215.691,182.929 215.357,181.262 215.5,179.5 Z"/></g>
<g><path style="opacity:1" fill="#ce534b" d="M 81.5,173.5 C 81.8333,173.5 82.1667,173.5 82.5,173.5C 83.8993,174.89 85.5659,175.89 87.5,176.5C 94.6913,180.907 100.025,186.907 103.5,194.5C 103.077,196.781 103.744,198.448 105.5,199.5C 104.925,201.411 103.925,203.078 102.5,204.5C 102.167,204.5 101.833,204.5 101.5,204.5C 101.911,200.537 101.078,196.87 99,193.5C 93.2963,190.189 87.7963,186.523 82.5,182.5C 81.5481,180.955 81.2148,179.288 81.5,177.5C 81.5,176.167 81.5,174.833 81.5,173.5 Z"/></g>
<g><path style="opacity:1" fill="#b02e30" d="M 81.5,177.5 C 81.2148,179.288 81.5481,180.955 82.5,182.5C 87.7963,186.523 93.2963,190.189 99,193.5C 101.078,196.87 101.911,200.537 101.5,204.5C 99.551,206.563 97.2177,207.896 94.5,208.5C 93.5,208.5 92.5,208.5 91.5,208.5C 90.8333,208.5 90.1667,208.5 89.5,208.5C 86.2737,207.511 82.9404,206.511 79.5,205.5C 78.1667,204.167 76.8333,202.833 75.5,201.5C 80.857,203.34 86.357,204.673 92,205.5C 93.9674,205.458 95.8008,204.958 97.5,204C 88.1646,203.249 80.3313,199.416 74,192.5C 73.3333,191.5 73.3333,190.5 74,189.5C 75.9751,187.047 77.4751,184.381 78.5,181.5C 79.1429,179.924 80.1429,178.59 81.5,177.5 Z"/></g>
<g><path style="opacity:1" fill="#8c1a21" d="M 230.5,180.5 C 230.81,183.713 230.477,186.713 229.5,189.5C 225.003,194.83 220.003,199.663 214.5,204C 209.141,206.176 203.807,206.676 198.5,205.5C 204.367,203.674 210.034,201.174 215.5,198C 217.369,195.387 219.703,193.221 222.5,191.5C 223.807,190.135 223.807,188.802 222.5,187.5C 223.552,187.649 224.552,187.483 225.5,187C 226.488,184.833 227.821,183 229.5,181.5C 229.5,180.833 229.833,180.5 230.5,180.5 Z"/></g>
<g><path style="opacity:1" fill="#8e5e45" d="M 194.5,178.5 C 192.425,181.646 190.592,184.979 189,188.5C 188.333,191.833 188.333,195.167 189,198.5C 189.278,199.416 189.778,200.082 190.5,200.5C 190.427,202.027 191.094,203.027 192.5,203.5C 192.5,203.833 192.5,204.167 192.5,204.5C 170.701,216.433 147.701,219.266 123.5,213C 116.424,210.255 109.424,207.422 102.5,204.5C 103.925,203.078 104.925,201.411 105.5,199.5C 106.956,194.392 106.623,189.392 104.5,184.5C 104.435,184.062 104.601,183.728 105,183.5C 109.176,188.015 113.009,192.848 116.5,198C 133.075,207.242 150.408,208.909 168.5,203C 175.118,200.611 180.285,196.444 184,190.5C 184.692,189.563 184.525,188.897 183.5,188.5C 183.5,187.833 183.833,187.5 184.5,187.5C 186.127,185.536 188.127,184.203 190.5,183.5C 190.369,180.633 191.703,178.967 194.5,178.5 Z"/></g>
<g><path style="opacity:1" fill="#f17878" d="M 164.5,196.5 C 164.082,197.222 163.416,197.722 162.5,198C 159.975,198.144 157.642,198.31 155.5,198.5C 155.439,195.95 154.106,194.45 151.5,194C 147.756,193.071 144.256,193.571 141,195.5C 140.36,197.265 140.527,198.932 141.5,200.5C 138.731,199.563 136.064,198.396 133.5,197C 132.748,196.329 132.414,195.496 132.5,194.5C 134.308,193.093 136.308,191.926 138.5,191C 148.312,188.061 156.978,189.894 164.5,196.5 Z"/></g>
<g><path style="opacity:1" fill="#b9383a" d="M 212.5,173.5 C 212.833,173.5 213.167,173.5 213.5,173.5C 213.595,175.786 214.262,177.786 215.5,179.5C 215.357,181.262 215.691,182.929 216.5,184.5C 211.465,189.7 205.965,194.367 200,198.5C 199.086,200.664 197.919,202.664 196.5,204.5C 196.957,205.298 197.624,205.631 198.5,205.5C 203.807,206.676 209.141,206.176 214.5,204C 220.003,199.663 225.003,194.83 229.5,189.5C 229.371,191.216 229.038,192.883 228.5,194.5C 227.5,194.833 226.833,195.5 226.5,196.5C 224.833,197.5 223.5,198.833 222.5,200.5C 219.865,201.811 217.531,203.478 215.5,205.5C 212.306,206.758 208.973,207.424 205.5,207.5C 203.5,207.5 201.5,207.5 199.5,207.5C 196.978,206.989 194.645,205.989 192.5,204.5C 192.5,204.167 192.5,203.833 192.5,203.5C 193.117,203.389 193.617,203.056 194,202.5C 194.333,200.5 194.667,198.5 195,196.5C 200.524,190.786 206.691,186.119 213.5,182.5C 213.296,179.482 212.963,176.482 212.5,173.5 Z"/></g>
<g><path style="opacity:1" fill="#c17b46" d="M 68.5,196.5 C 70.1667,197.5 71.5,198.833 72.5,200.5C 70.0882,200.694 69.0882,202.027 69.5,204.5C 67.2313,202.201 66.898,199.534 68.5,196.5 Z"/></g>
<g><path style="opacity:1" fill="#eda09e" d="M 155.5,198.5 C 154.737,199.268 153.737,199.768 152.5,200C 148.848,200.499 145.182,200.665 141.5,200.5C 140.527,198.932 140.36,197.265 141,195.5C 144.256,193.571 147.756,193.071 151.5,194C 154.106,194.45 155.439,195.95 155.5,198.5 Z"/></g>
<g><path style="opacity:1" fill="#f9a563" d="M 70.5,209.5 C 71.1667,209.5 71.5,209.833 71.5,210.5C 70.1779,210.33 69.0113,210.663 68,211.5C 66.8436,215.418 66.3436,219.418 66.5,223.5C 65.0689,223.881 64.2355,224.881 64,226.5C 63.6948,224.443 63.6948,222.443 64,220.5C 62.8139,222.677 60.9806,223.677 58.5,223.5C 58.5,224.5 58.5,225.5 58.5,226.5C 54.57,225.904 50.9034,225.904 47.5,226.5C 43.1423,221.627 39.309,216.294 36,210.5C 33.2646,205.701 31.0979,200.701 29.5,195.5C 30.8221,195.33 31.9887,195.663 33,196.5C 38.802,195.813 44.6354,195.146 50.5,194.5C 53.1125,195.803 55.6125,196.469 58,196.5C 58.9147,195.672 59.5814,194.672 60,193.5C 60.5361,197.369 60.5361,201.369 60,205.5C 60.5112,203.122 61.1779,200.788 62,198.5C 62.5257,201.272 63.3591,203.938 64.5,206.5C 65.9512,208.559 67.9512,209.559 70.5,209.5 Z"/></g>
<g><path style="opacity:1" fill="#931e24" d="M 78.5,181.5 C 77.4751,184.381 75.9751,187.047 74,189.5C 73.3333,190.5 73.3333,191.5 74,192.5C 80.3313,199.416 88.1646,203.249 97.5,204C 95.8008,204.958 93.9674,205.458 92,205.5C 86.357,204.673 80.857,203.34 75.5,201.5C 74.609,200.89 73.609,200.557 72.5,200.5C 71.5,198.833 70.1667,197.5 68.5,196.5C 68.6716,195.508 68.3382,194.842 67.5,194.5C 66.5592,192.95 65.8925,191.284 65.5,189.5C 68.4245,189.54 71.0912,188.707 73.5,187C 74.6635,184.672 76.3302,182.838 78.5,181.5 Z"/></g>
<g><path style="opacity:1" fill="#f9a664" d="M 265.5,196.5 C 261.485,207.813 255.485,217.813 247.5,226.5C 243.455,225.991 239.121,225.491 234.5,225C 234.833,224.667 235.167,224.333 235.5,224C 233.725,220.276 232.058,216.442 230.5,212.5C 231.245,209.685 231.912,206.851 232.5,204C 232.472,202.93 232.139,202.097 231.5,201.5C 231.5,201.167 231.5,200.833 231.5,200.5C 232.222,200.082 232.722,199.416 233,198.5C 233.988,201.424 234.654,204.424 235,207.5C 235.363,203.134 235.363,198.801 235,194.5C 237.323,194.331 239.656,194.997 242,196.5C 247,195.167 252,195.167 257,196.5C 258.309,194.109 259.309,194.109 260,196.5C 262.084,194.137 263.917,194.137 265.5,196.5 Z"/></g>
<g><path style="opacity:1" fill="#bc4e4a" d="M 132.5,194.5 C 132.414,195.496 132.748,196.329 133.5,197C 136.064,198.396 138.731,199.563 141.5,200.5C 145.182,200.665 148.848,200.499 152.5,200C 153.737,199.768 154.737,199.268 155.5,198.5C 157.642,198.31 159.975,198.144 162.5,198C 163.416,197.722 164.082,197.222 164.5,196.5C 166.167,197.5 167.5,198.833 168.5,200.5C 156.821,204.786 144.821,205.619 132.5,203C 130.509,202.626 128.842,201.793 127.5,200.5C 128.419,197.911 130.086,195.911 132.5,194.5 Z"/></g>
<g><path style="opacity:1" fill="#e5b04b" d="M 72.5,200.5 C 73.609,200.557 74.609,200.89 75.5,201.5C 76.8333,202.833 78.1667,204.167 79.5,205.5C 79.9153,207.948 78.9153,209.281 76.5,209.5C 73.8714,208.198 71.538,206.532 69.5,204.5C 69.0882,202.027 70.0882,200.694 72.5,200.5 Z"/></g>
<g><path style="opacity:1" fill="#e4bb59" d="M 222.5,200.5 C 224.028,200.517 224.528,201.184 224,202.5C 221.6,204.729 219.433,207.063 217.5,209.5C 215.896,208.713 215.229,207.38 215.5,205.5C 217.531,203.478 219.865,201.811 222.5,200.5 Z"/></g>
<g><path style="opacity:1" fill="#d88b44" d="M 226.5,196.5 C 228.248,198.16 228.748,200.16 228,202.5C 224.999,205.739 221.499,208.072 217.5,209.5C 219.433,207.063 221.6,204.729 224,202.5C 224.528,201.184 224.028,200.517 222.5,200.5C 223.5,198.833 224.833,197.5 226.5,196.5 Z"/></g>
<g><path style="opacity:1" fill="#3e3e41" d="M 67.5,194.5 C 68.3382,194.842 68.6716,195.508 68.5,196.5C 66.898,199.534 67.2313,202.201 69.5,204.5C 71.538,206.532 73.8714,208.198 76.5,209.5C 78.9153,209.281 79.9153,207.948 79.5,205.5C 82.9404,206.511 86.2737,207.511 89.5,208.5C 82.7384,211.355 81.0717,216.022 84.5,222.5C 84.315,223.584 83.9817,224.584 83.5,225.5C 82.5489,224.081 82.2155,222.415 82.5,220.5C 80.1417,220.253 78.1417,220.919 76.5,222.5C 77.0476,220.606 78.0476,218.94 79.5,217.5C 79.1445,216.478 78.4778,215.811 77.5,215.5C 76.1092,213.11 74.1092,211.443 71.5,210.5C 71.5,209.833 71.1667,209.5 70.5,209.5C 63.9948,205.454 62.9948,200.454 67.5,194.5 Z"/></g>
<g><path style="opacity:1" fill="#3a3b40" d="M 228.5,194.5 C 230.025,196.216 231.025,198.216 231.5,200.5C 231.5,200.833 231.5,201.167 231.5,201.5C 229.518,205.146 226.851,208.146 223.5,210.5C 222.833,210.833 222.167,211.167 221.5,211.5C 219.799,211.966 218.299,211.966 217,211.5C 215.509,213.664 214.009,215.664 212.5,217.5C 212.092,213.083 209.759,210.083 205.5,208.5C 205.5,208.167 205.5,207.833 205.5,207.5C 208.973,207.424 212.306,206.758 215.5,205.5C 215.229,207.38 215.896,208.713 217.5,209.5C 221.499,208.072 224.999,205.739 228,202.5C 228.748,200.16 228.248,198.16 226.5,196.5C 226.833,195.5 227.5,194.833 228.5,194.5 Z"/></g>
<g><path style="opacity:1" fill="#deb743" d="M 205.5,208.5 C 209.759,210.083 212.092,213.083 212.5,217.5C 211.133,221.608 211.466,225.608 213.5,229.5C 208.406,230.336 204.073,229.002 200.5,225.5C 199.418,219.99 199.418,214.323 200.5,208.5C 202.167,208.5 203.833,208.5 205.5,208.5 Z"/></g>
<g><path style="opacity:1" fill="#dcba44" d="M 89.5,208.5 C 90.1667,208.5 90.8333,208.5 91.5,208.5C 91.6658,213.179 91.4992,217.845 91,222.5C 89.668,224.66 88.168,226.66 86.5,228.5C 85.2196,229.931 83.5529,230.598 81.5,230.5C 81.8925,228.716 82.5592,227.05 83.5,225.5C 83.9817,224.584 84.315,223.584 84.5,222.5C 81.0717,216.022 82.7384,211.355 89.5,208.5 Z"/></g>
<g><path style="opacity:1" fill="#27272b" d="M 101.5,204.5 C 101.833,204.5 102.167,204.5 102.5,204.5C 109.424,207.422 116.424,210.255 123.5,213C 147.701,219.266 170.701,216.433 192.5,204.5C 194.645,205.989 196.978,206.989 199.5,207.5C 198.969,209.624 197.635,211.124 195.5,212C 191.593,214.121 187.593,215.955 183.5,217.5C 158.073,224.291 132.739,223.958 107.5,216.5C 103.334,213.916 99.0004,211.583 94.5,209.5C 94.5,209.167 94.5,208.833 94.5,208.5C 97.2177,207.896 99.551,206.563 101.5,204.5 Z"/></g>
<g><path style="opacity:1" fill="#e9c058" d="M 223.5,210.5 C 224.552,210.351 225.552,210.517 226.5,211C 224.255,214.407 221.588,217.24 218.5,219.5C 218.167,219.5 217.833,219.5 217.5,219.5C 216.402,218.399 216.235,217.066 217,215.5C 218.397,213.93 219.897,212.596 221.5,211.5C 222.167,211.167 222.833,210.833 223.5,210.5 Z"/></g>
<g><path style="opacity:1" fill="#e3b54d" d="M 71.5,210.5 C 74.1092,211.443 76.1092,213.11 77.5,215.5C 76.1999,219.296 73.5332,221.463 69.5,222C 70.1667,222.667 70.8333,223.333 71.5,224C 69.8034,224.384 68.1368,224.218 66.5,223.5C 66.3436,219.418 66.8436,215.418 68,211.5C 69.0113,210.663 70.1779,210.33 71.5,210.5 Z"/></g>
<g><path style="opacity:1" fill="#e8ae43" d="M 91.5,208.5 C 92.5,208.5 93.5,208.5 94.5,208.5C 94.5,208.833 94.5,209.167 94.5,209.5C 94.5,210.5 94.5,211.5 94.5,212.5C 95.1654,217.734 94.1654,222.568 91.5,227C 89.8455,227.608 88.1789,228.108 86.5,228.5C 88.168,226.66 89.668,224.66 91,222.5C 91.4992,217.845 91.6658,213.179 91.5,208.5 Z"/></g>
<g><path style="opacity:1" fill="#9b5221" d="M 199.5,207.5 C 201.5,207.5 203.5,207.5 205.5,207.5C 205.5,207.833 205.5,208.167 205.5,208.5C 203.833,208.5 202.167,208.5 200.5,208.5C 199.418,214.323 199.418,219.99 200.5,225.5C 200.5,226.167 200.5,226.833 200.5,227.5C 200.265,228.097 199.765,228.43 199,228.5C 197.413,227.33 195.747,226.33 194,225.5C 183.424,226.157 172.757,227.157 162,228.5C 147.262,228.034 132.595,227.367 118,226.5C 114.688,226.973 111.354,227.306 108,227.5C 103.027,224.33 98.6935,224.997 95,229.5C 94.5357,228.906 94.369,228.239 94.5,227.5C 97.1084,222.394 97.1084,217.394 94.5,212.5C 94.5,211.5 94.5,210.5 94.5,209.5C 99.0004,211.583 103.334,213.916 107.5,216.5C 103.993,219.298 104.659,221.632 109.5,223.5C 110.086,223.291 110.586,222.957 111,222.5C 134.393,224.959 157.56,224.793 180.5,222C 182.863,221.411 183.863,219.911 183.5,217.5C 187.593,215.955 191.593,214.121 195.5,212C 197.635,211.124 198.969,209.624 199.5,207.5 Z"/></g>
<g><path style="opacity:1" fill="#f18f3f" d="M 94.5,212.5 C 97.1084,217.394 97.1084,222.394 94.5,227.5C 90.5616,232.788 85.2282,234.788 78.5,233.5C 79.1667,232.167 80.1667,231.167 81.5,230.5C 83.5529,230.598 85.2196,229.931 86.5,228.5C 88.1789,228.108 89.8455,227.608 91.5,227C 94.1654,222.568 95.1654,217.734 94.5,212.5 Z"/></g>
<g><path style="opacity:1" fill="#54595f" d="M 221.5,211.5 C 219.897,212.596 218.397,213.93 217,215.5C 216.235,217.066 216.402,218.399 217.5,219.5C 217.833,220.5 218.5,221.167 219.5,221.5C 219.833,222.167 220.167,222.833 220.5,223.5C 221.876,228.411 224.376,228.744 228,224.5C 228.483,225.448 228.649,226.448 228.5,227.5C 228.167,228.167 227.833,228.833 227.5,229.5C 225.405,230.412 223.405,231.579 221.5,233C 219.735,233.64 218.068,233.473 216.5,232.5C 215.272,231.694 214.272,230.694 213.5,229.5C 211.466,225.608 211.133,221.608 212.5,217.5C 214.009,215.664 215.509,213.664 217,211.5C 218.299,211.966 219.799,211.966 221.5,211.5 Z"/></g>
<g><path style="opacity:1" fill="#f09651" d="M 231.5,201.5 C 232.139,202.097 232.472,202.93 232.5,204C 231.912,206.851 231.245,209.685 230.5,212.5C 232.058,216.442 233.725,220.276 235.5,224C 235.167,224.333 234.833,224.667 234.5,225C 239.121,225.491 243.455,225.991 247.5,226.5C 243.539,232.129 238.873,237.129 233.5,241.5C 231.61,240.82 229.61,240.653 227.5,241C 228.451,240.282 228.617,239.449 228,238.5C 224.845,240.719 221.345,242.052 217.5,242.5C 214.412,242.323 211.245,242.323 208,242.5C 206.451,239.997 204.784,239.997 203,242.5C 202.5,242 202,241.5 201.5,241C 197.554,240.825 193.72,240.658 190,240.5C 180.29,241.617 170.29,242.617 160,243.5C 150.067,243.367 140.734,243.367 132,243.5C 119.076,242.547 106.409,241.214 94,239.5C 93.3333,240.167 92.6667,240.833 92,241.5C 90.4667,241.056 88.9667,240.723 87.5,240.5C 81.1324,243.362 74.9658,243.028 69,239.5C 68.6924,240.308 68.1924,240.975 67.5,241.5C 65.674,241.08 63.674,241.08 61.5,241.5C 56.1275,237.129 51.4608,232.129 47.5,226.5C 50.9034,225.904 54.57,225.904 58.5,226.5C 58.5,225.5 58.5,224.5 58.5,223.5C 60.9806,223.677 62.8139,222.677 64,220.5C 63.6948,222.443 63.6948,224.443 64,226.5C 64.2355,224.881 65.0689,223.881 66.5,223.5C 68.1368,224.218 69.8034,224.384 71.5,224C 70.8333,223.333 70.1667,222.667 69.5,222C 73.5332,221.463 76.1999,219.296 77.5,215.5C 78.4778,215.811 79.1445,216.478 79.5,217.5C 78.0476,218.94 77.0476,220.606 76.5,222.5C 74.6136,228.174 71.4469,228.841 67,224.5C 66.235,226.066 66.4017,227.399 67.5,228.5C 67.8333,229.833 68.1667,231.167 68.5,232.5C 70.3362,235.826 73.1696,237.826 77,238.5C 78.8893,237.397 80.7226,237.397 82.5,238.5C 88.9266,236.524 95.4266,234.857 102,233.5C 132.613,237.368 163.279,237.368 194,233.5C 201.124,235.322 208.124,237.322 215,239.5C 217.625,239.419 219.959,238.752 222,237.5C 222.414,237.957 222.914,238.291 223.5,238.5C 226.937,236.296 229.104,233.63 230,230.5C 230.5,228.5 231,226.5 231.5,224.5C 231.457,223.584 231.124,222.917 230.5,222.5C 230.693,218.987 230.026,215.654 228.5,212.5C 226.208,214.657 223.875,216.824 221.5,219C 220.552,219.483 219.552,219.649 218.5,219.5C 221.588,217.24 224.255,214.407 226.5,211C 225.552,210.517 224.552,210.351 223.5,210.5C 226.851,208.146 229.518,205.146 231.5,201.5 Z"/></g>
<g><path style="opacity:1" fill="#d88345" d="M 230.5,222.5 C 231.124,222.917 231.457,223.584 231.5,224.5C 231,226.5 230.5,228.5 230,230.5C 229.104,233.63 226.937,236.296 223.5,238.5C 222.914,238.291 222.414,237.957 222,237.5C 219.959,238.752 217.625,239.419 215,239.5C 208.124,237.322 201.124,235.322 194,233.5C 163.279,237.368 132.613,237.368 102,233.5C 95.4266,234.857 88.9266,236.524 82.5,238.5C 80.7226,237.397 78.8893,237.397 77,238.5C 73.1696,237.826 70.3362,235.826 68.5,232.5C 75.0815,237.222 82.0815,237.722 89.5,234C 93.5585,230.881 98.0585,229.048 103,228.5C 132.181,230.99 161.348,230.99 190.5,228.5C 193.179,228.936 195.845,229.436 198.5,230C 206.963,237.015 215.963,238.015 225.5,233C 226.305,231.887 226.972,230.721 227.5,229.5C 227.833,228.833 228.167,228.167 228.5,227.5C 229.537,226.07 230.204,224.403 230.5,222.5 Z"/></g>
<g><path style="opacity:1" fill="#f09641" d="M 200.5,225.5 C 204.073,229.002 208.406,230.336 213.5,229.5C 214.272,230.694 215.272,231.694 216.5,232.5C 213.696,233.638 210.696,233.805 207.5,233C 205.004,231.334 202.671,229.5 200.5,227.5C 200.5,226.833 200.5,226.167 200.5,225.5 Z"/></g>
<g><path style="opacity:1" fill="#52565c" d="M 83.5,225.5 C 82.5592,227.05 81.8925,228.716 81.5,230.5C 80.1667,231.167 79.1667,232.167 78.5,233.5C 73.9476,233.723 70.2809,232.056 67.5,228.5C 66.4017,227.399 66.235,226.066 67,224.5C 71.4469,228.841 74.6136,228.174 76.5,222.5C 78.1417,220.919 80.1417,220.253 82.5,220.5C 82.2155,222.415 82.5489,224.081 83.5,225.5 Z"/></g>
<g><path style="opacity:1" fill="#e19340" d="M 220.5,223.5 C 220.167,222.833 219.833,222.167 219.5,221.5C 222.106,219.926 224.773,218.259 227.5,216.5C 227.12,220.221 224.787,222.554 220.5,223.5 Z"/></g>
<g><path style="opacity:1" fill="#7f380d" d="M 107.5,216.5 C 132.739,223.958 158.073,224.291 183.5,217.5C 183.863,219.911 182.863,221.411 180.5,222C 157.56,224.793 134.393,224.959 111,222.5C 110.586,222.957 110.086,223.291 109.5,223.5C 104.659,221.632 103.993,219.298 107.5,216.5 Z"/></g>
<g><path style="opacity:1" fill="#bb8546" d="M 230.5,222.5 C 230.204,224.403 229.537,226.07 228.5,227.5C 228.649,226.448 228.483,225.448 228,224.5C 224.376,228.744 221.876,228.411 220.5,223.5C 224.787,222.554 227.12,220.221 227.5,216.5C 224.773,218.259 222.106,219.926 219.5,221.5C 218.5,221.167 217.833,220.5 217.5,219.5C 217.833,219.5 218.167,219.5 218.5,219.5C 219.552,219.649 220.552,219.483 221.5,219C 223.875,216.824 226.208,214.657 228.5,212.5C 230.026,215.654 230.693,218.987 230.5,222.5 Z"/></g>
<g><path style="opacity:1" fill="#b86932" d="M 200.5,227.5 C 202.671,229.5 205.004,231.334 207.5,233C 210.696,233.805 213.696,233.638 216.5,232.5C 218.068,233.473 219.735,233.64 221.5,233C 223.405,231.579 225.405,230.412 227.5,229.5C 226.972,230.721 226.305,231.887 225.5,233C 215.963,238.015 206.963,237.015 198.5,230C 195.845,229.436 193.179,228.936 190.5,228.5C 161.348,230.99 132.181,230.99 103,228.5C 98.0585,229.048 93.5585,230.881 89.5,234C 82.0815,237.722 75.0815,237.222 68.5,232.5C 68.1667,231.167 67.8333,229.833 67.5,228.5C 70.2809,232.056 73.9476,233.723 78.5,233.5C 85.2282,234.788 90.5616,232.788 94.5,227.5C 94.369,228.239 94.5357,228.906 95,229.5C 98.6935,224.997 103.027,224.33 108,227.5C 111.354,227.306 114.688,226.973 118,226.5C 132.595,227.367 147.262,228.034 162,228.5C 172.757,227.157 183.424,226.157 194,225.5C 195.747,226.33 197.413,227.33 199,228.5C 199.765,228.43 200.265,228.097 200.5,227.5 Z"/></g>
<g><path style="opacity:1" fill="#fa9651" d="M 233.5,241.5 C 230.585,244.959 227.252,247.959 223.5,250.5C 173.842,249.688 123.176,249.688 71.5,250.5C 67.7482,247.959 64.4148,244.959 61.5,241.5C 63.674,241.08 65.674,241.08 67.5,241.5C 68.1924,240.975 68.6924,240.308 69,239.5C 74.9658,243.028 81.1324,243.362 87.5,240.5C 88.9667,240.723 90.4667,241.056 92,241.5C 92.6667,240.833 93.3333,240.167 94,239.5C 106.409,241.214 119.076,242.547 132,243.5C 140.734,243.367 150.067,243.367 160,243.5C 170.29,242.617 180.29,241.617 190,240.5C 193.72,240.658 197.554,240.825 201.5,241C 202,241.5 202.5,242 203,242.5C 204.784,239.997 206.451,239.997 208,242.5C 211.245,242.323 214.412,242.323 217.5,242.5C 221.345,242.052 224.845,240.719 228,238.5C 228.617,239.449 228.451,240.282 227.5,241C 229.61,240.653 231.61,240.82 233.5,241.5 Z"/></g>
<g><path style="opacity:1" fill="#fa964b" d="M 71.5,250.5 C 123.176,249.688 173.842,249.688 223.5,250.5C 218.745,253.925 213.745,256.925 208.5,259.5C 168.029,258.259 127.362,258.259 86.5,259.5C 81.2553,256.925 76.2553,253.925 71.5,250.5 Z"/></g>
<g><path style="opacity:1" fill="#fa8f47" d="M 208.5,259.5 C 172.128,278.669 134.795,280.502 96.5,265C 92.9439,263.392 89.6106,261.559 86.5,259.5C 127.362,258.259 168.029,258.259 208.5,259.5 Z"/></g>
</svg>
