<?xml version="1.0" encoding="UTF-8"?>
<!DOCTYPE svg PUBLIC "-//W3C//DTD SVG 1.1//EN" "http://www.w3.org/Graphics/SVG/1.1/DTD/svg11.dtd">
<svg xmlns="http://www.w3.org/2000/svg" version="1.1" width="296px" height="296px" style="shape-rendering:geometricPrecision; text-rendering:geometricPrecision; image-rendering:optimizeQuality; fill-rule:evenodd; clip-rule:evenodd" xmlns:xlink="http://www.w3.org/1999/xlink">
<g><path style="opacity:1" fill="#f7f8f9" d="M 130.5,7.5 C 190.411,3.53921 236.578,26.5392 269,76.5C 288.695,112.018 293.028,149.351 282,188.5C 262.439,244.7 223.273,277.533 164.5,287C 104.566,291.449 58.3996,268.616 26,218.5C 6.305,182.982 1.97167,145.649 13,106.5C 32.7936,50.3725 71.9602,17.3725 130.5,7.5 Z"/></g>
<g><path style="opacity:1" fill="#0d64d7" d="M 166.5,21.5 C 192.426,24.9656 214.759,35.6323 233.5,53.5C 231.459,53.8541 229.626,53.8541 228,53.5C 227.333,56.1667 226.667,56.1667 226,53.5C 225.586,53.9574 225.086,54.2907 224.5,54.5C 220.871,52.6999 217.371,50.6999 214,48.5C 213.667,49.1667 213.333,49.8333 213,50.5C 210.048,47.8213 207.048,47.488 204,49.5C 203,48.8333 202,48.1667 201,47.5C 198.959,48.4231 196.792,48.7564 194.5,48.5C 192.516,48.6168 190.85,47.9501 189.5,46.5C 194.553,46.3051 198.887,44.4717 202.5,41C 202.146,37.9692 200.146,35.9692 196.5,35C 194.567,34.7489 192.734,34.2489 191,33.5C 190.692,34.3081 190.192,34.9747 189.5,35.5C 187.632,35.0539 185.799,34.7205 184,34.5C 182.561,36.0139 181.061,36.3473 179.5,35.5C 176.961,36.1153 174.461,36.7819 172,37.5C 169.26,37.2394 166.594,37.2394 164,37.5C 158.006,34.7184 156.506,30.5517 159.5,25C 158.449,23.6152 157.116,22.6152 155.5,22C 159.342,22.5245 163.008,22.3578 166.5,21.5 Z"/></g>
<g><path style="opacity:1" fill="#0f65d6" d="M 126.5,21.5 C 128.224,22.2598 129.89,22.5931 131.5,22.5C 129.521,22.8772 127.688,24.2106 126,26.5C 124.023,28.8552 124.19,30.8552 126.5,32.5C 127.014,35.7407 129.347,37.2407 133.5,37C 132.663,38.0113 132.33,39.1779 132.5,40.5C 129.652,39.343 127.152,39.6763 125,41.5C 123.333,41.1667 121.667,40.8333 120,40.5C 115.667,41.1667 111.333,41.8333 107,42.5C 100.03,42.0939 92.6969,41.7606 85,41.5C 81.3333,42.5 77.6667,43.5 74,44.5C 73.6012,44.2716 73.4346,43.9382 73.5,43.5C 89.1313,31.5253 106.798,24.1919 126.5,21.5 Z"/></g>
<g><path style="opacity:1" fill="#1f6bd1" d="M 188.5,85.5 C 187.5,84.8333 186.5,84.1667 185.5,83.5C 184.833,83.5 184.5,83.1667 184.5,82.5C 187.318,81.844 188.985,80.0107 189.5,77C 188.833,76.3333 188.167,75.6667 187.5,75C 181.504,72.5463 175.171,71.213 168.5,71C 162.2,68.1892 158.2,63.3558 156.5,56.5C 157.747,54.677 158.414,52.677 158.5,50.5C 159.552,50.6495 160.552,50.4828 161.5,50C 159.862,47.8665 159.029,45.3665 159,42.5C 158,41.1667 157,39.8333 156,38.5C 155.667,38.8333 155.333,39.1667 155,39.5C 153.961,38.2899 152.794,37.2899 151.5,36.5C 150.722,31.4845 148.055,30.3178 143.5,33C 138.683,37.1511 135.517,42.3178 134,48.5C 133,47.1667 132,47.1667 131,48.5C 130.239,51.0529 129.406,53.5529 128.5,56C 128.833,56.3333 129.167,56.6667 129.5,57C 127.833,57.6667 126.167,57.6667 124.5,57C 125.743,55.8455 126.743,54.5122 127.5,53C 125.699,52.6827 125.366,52.016 126.5,51C 125.324,49.0858 124.324,49.2524 123.5,51.5C 122.201,50.91 121.368,49.91 121,48.5C 118.528,51.8413 116.528,51.8413 115,48.5C 113.93,50.1142 112.43,51.4475 110.5,52.5C 110.089,51.7376 109.923,50.7376 110,49.5C 108.283,50.9882 107.116,52.8215 106.5,55C 107.167,55.3333 107.833,55.6667 108.5,56C 105.249,57.0977 102.583,59.0977 100.5,62C 103.001,63.4177 102.668,64.4177 99.5,65C 100.634,66.016 100.301,66.6827 98.5,67C 98.8333,67.3333 99.1667,67.6667 99.5,68C 98.4015,70.6056 97.0681,73.1056 95.5,75.5C 94.9984,76.521 94.3317,76.6877 93.5,76C 94.5103,70.8983 93.5103,70.7316 90.5,75.5C 91.0253,76.1924 91.6919,76.6924 92.5,77C 90.4534,78.0726 88.4534,79.2393 86.5,80.5C 86.1667,80.1667 85.8333,79.8333 85.5,79.5C 87.9307,78.6399 89.264,76.9732 89.5,74.5C 87.0896,70.3015 84.5896,69.9682 82,73.5C 80.6043,71.4732 78.9376,71.1398 77,72.5C 68.4076,69.728 59.9076,66.728 51.5,63.5C 57.91,55.7538 65.2434,49.0871 73.5,43.5C 73.4346,43.9382 73.6012,44.2716 74,44.5C 77.6667,43.5 81.3333,42.5 85,41.5C 92.6969,41.7606 100.03,42.0939 107,42.5C 111.333,41.8333 115.667,41.1667 120,40.5C 121.667,40.8333 123.333,41.1667 125,41.5C 127.152,39.6763 129.652,39.343 132.5,40.5C 132.33,39.1779 132.663,38.0113 133.5,37C 129.347,37.2407 127.014,35.7407 126.5,32.5C 126.746,29.1948 128.413,26.8614 131.5,25.5C 135.528,26.5311 137.361,29.1978 137,33.5C 138.309,31.1088 139.309,31.1088 140,33.5C 142.734,28.7023 146.567,27.2023 151.5,29C 155.881,36.8413 162.214,42.3413 170.5,45.5C 172.325,44.4291 173.492,45.0958 174,47.5C 174.333,46.8333 174.667,46.1667 175,45.5C 176.734,46.2489 178.567,46.7489 180.5,47C 175.686,47.7437 170.686,48.7437 165.5,50C 158.414,56.8239 159.081,62.8239 167.5,68C 174.079,68.6065 180.579,69.4399 187,70.5C 187.333,70.1667 187.667,69.8333 188,69.5C 190.725,70.8724 193.391,71.8724 196,72.5C 197.84,71.1669 198.34,71.3335 197.5,73C 198.167,73.3333 198.833,73.6667 199.5,74C 196.976,79.0217 193.31,82.855 188.5,85.5 Z"/></g>
<g><path style="opacity:1" fill="#0f5cce" d="M 233.5,53.5 C 234.5,53.8333 235.167,54.5 235.5,55.5C 233.83,55.7512 232.33,56.4178 231,57.5C 230.667,57.1667 230.333,56.8333 230,56.5C 229,58.1667 227.667,59.5 226,60.5C 225.667,60.1667 225.333,59.8333 225,59.5C 222.275,60.8724 219.609,61.8724 217,62.5C 216.667,62.1667 216.333,61.8333 216,61.5C 210.78,63.7976 205.28,65.131 199.5,65.5C 196.654,64.4889 193.987,63.1556 191.5,61.5C 190.808,62.0253 190.308,62.6919 190,63.5C 188.215,62.7599 186.382,62.0933 184.5,61.5C 184.511,62.4415 184.011,63.1081 183,63.5C 180.24,62.1819 177.573,61.1819 175,60.5C 173.238,60.9444 173.405,61.4444 175.5,62C 175,62.1667 174.5,62.3333 174,62.5C 171.965,61.1509 169.798,60.3176 167.5,60C 168.711,59.1072 168.711,58.2739 167.5,57.5C 166.5,58.8333 165.5,60.1667 164.5,61.5C 162.823,57.7131 163.823,54.8798 167.5,53C 176.447,51.7527 185.447,50.2527 194.5,48.5C 196.792,48.7564 198.959,48.4231 201,47.5C 202,48.1667 203,48.8333 204,49.5C 207.048,47.488 210.048,47.8213 213,50.5C 213.333,49.8333 213.667,49.1667 214,48.5C 217.371,50.6999 220.871,52.6999 224.5,54.5C 225.086,54.2907 225.586,53.9574 226,53.5C 226.667,56.1667 227.333,56.1667 228,53.5C 229.626,53.8541 231.459,53.8541 233.5,53.5 Z"/></g>
<g><path style="opacity:1" fill="#3471ce" d="M 151.5,36.5 C 150.833,35.8333 150.167,35.1667 149.5,34.5C 149.44,33.9569 149.107,33.6236 148.5,33.5C 147.265,34.3398 146.265,35.3398 145.5,36.5C 139.515,42.3957 136.681,49.3957 137,57.5C 136.654,59.8477 135.487,61.6811 133.5,63C 126.025,66.3827 118.358,69.3827 110.5,72C 107.265,73.3604 104.765,75.527 103,78.5C 102.043,76.2908 100.876,76.4575 99.5,79C 95.4601,80.1275 91.6267,81.6275 88,83.5C 86.6321,85.027 86.1321,86.527 86.5,88C 87.1258,88.7504 87.6258,89.5838 88,90.5C 88.0417,94.9804 88.2084,99.3137 88.5,103.5C 88.1075,105.284 87.4408,106.95 86.5,108.5C 85.6873,110.261 84.6873,111.928 83.5,113.5C 83.6602,111.801 83.4935,110.134 83,108.5C 79.8016,105.476 78.8016,101.809 80,97.5C 82.394,93.5311 83.2274,89.3645 82.5,85C 85.4322,83.5236 85.7655,81.8569 83.5,80C 84.1667,78 85.5,76.6667 87.5,76C 87.1667,75.6667 86.8333,75.3333 86.5,75C 87.448,74.5172 88.448,74.3505 89.5,74.5C 89.264,76.9732 87.9307,78.6399 85.5,79.5C 85.8333,79.8333 86.1667,80.1667 86.5,80.5C 88.4534,79.2393 90.4534,78.0726 92.5,77C 91.6919,76.6924 91.0253,76.1924 90.5,75.5C 93.5103,70.7316 94.5103,70.8983 93.5,76C 94.3317,76.6877 94.9984,76.521 95.5,75.5C 97.0681,73.1056 98.4015,70.6056 99.5,68C 99.1667,67.6667 98.8333,67.3333 98.5,67C 100.301,66.6827 100.634,66.016 99.5,65C 102.668,64.4177 103.001,63.4177 100.5,62C 102.583,59.0977 105.249,57.0977 108.5,56C 107.833,55.6667 107.167,55.3333 106.5,55C 107.116,52.8215 108.283,50.9882 110,49.5C 109.923,50.7376 110.089,51.7376 110.5,52.5C 112.43,51.4475 113.93,50.1142 115,48.5C 116.528,51.8413 118.528,51.8413 121,48.5C 121.368,49.91 122.201,50.91 123.5,51.5C 124.324,49.2524 125.324,49.0858 126.5,51C 125.366,52.016 125.699,52.6827 127.5,53C 126.743,54.5122 125.743,55.8455 124.5,57C 126.167,57.6667 127.833,57.6667 129.5,57C 129.167,56.6667 128.833,56.3333 128.5,56C 129.406,53.5529 130.239,51.0529 131,48.5C 132,47.1667 133,47.1667 134,48.5C 135.517,42.3178 138.683,37.1511 143.5,33C 148.055,30.3178 150.722,31.4845 151.5,36.5 Z"/></g>
<g><path style="opacity:1" fill="#89c6f9" d="M 149.5,34.5 C 150.167,35.1667 150.833,35.8333 151.5,36.5C 152.953,47.4841 154.286,58.4841 155.5,69.5C 153.856,69.7135 152.356,69.3802 151,68.5C 149.063,58.7591 148.563,49.0924 149.5,39.5C 149.5,37.8333 149.5,36.1667 149.5,34.5 Z"/></g>
<g><path style="opacity:1" fill="#3873cf" d="M 151.5,36.5 C 152.794,37.2899 153.961,38.2899 155,39.5C 155.333,39.1667 155.667,38.8333 156,38.5C 157,39.8333 158,41.1667 159,42.5C 159.029,45.3665 159.862,47.8665 161.5,50C 160.552,50.4828 159.552,50.6495 158.5,50.5C 158.414,52.677 157.747,54.677 156.5,56.5C 158.2,63.3558 162.2,68.1892 168.5,71C 175.171,71.213 181.504,72.5463 187.5,75C 188.167,75.6667 188.833,76.3333 189.5,77C 188.985,80.0107 187.318,81.844 184.5,82.5C 176.778,77.4728 168.444,73.8061 159.5,71.5C 158.167,70.8333 156.833,70.1667 155.5,69.5C 154.286,58.4841 152.953,47.4841 151.5,36.5 Z"/></g>
<g><path style="opacity:1" fill="#1b66cf" d="M 166.5,21.5 C 163.008,22.3578 159.342,22.5245 155.5,22C 157.116,22.6152 158.449,23.6152 159.5,25C 156.506,30.5517 158.006,34.7184 164,37.5C 166.594,37.2394 169.26,37.2394 172,37.5C 174.461,36.7819 176.961,36.1153 179.5,35.5C 181.061,36.3473 182.561,36.0139 184,34.5C 185.799,34.7205 187.632,35.0539 189.5,35.5C 190.192,34.9747 190.692,34.3081 191,33.5C 192.734,34.2489 194.567,34.7489 196.5,35C 200.146,35.9692 202.146,37.9692 202.5,41C 198.887,44.4717 194.553,46.3051 189.5,46.5C 190.85,47.9501 192.516,48.6168 194.5,48.5C 185.447,50.2527 176.447,51.7527 167.5,53C 163.823,54.8798 162.823,57.7131 164.5,61.5C 165.5,60.1667 166.5,58.8333 167.5,57.5C 168.711,58.2739 168.711,59.1072 167.5,60C 169.798,60.3176 171.965,61.1509 174,62.5C 174.5,62.3333 175,62.1667 175.5,62C 173.405,61.4444 173.238,60.9444 175,60.5C 177.573,61.1819 180.24,62.1819 183,63.5C 184.011,63.1081 184.511,62.4415 184.5,61.5C 186.382,62.0933 188.215,62.7599 190,63.5C 190.308,62.6919 190.808,62.0253 191.5,61.5C 193.987,63.1556 196.654,64.4889 199.5,65.5C 205.28,65.131 210.78,63.7976 216,61.5C 216.333,61.8333 216.667,62.1667 217,62.5C 219.609,61.8724 222.275,60.8724 225,59.5C 225.333,59.8333 225.667,60.1667 226,60.5C 227.667,59.5 229,58.1667 230,56.5C 230.333,56.8333 230.667,57.1667 231,57.5C 232.33,56.4178 233.83,55.7512 235.5,55.5C 240.873,59.8714 245.539,64.8714 249.5,70.5C 241.069,72.2694 232.736,73.936 224.5,75.5C 222.123,75.7845 219.956,75.7845 218,75.5C 214.773,75.9534 211.773,76.9534 209,78.5C 207.127,77.9109 205.46,78.5776 204,80.5C 203.667,80.1667 203.333,79.8333 203,79.5C 199.58,81.2512 197.246,83.9179 196,87.5C 194.687,86.7129 193.52,87.0462 192.5,88.5C 191.167,87.5 189.833,86.5 188.5,85.5C 193.31,82.855 196.976,79.0217 199.5,74C 198.833,73.6667 198.167,73.3333 197.5,73C 198.34,71.3335 197.84,71.1669 196,72.5C 193.391,71.8724 190.725,70.8724 188,69.5C 187.667,69.8333 187.333,70.1667 187,70.5C 180.579,69.4399 174.079,68.6065 167.5,68C 159.081,62.8239 158.414,56.8239 165.5,50C 170.686,48.7437 175.686,47.7437 180.5,47C 178.567,46.7489 176.734,46.2489 175,45.5C 174.667,46.1667 174.333,46.8333 174,47.5C 173.492,45.0958 172.325,44.4291 170.5,45.5C 162.214,42.3413 155.881,36.8413 151.5,29C 146.567,27.2023 142.734,28.7023 140,33.5C 139.309,31.1088 138.309,31.1088 137,33.5C 137.361,29.1978 135.528,26.5311 131.5,25.5C 128.413,26.8614 126.746,29.1948 126.5,32.5C 124.19,30.8552 124.023,28.8552 126,26.5C 127.688,24.2106 129.521,22.8772 131.5,22.5C 129.89,22.5931 128.224,22.2598 126.5,21.5C 132.762,19.9805 139.262,19.3138 146,19.5C 153.064,19.339 159.897,20.0057 166.5,21.5 Z"/></g>
<g><path style="opacity:1" fill="#c8dff7" d="M 149.5,34.5 C 149.5,36.1667 149.5,37.8333 149.5,39.5C 148.768,40.8083 147.934,42.1416 147,43.5C 146.708,52.2352 146.542,60.9019 146.5,69.5C 133.846,75.2366 121.012,80.9033 108,86.5C 107.235,86.4301 106.735,86.0967 106.5,85.5C 117.26,77.4546 129.26,72.1213 142.5,69.5C 142.837,59.3994 143.837,49.3994 145.5,39.5C 145.5,38.5 145.5,37.5 145.5,36.5C 146.265,35.3398 147.265,34.3398 148.5,33.5C 149.107,33.6236 149.44,33.9569 149.5,34.5 Z"/></g>
<g><path style="opacity:1" fill="#1358c9" d="M 48.5,66.5 C 54.7279,69.0215 61.0612,71.3549 67.5,73.5C 68.1667,74.8333 68.8333,76.1667 69.5,77.5C 78.9994,80.1308 80.666,85.1308 74.5,92.5C 65.7041,97.1268 55.8708,99.7935 45,100.5C 39.1722,101.766 33.3389,103.099 27.5,104.5C 31.9076,90.3472 38.9076,77.6805 48.5,66.5 Z"/></g>
<g><path style="opacity:1" fill="#225fc8" d="M 51.5,63.5 C 59.9076,66.728 68.4076,69.728 77,72.5C 78.9376,71.1398 80.6043,71.4732 82,73.5C 84.5896,69.9682 87.0896,70.3015 89.5,74.5C 88.448,74.3505 87.448,74.5172 86.5,75C 86.8333,75.3333 87.1667,75.6667 87.5,76C 85.5,76.6667 84.1667,78 83.5,80C 85.7655,81.8569 85.4322,83.5236 82.5,85C 83.2274,89.3645 82.394,93.5311 80,97.5C 78.8016,101.809 79.8016,105.476 83,108.5C 83.4935,110.134 83.6602,111.801 83.5,113.5C 82.4222,116.402 81.7556,119.402 81.5,122.5C 80.5489,123.919 80.2155,125.585 80.5,127.5C 80.5,130.5 80.5,133.5 80.5,136.5C 79.6862,134.369 79.1862,132.036 79,129.5C 78.5,128.333 77.6667,127.5 76.5,127C 76.8333,126.667 77.1667,126.333 77.5,126C 76.3427,120.559 75.3427,115.059 74.5,109.5C 72.5328,109.739 70.6995,109.406 69,108.5C 60.975,111.635 52.8083,113.468 44.5,114C 48.4352,112.365 52.1018,111.031 55.5,110C 54.6667,109.833 53.8333,109.667 53,109.5C 43.1234,112.444 33.29,114.444 23.5,115.5C 24.3873,111.581 25.7207,107.915 27.5,104.5C 33.3389,103.099 39.1722,101.766 45,100.5C 55.8708,99.7935 65.7041,97.1268 74.5,92.5C 80.666,85.1308 78.9994,80.1308 69.5,77.5C 68.8333,76.1667 68.1667,74.8333 67.5,73.5C 61.0612,71.3549 54.7279,69.0215 48.5,66.5C 49.1667,65.1667 50.1667,64.1667 51.5,63.5 Z"/></g>
<g><path style="opacity:1" fill="#5887d4" d="M 145.5,36.5 C 145.5,37.5 145.5,38.5 145.5,39.5C 141.453,42.7853 139.619,47.1187 140,52.5C 140.333,51.8333 140.667,51.1667 141,50.5C 142.29,56.1566 140.456,60.9899 135.5,65C 123.784,69.0225 113.117,74.8559 103.5,82.5C 101.028,85.1148 99.3618,88.1148 98.5,91.5C 95.5136,95.817 92.1803,99.817 88.5,103.5C 88.2084,99.3137 88.0417,94.9804 88,90.5C 87.6258,89.5838 87.1258,88.7504 86.5,88C 86.1321,86.527 86.6321,85.027 88,83.5C 91.6267,81.6275 95.4601,80.1275 99.5,79C 100.876,76.4575 102.043,76.2908 103,78.5C 104.765,75.527 107.265,73.3604 110.5,72C 118.358,69.3827 126.025,66.3827 133.5,63C 135.487,61.6811 136.654,59.8477 137,57.5C 136.681,49.3957 139.515,42.3957 145.5,36.5 Z"/></g>
<g><path style="opacity:1" fill="#6e97da" d="M 145.5,39.5 C 143.837,49.3994 142.837,59.3994 142.5,69.5C 129.26,72.1213 117.26,77.4546 106.5,85.5C 104.116,87.8847 101.45,89.8847 98.5,91.5C 99.3618,88.1148 101.028,85.1148 103.5,82.5C 113.117,74.8559 123.784,69.0225 135.5,65C 140.456,60.9899 142.29,56.1566 141,50.5C 140.667,51.1667 140.333,51.8333 140,52.5C 139.619,47.1187 141.453,42.7853 145.5,39.5 Z"/></g>
<g><path style="opacity:1" fill="#71b3ee" d="M 159.5,71.5 C 168.444,73.8061 176.778,77.4728 184.5,82.5C 184.5,83.1667 184.833,83.5 185.5,83.5C 182.71,85.7782 180.71,85.4449 179.5,82.5C 176.466,79.7014 174.8,80.0348 174.5,83.5C 172.517,82.018 170.684,80.3513 169,78.5C 168.5,79 168,79.5 167.5,80C 171.833,83.6667 176.167,87.3333 180.5,91C 180.043,91.414 179.709,91.914 179.5,92.5C 181.104,94.1789 181.771,96.1789 181.5,98.5C 181.167,99.5 180.5,100.167 179.5,100.5C 176.399,96.1361 172.732,92.3027 168.5,89C 169.167,88.6667 169.833,88.3333 170.5,88C 162.593,85.2385 155.593,81.0719 149.5,75.5C 150.429,74.6851 151.429,73.8518 152.5,73C 155.036,72.8138 157.369,72.3138 159.5,71.5 Z"/></g>
<g><path style="opacity:1" fill="#1658c9" d="M 249.5,70.5 C 258.231,81.9575 264.898,94.6242 269.5,108.5C 266.102,108.82 262.768,108.487 259.5,107.5C 255.903,105.574 252.903,102.907 250.5,99.5C 248.836,100.223 247.169,99.8897 245.5,98.5C 241.593,100.09 237.427,101.756 233,103.5C 231.333,103.5 229.667,103.5 228,103.5C 226.177,102.688 224.344,101.688 222.5,100.5C 219.744,98.094 216.744,95.7607 213.5,93.5C 212.406,94.868 212.74,96.0347 214.5,97C 213.234,97.3095 212.067,97.8095 211,98.5C 208.623,96.4214 207.457,94.0881 207.5,91.5C 206.855,90.354 206.022,89.354 205,88.5C 204.966,86.8204 204.799,85.3204 204.5,84C 207.617,82.0267 210.784,80.1933 214,78.5C 214.561,79.0219 215.228,79.3552 216,79.5C 219.517,78.8734 223.017,78.2068 226.5,77.5C 227.182,78.2427 227.849,78.9094 228.5,79.5C 228.649,78.448 228.483,77.448 228,76.5C 226.665,75.9205 225.498,75.5872 224.5,75.5C 232.736,73.936 241.069,72.2694 249.5,70.5 Z"/></g>
<g><path style="opacity:1" fill="#2661ca" d="M 228.5,79.5 C 230.857,79.3367 233.19,79.5034 235.5,80C 232.768,80.413 230.101,81.0797 227.5,82C 233.438,80.7502 237.772,82.9169 240.5,88.5C 241.086,88.2907 241.586,87.9574 242,87.5C 242.387,98.0907 237.22,102.257 226.5,100C 220.253,96.4 218.753,91.2334 222,84.5C 224.352,82.9697 226.519,81.3031 228.5,79.5 Z"/></g>
<g><path style="opacity:1" fill="#90bff3" d="M 115.5,100.5 C 114.833,100.5 114.5,100.167 114.5,99.5C 114.182,97.1816 112.848,95.8483 110.5,95.5C 108.159,95.6618 106.325,96.6618 105,98.5C 104.692,97.6919 104.192,97.0253 103.5,96.5C 100.404,97.6017 97.404,99.6017 94.5,102.5C 92.1667,105.833 89.8333,109.167 87.5,112.5C 85.3696,116.622 83.8696,120.955 83,125.5C 82.6667,125.833 82.3333,126.167 82,126.5C 81.51,125.207 81.3433,123.873 81.5,122.5C 81.7556,119.402 82.4222,116.402 83.5,113.5C 84.6873,111.928 85.6873,110.261 86.5,108.5C 86.7748,110.842 87.6081,110.842 89,108.5C 94.363,97.6324 102.863,90.6324 114.5,87.5C 114.343,88.8734 114.51,90.2068 115,91.5C 116.489,89.6682 118.322,88.8348 120.5,89C 118.669,92.8224 117.002,96.6557 115.5,100.5 Z"/></g>
<g><path style="opacity:1" fill="#3f74d0" d="M 229.5,84.5 C 231.806,84.9926 234.139,85.3259 236.5,85.5C 238.681,93.8168 235.681,96.9835 227.5,95C 223.663,90.79 224.33,87.29 229.5,84.5 Z"/></g>
<g><path style="opacity:1" fill="#2459c3" d="M 224.5,75.5 C 225.498,75.5872 226.665,75.9205 228,76.5C 228.483,77.448 228.649,78.448 228.5,79.5C 227.849,78.9094 227.182,78.2427 226.5,77.5C 223.017,78.2068 219.517,78.8734 216,79.5C 215.228,79.3552 214.561,79.0219 214,78.5C 210.784,80.1933 207.617,82.0267 204.5,84C 204.799,85.3204 204.966,86.8204 205,88.5C 206.022,89.354 206.855,90.354 207.5,91.5C 207.457,94.0881 208.623,96.4214 211,98.5C 212.067,97.8095 213.234,97.3095 214.5,97C 212.74,96.0347 212.406,94.868 213.5,93.5C 216.744,95.7607 219.744,98.094 222.5,100.5C 222.565,100.938 222.399,101.272 222,101.5C 221.29,100.027 220.124,99.3601 218.5,99.5C 219.615,104.172 219.615,108.839 218.5,113.5C 217.902,114.795 217.402,116.128 217,117.5C 216.667,116.5 216.333,115.5 216,114.5C 214.878,116.42 214.044,118.42 213.5,120.5C 210.318,109.147 204.318,99.4799 195.5,91.5C 194.694,90.2719 193.694,89.2719 192.5,88.5C 193.52,87.0462 194.687,86.7129 196,87.5C 197.246,83.9179 199.58,81.2512 203,79.5C 203.333,79.8333 203.667,80.1667 204,80.5C 205.46,78.5776 207.127,77.9109 209,78.5C 211.773,76.9534 214.773,75.9534 218,75.5C 219.956,75.7845 222.123,75.7845 224.5,75.5 Z"/></g>
<g><path style="opacity:1" fill="#656d8b" d="M 114.5,99.5 C 114.5,100.167 114.833,100.5 115.5,100.5C 115.806,103.385 115.473,106.052 114.5,108.5C 114.768,106.901 114.434,105.568 113.5,104.5C 113.299,100.65 111.466,99.65 108,101.5C 107.517,102.448 107.351,103.448 107.5,104.5C 106.076,106.515 105.41,108.848 105.5,111.5C 103.474,105.423 105.307,100.756 111,97.5C 112.303,97.9783 113.469,98.645 114.5,99.5 Z"/></g>
<g><path style="opacity:1" fill="#7fd5f8" d="M 148.5,81.5 C 154.481,83.8226 159.815,87.1559 164.5,91.5C 165.747,93.0064 165.747,94.5064 164.5,96C 159.845,97.4651 156.178,99.4651 153.5,102C 145.125,102.738 136.792,102.405 128.5,101C 131.167,100.667 133.833,100.333 136.5,100C 132.792,99.1622 129.125,98.3288 125.5,97.5C 123.438,96.4954 122.604,94.8287 123,92.5C 125.381,91.565 127.881,91.2317 130.5,91.5C 130.33,90.1779 130.663,89.0113 131.5,88C 134.503,86.6607 137.503,85.3274 140.5,84C 142.441,83.2571 144.274,83.4238 146,84.5C 147.417,83.9221 148.25,82.9221 148.5,81.5 Z"/></g>
<g><path style="opacity:1" fill="#569be6" d="M 185.5,83.5 C 186.5,84.1667 187.5,84.8333 188.5,85.5C 189.833,86.5 191.167,87.5 192.5,88.5C 193.694,89.2719 194.694,90.2719 195.5,91.5C 193.924,92.2832 192.591,93.4499 191.5,95C 197.695,106.825 201.695,119.325 203.5,132.5C 203.5,133.5 203.5,134.5 203.5,135.5C 200.552,131.357 197.718,127.024 195,122.5C 194.273,117.497 192.773,112.831 190.5,108.5C 190.652,104.117 188.985,100.617 185.5,98C 184.072,97.4209 182.738,97.5876 181.5,98.5C 181.771,96.1789 181.104,94.1789 179.5,92.5C 179.709,91.914 180.043,91.414 180.5,91C 176.167,87.3333 171.833,83.6667 167.5,80C 168,79.5 168.5,79 169,78.5C 170.684,80.3513 172.517,82.018 174.5,83.5C 174.8,80.0348 176.466,79.7014 179.5,82.5C 180.71,85.4449 182.71,85.7782 185.5,83.5 Z"/></g>
<g><path style="opacity:1" fill="#73c8f5" d="M 149.5,75.5 C 155.593,81.0719 162.593,85.2385 170.5,88C 169.833,88.3333 169.167,88.6667 168.5,89C 172.732,92.3027 176.399,96.1361 179.5,100.5C 179.5,100.833 179.5,101.167 179.5,101.5C 178.504,101.414 177.671,101.748 177,102.5C 176.506,104.134 176.34,105.801 176.5,107.5C 175.732,108.263 175.232,109.263 175,110.5C 174.601,110.272 174.435,109.938 174.5,109.5C 173.587,107.914 173.587,106.414 174.5,105C 173.667,103.5 172.5,102.333 171,101.5C 168,102.167 165,102.833 162,103.5C 160.657,102.786 159.324,103.12 158,104.5C 157.586,104.043 157.086,103.709 156.5,103.5C 152.555,104.268 148.555,104.768 144.5,105C 148.833,105.333 153.167,105.667 157.5,106C 149.631,107.6 141.964,107.6 134.5,106C 137.167,105.667 139.833,105.333 142.5,105C 136.485,104.465 130.485,103.799 124.5,103C 127.063,102.237 127.063,101.737 124.5,101.5C 123.151,101.846 121.817,102.179 120.5,102.5C 120.351,101.448 120.517,100.448 121,99.5C 122.622,98.9011 124.122,98.2344 125.5,97.5C 129.125,98.3288 132.792,99.1622 136.5,100C 133.833,100.333 131.167,100.667 128.5,101C 136.792,102.405 145.125,102.738 153.5,102C 156.178,99.4651 159.845,97.4651 164.5,96C 165.747,94.5064 165.747,93.0064 164.5,91.5C 159.815,87.1559 154.481,83.8226 148.5,81.5C 148.918,80.7784 149.584,80.2784 150.5,80C 146.995,79.0357 146.662,77.5357 149.5,75.5 Z"/></g>
<g><path style="opacity:1" fill="#1751c2" d="M 269.5,108.5 C 272.273,117.265 273.939,126.265 274.5,135.5C 274.5,138.167 274.5,140.833 274.5,143.5C 267.824,144.196 260.99,145.529 254,147.5C 253.167,147.333 252.333,147.167 251.5,147C 253.063,146.241 254.063,145.074 254.5,143.5C 261.796,142.09 268.129,139.923 273.5,137C 270.567,136.554 267.567,135.887 264.5,135C 265.28,133.927 265.113,132.76 264,131.5C 262.251,132.299 260.918,131.632 260,129.5C 259.667,129.833 259.333,130.167 259,130.5C 258.691,129.234 258.191,128.067 257.5,127C 255.5,126.667 253.5,126.333 251.5,126C 252.517,124.951 252.684,123.784 252,122.5C 251.333,125.167 250.667,125.167 250,122.5C 249.667,122.833 249.333,123.167 249,123.5C 244.001,118.761 239.001,114.761 234,111.5C 232.715,111.95 231.548,112.617 230.5,113.5C 229.914,113.291 229.414,112.957 229,112.5C 228.682,114.061 227.849,115.228 226.5,116C 226.833,116.333 227.167,116.667 227.5,117C 225.096,117.508 224.429,118.675 225.5,120.5C 223.974,124.854 221.474,128.521 218,131.5C 217.692,130.692 217.192,130.025 216.5,129.5C 215.833,133.647 215.166,137.647 214.5,141.5C 214.76,134.443 214.427,127.443 213.5,120.5C 214.044,118.42 214.878,116.42 216,114.5C 216.333,115.5 216.667,116.5 217,117.5C 217.402,116.128 217.902,114.795 218.5,113.5C 219.615,108.839 219.615,104.172 218.5,99.5C 220.124,99.3601 221.29,100.027 222,101.5C 222.399,101.272 222.565,100.938 222.5,100.5C 224.344,101.688 226.177,102.688 228,103.5C 229.667,103.5 231.333,103.5 233,103.5C 237.427,101.756 241.593,100.09 245.5,98.5C 247.169,99.8897 248.836,100.223 250.5,99.5C 252.903,102.907 255.903,105.574 259.5,107.5C 262.768,108.487 266.102,108.82 269.5,108.5 Z"/></g>
<g><path style="opacity:1" fill="#4c567c" d="M 190.5,108.5 C 190.204,110.403 189.537,112.07 188.5,113.5C 188.806,110.615 188.473,107.948 187.5,105.5C 187.985,100.841 186.152,99.5081 182,101.5C 181.517,102.448 181.351,103.448 181.5,104.5C 180.566,105.568 180.232,106.901 180.5,108.5C 179.532,106.393 179.198,104.059 179.5,101.5C 179.5,101.167 179.5,100.833 179.5,100.5C 180.5,100.167 181.167,99.5 181.5,98.5C 182.738,97.5876 184.072,97.4209 185.5,98C 188.985,100.617 190.652,104.117 190.5,108.5 Z"/></g>
<g><path style="opacity:1" fill="#d0d6e8" d="M 187.5,105.5 C 185.099,107.062 183.099,106.729 181.5,104.5C 181.351,103.448 181.517,102.448 182,101.5C 186.152,99.5081 187.985,100.841 187.5,105.5 Z"/></g>
<g><path style="opacity:1" fill="#60b4ec" d="M 174.5,109.5 C 171.837,109.899 169.337,109.899 167,109.5C 153.833,124.321 140.999,124.154 128.5,109C 125.366,108.885 122.366,108.718 119.5,108.5C 119.517,106.435 119.85,104.435 120.5,102.5C 121.817,102.179 123.151,101.846 124.5,101.5C 127.063,101.737 127.063,102.237 124.5,103C 130.485,103.799 136.485,104.465 142.5,105C 139.833,105.333 137.167,105.667 134.5,106C 141.964,107.6 149.631,107.6 157.5,106C 153.167,105.667 148.833,105.333 144.5,105C 148.555,104.768 152.555,104.268 156.5,103.5C 157.086,103.709 157.586,104.043 158,104.5C 159.324,103.12 160.657,102.786 162,103.5C 165,102.833 168,102.167 171,101.5C 172.5,102.333 173.667,103.5 174.5,105C 173.587,106.414 173.587,107.914 174.5,109.5 Z"/></g>
<g><path style="opacity:1" fill="#31378b" d="M 181.5,104.5 C 183.099,106.729 185.099,107.062 187.5,105.5C 188.473,107.948 188.806,110.615 188.5,113.5C 188.167,114.167 187.833,114.833 187.5,115.5C 182.878,115.545 180.545,113.212 180.5,108.5C 180.232,106.901 180.566,105.568 181.5,104.5 Z"/></g>
<g><path style="opacity:1" fill="#343988" d="M 107.5,104.5 C 109.5,107.167 111.5,107.167 113.5,104.5C 114.434,105.568 114.768,106.901 114.5,108.5C 114.455,113.212 112.122,115.545 107.5,115.5C 106.4,114.395 105.733,113.062 105.5,111.5C 105.41,108.848 106.076,106.515 107.5,104.5 Z"/></g>
<g><path style="opacity:1" fill="#194bc1" d="M 19.5,147.5 C 19.5,145.167 19.5,142.833 19.5,140.5C 19.8312,135.852 22.1645,134.519 26.5,136.5C 27.5,136 28.5,135.5 29.5,135C 29.1667,134.667 28.8333,134.333 28.5,134C 31.4491,133.61 33.6158,132.11 35,129.5C 35.3333,129.833 35.6667,130.167 36,130.5C 36.7264,127.712 38.5598,126.212 41.5,126C 40.6598,124.334 41.1598,124.167 43,125.5C 44.0847,123.627 45.418,121.96 47,120.5C 48.8402,121.833 49.3402,121.666 48.5,120C 50.9559,118.381 53.4559,117.881 56,118.5C 56.4419,116.321 57.4419,115.655 59,116.5C 60.3086,114.109 61.3086,114.109 62,116.5C 63.6613,113.61 66.1613,112.443 69.5,113C 71.4181,114.77 71.9181,116.937 71,119.5C 69.513,118.747 69.3463,117.914 70.5,117C 69.2341,116.691 68.0674,116.191 67,115.5C 66.6397,117.421 65.8064,119.088 64.5,120.5C 62.6711,119.712 61.0044,120.212 59.5,122C 60.2797,123.073 60.113,124.24 59,125.5C 54.848,123.508 53.0146,124.841 53.5,129.5C 51.1432,129.337 48.8098,129.503 46.5,130C 47.3106,132.291 46.4772,134.125 44,135.5C 43.6667,134.833 43.3333,134.167 43,133.5C 41.117,134.653 40.2837,136.319 40.5,138.5C 38.8333,138.5 37.1667,138.5 35.5,138.5C 35.1699,141.109 33.6699,142.776 31,143.5C 30.6667,143.167 30.3333,142.833 30,142.5C 29.3162,143.784 29.4829,144.951 30.5,146C 27.9076,148.457 25.4076,148.624 23,146.5C 21.9887,147.337 20.8221,147.67 19.5,147.5 Z"/></g>
<g><path style="opacity:1" fill="#71b2f6" d="M 114.5,99.5 C 113.469,98.645 112.303,97.9783 111,97.5C 105.307,100.756 103.474,105.423 105.5,111.5C 105.733,113.062 106.4,114.395 107.5,115.5C 107.66,117.199 107.494,118.866 107,120.5C 102.833,123.333 98.6667,126.167 94.5,129C 92.8588,130.129 91.8588,131.629 91.5,133.5C 88.9956,133.828 87.1622,135.162 86,137.5C 85,136.5 84,135.5 83,134.5C 82.8442,131.809 82.0109,129.476 80.5,127.5C 80.2155,125.585 80.5489,123.919 81.5,122.5C 81.3433,123.873 81.51,125.207 82,126.5C 82.3333,126.167 82.6667,125.833 83,125.5C 83.8696,120.955 85.3696,116.622 87.5,112.5C 89.8333,109.167 92.1667,105.833 94.5,102.5C 97.404,99.6017 100.404,97.6017 103.5,96.5C 104.192,97.0253 104.692,97.6919 105,98.5C 106.325,96.6618 108.159,95.6618 110.5,95.5C 112.848,95.8483 114.182,97.1816 114.5,99.5 Z"/></g>
<g><path style="opacity:1" fill="#1c4dbc" d="M 80.5,136.5 C 80.5,138.5 80.5,140.5 80.5,142.5C 80.5,142.833 80.5,143.167 80.5,143.5C 78.6693,142.948 77.0026,142.948 75.5,143.5C 74.147,142.315 72.9803,140.981 72,139.5C 70.2835,140.552 69.2835,139.886 69,137.5C 67.1967,141.512 66.1967,141.178 66,136.5C 63.9302,139.445 62.5968,142.445 62,145.5C 61.7104,143.956 61.0437,142.623 60,141.5C 58.9513,144.091 58.4513,146.924 58.5,150C 63.0056,162.734 58.1722,169.9 44,171.5C 41.2764,170.312 38.9431,168.645 37,166.5C 35.0573,166.959 33.724,165.959 33,163.5C 30.1751,164.584 30.0085,165.751 32.5,167C 30.444,167.311 28.444,167.811 26.5,168.5C 24.7348,167.974 23.0681,167.641 21.5,167.5C 20.3044,161.03 19.6377,154.363 19.5,147.5C 20.8221,147.67 21.9887,147.337 23,146.5C 25.4076,148.624 27.9076,148.457 30.5,146C 29.4829,144.951 29.3162,143.784 30,142.5C 30.3333,142.833 30.6667,143.167 31,143.5C 33.6699,142.776 35.1699,141.109 35.5,138.5C 37.1667,138.5 38.8333,138.5 40.5,138.5C 40.2837,136.319 41.117,134.653 43,133.5C 43.3333,134.167 43.6667,134.833 44,135.5C 46.4772,134.125 47.3106,132.291 46.5,130C 48.8098,129.503 51.1432,129.337 53.5,129.5C 53.0146,124.841 54.848,123.508 59,125.5C 60.113,124.24 60.2797,123.073 59.5,122C 61.0044,120.212 62.6711,119.712 64.5,120.5C 65.8064,119.088 66.6397,117.421 67,115.5C 68.0674,116.191 69.2341,116.691 70.5,117C 69.3463,117.914 69.513,118.747 71,119.5C 71.9181,116.937 71.4181,114.77 69.5,113C 66.1613,112.443 63.6613,113.61 62,116.5C 61.3086,114.109 60.3086,114.109 59,116.5C 57.4419,115.655 56.4419,116.321 56,118.5C 53.4559,117.881 50.9559,118.381 48.5,120C 49.3402,121.666 48.8402,121.833 47,120.5C 45.418,121.96 44.0847,123.627 43,125.5C 41.1598,124.167 40.6598,124.334 41.5,126C 38.5598,126.212 36.7264,127.712 36,130.5C 35.6667,130.167 35.3333,129.833 35,129.5C 33.6158,132.11 31.4491,133.61 28.5,134C 28.8333,134.333 29.1667,134.667 29.5,135C 28.5,135.5 27.5,136 26.5,136.5C 22.1645,134.519 19.8312,135.852 19.5,140.5C 20.2934,132.073 21.6267,123.74 23.5,115.5C 33.29,114.444 43.1234,112.444 53,109.5C 53.8333,109.667 54.6667,109.833 55.5,110C 52.1018,111.031 48.4352,112.365 44.5,114C 52.8083,113.468 60.975,111.635 69,108.5C 70.6995,109.406 72.5328,109.739 74.5,109.5C 75.3427,115.059 76.3427,120.559 77.5,126C 77.1667,126.333 76.8333,126.667 76.5,127C 77.6667,127.5 78.5,128.333 79,129.5C 79.1862,132.036 79.6862,134.369 80.5,136.5 Z"/></g>
<g><path style="opacity:1" fill="#a5cff6" d="M 149.5,39.5 C 148.563,49.0924 149.063,58.7591 151,68.5C 152.356,69.3802 153.856,69.7135 155.5,69.5C 156.833,70.1667 158.167,70.8333 159.5,71.5C 157.369,72.3138 155.036,72.8138 152.5,73C 151.429,73.8518 150.429,74.6851 149.5,75.5C 146.662,77.5357 146.995,79.0357 150.5,80C 149.584,80.2784 148.918,80.7784 148.5,81.5C 148.25,82.9221 147.417,83.9221 146,84.5C 144.274,83.4238 142.441,83.2571 140.5,84C 137.503,85.3274 134.503,86.6607 131.5,88C 130.663,89.0113 130.33,90.1779 130.5,91.5C 127.881,91.2317 125.381,91.565 123,92.5C 122.604,94.8287 123.438,96.4954 125.5,97.5C 124.122,98.2344 122.622,98.9011 121,99.5C 120.517,100.448 120.351,101.448 120.5,102.5C 119.85,104.435 119.517,106.435 119.5,108.5C 118.361,111.425 117.861,114.425 118,117.5C 119.659,116.183 120.826,114.517 121.5,112.5C 124.191,109.825 126.525,110.158 128.5,113.5C 127.311,114.429 125.978,114.762 124.5,114.5C 124.5,116.5 124.5,118.5 124.5,120.5C 122.591,116.561 120.591,116.561 118.5,120.5C 108.828,123.708 100.328,128.708 93,135.5C 92.1635,137.821 91.8301,140.155 92,142.5C 92.3333,142.167 92.6667,141.833 93,141.5C 94.7953,152.128 100.629,156.794 110.5,155.5C 112.167,156.833 113.833,158.167 115.5,159.5C 115.688,161.103 115.188,162.437 114,163.5C 113,162.167 112,162.167 111,163.5C 110.612,162.572 109.945,161.905 109,161.5C 106.467,161.527 103.967,161.694 101.5,162C 102.453,163.955 103.787,165.622 105.5,167C 106.449,167.617 107.282,167.451 108,166.5C 108.637,168.303 109.803,169.636 111.5,170.5C 111.167,170.833 110.833,171.167 110.5,171.5C 107.891,170.77 105.224,170.27 102.5,170C 100.679,167.756 98.346,166.59 95.5,166.5C 95.1667,166.5 94.8333,166.5 94.5,166.5C 92.0599,163.545 90.2265,160.211 89,156.5C 88.8466,150.937 88.68,145.437 88.5,140C 88.8402,137.489 89.8402,135.322 91.5,133.5C 91.8588,131.629 92.8588,130.129 94.5,129C 98.6667,126.167 102.833,123.333 107,120.5C 107.494,118.866 107.66,117.199 107.5,115.5C 112.122,115.545 114.455,113.212 114.5,108.5C 115.473,106.052 115.806,103.385 115.5,100.5C 117.002,96.6557 118.669,92.8224 120.5,89C 118.322,88.8348 116.489,89.6682 115,91.5C 114.51,90.2068 114.343,88.8734 114.5,87.5C 102.863,90.6324 94.363,97.6324 89,108.5C 87.6081,110.842 86.7748,110.842 86.5,108.5C 87.4408,106.95 88.1075,105.284 88.5,103.5C 92.1803,99.817 95.5136,95.817 98.5,91.5C 101.45,89.8847 104.116,87.8847 106.5,85.5C 106.735,86.0967 107.235,86.4301 108,86.5C 121.012,80.9033 133.846,75.2366 146.5,69.5C 146.542,60.9019 146.708,52.2352 147,43.5C 147.934,42.1416 148.768,40.8083 149.5,39.5 Z"/></g>
<g><path style="opacity:1" fill="#dfe3ee" d="M 113.5,104.5 C 111.5,107.167 109.5,107.167 107.5,104.5C 107.351,103.448 107.517,102.448 108,101.5C 111.466,99.65 113.299,100.65 113.5,104.5 Z"/></g>
<g><path style="opacity:1" fill="#3f7fcd" d="M 195.5,91.5 C 204.318,99.4799 210.318,109.147 213.5,120.5C 214.427,127.443 214.76,134.443 214.5,141.5C 213.383,147.678 213.383,154.011 214.5,160.5C 213.4,158.723 212.566,156.723 212,154.5C 211.25,155.126 210.416,155.626 209.5,156C 209.833,156.333 210.167,156.667 210.5,157C 209.167,158 207.833,159 206.5,160C 206.833,160.333 207.167,160.667 207.5,161C 205.533,164.948 202.866,168.282 199.5,171C 203.071,172.119 206.404,173.785 209.5,176C 217.471,183.313 223.971,191.813 229,201.5C 229.816,202.823 230.983,203.489 232.5,203.5C 233.403,206.391 233.736,209.391 233.5,212.5C 233.539,214.224 233.206,214.557 232.5,213.5C 229.653,207.794 226.32,202.461 222.5,197.5C 219.217,191.217 214.55,186.217 208.5,182.5C 202.633,178.102 195.966,176.435 188.5,177.5C 188.489,175.983 187.823,174.816 186.5,174C 189.408,173.311 192.075,172.145 194.5,170.5C 198.629,166.262 202.129,162.262 205,158.5C 207.822,150.109 207.822,141.776 205,133.5C 204.617,132.944 204.117,132.611 203.5,132.5C 201.695,119.325 197.695,106.825 191.5,95C 192.591,93.4499 193.924,92.2832 195.5,91.5 Z"/></g>
<g><path style="opacity:1" fill="#72b2f0" d="M 190.5,108.5 C 192.773,112.831 194.273,117.497 195,122.5C 197.718,127.024 200.552,131.357 203.5,135.5C 204.726,139.156 203.726,142.156 200.5,144.5C 200.75,141.786 200.917,139.119 201,136.5C 197.142,130.785 192.808,125.451 188,120.5C 187.506,118.866 187.34,117.199 187.5,115.5C 187.833,114.833 188.167,114.167 188.5,113.5C 189.537,112.07 190.204,110.403 190.5,108.5 Z"/></g>
<g><path style="opacity:1" fill="#85bcec" d="M 176.5,107.5 C 176.876,110.627 176.876,113.627 176.5,116.5C 174.035,115.868 172.369,114.368 171.5,112C 169.597,111.226 167.93,111.56 166.5,113C 171.025,113.382 172.691,115.882 171.5,120.5C 170.833,120.5 170.167,120.5 169.5,120.5C 168.707,116.835 167.374,116.835 165.5,120.5C 164.71,119.391 164.21,118.058 164,116.5C 160.162,118.167 156.329,120.001 152.5,122C 148.833,122.667 145.167,122.667 141.5,122C 138.411,119.412 134.911,117.579 131,116.5C 130.79,118.058 130.29,119.391 129.5,120.5C 127.626,116.835 126.293,116.835 125.5,120.5C 125.167,120.5 124.833,120.5 124.5,120.5C 124.5,118.5 124.5,116.5 124.5,114.5C 125.978,114.762 127.311,114.429 128.5,113.5C 126.525,110.158 124.191,109.825 121.5,112.5C 120.826,114.517 119.659,116.183 118,117.5C 117.861,114.425 118.361,111.425 119.5,108.5C 122.366,108.718 125.366,108.885 128.5,109C 140.999,124.154 153.833,124.321 167,109.5C 169.337,109.899 171.837,109.899 174.5,109.5C 174.435,109.938 174.601,110.272 175,110.5C 175.232,109.263 175.732,108.263 176.5,107.5 Z"/></g>
<g><path style="opacity:1" fill="#2f378f" d="M 169.5,120.5 C 169.306,122.912 167.973,123.912 165.5,123.5C 165.5,122.5 165.5,121.5 165.5,120.5C 167.374,116.835 168.707,116.835 169.5,120.5 Z"/></g>
<g><path style="opacity:1" fill="#1a4abc" d="M 254.5,143.5 C 241.602,147.331 228.268,150.664 214.5,153.5C 214.5,149.5 214.5,145.5 214.5,141.5C 215.166,137.647 215.833,133.647 216.5,129.5C 217.192,130.025 217.692,130.692 218,131.5C 221.474,128.521 223.974,124.854 225.5,120.5C 224.429,118.675 225.096,117.508 227.5,117C 227.167,116.667 226.833,116.333 226.5,116C 227.849,115.228 228.682,114.061 229,112.5C 229.414,112.957 229.914,113.291 230.5,113.5C 231.548,112.617 232.715,111.95 234,111.5C 239.001,114.761 244.001,118.761 249,123.5C 249.333,123.167 249.667,122.833 250,122.5C 250.667,125.167 251.333,125.167 252,122.5C 252.684,123.784 252.517,124.951 251.5,126C 253.5,126.333 255.5,126.667 257.5,127C 258.191,128.067 258.691,129.234 259,130.5C 259.333,130.167 259.667,129.833 260,129.5C 260.918,131.632 262.251,132.299 264,131.5C 265.113,132.76 265.28,133.927 264.5,135C 267.567,135.887 270.567,136.554 273.5,137C 268.129,139.923 261.796,142.09 254.5,143.5 Z"/></g>
<g><path style="opacity:1" fill="#e4eff8" d="M 189.5,137.5 C 187.409,137.318 185.409,137.652 183.5,138.5C 182.042,141.372 180.875,144.372 180,147.5C 177.791,145.627 175.958,143.46 174.5,141C 172.934,140.235 171.601,140.402 170.5,141.5C 162.523,142.49 154.523,142.657 146.5,142C 146.167,141.667 145.833,141.333 145.5,141C 149.356,140.823 153.023,140.323 156.5,139.5C 159.583,139.084 162.583,138.417 165.5,137.5C 168.016,137.245 170.35,136.411 172.5,135C 171.737,134.056 170.737,133.556 169.5,133.5C 154.618,134.812 139.785,134.812 125,133.5C 124.25,134.126 123.416,134.626 122.5,135C 124.037,136.11 124.703,137.61 124.5,139.5C 119.513,138.002 116.846,140.002 116.5,145.5C 116.217,146.289 115.717,146.956 115,147.5C 114.125,144.372 112.958,141.372 111.5,138.5C 109.253,137.626 106.92,137.292 104.5,137.5C 103.566,138.568 103.232,139.901 103.5,141.5C 103.44,142.043 103.107,142.376 102.5,142.5C 100.359,141.192 98.3586,139.692 96.5,138C 102.908,129.373 111.408,123.873 122,121.5C 125.711,128.978 129.878,129.311 134.5,122.5C 138.585,124.295 142.918,125.295 147.5,125.5C 153.046,123.649 158.213,122.649 163,122.5C 166.554,127.684 169.887,127.35 173,121.5C 178.478,123.159 183.644,125.492 188.5,128.5C 190.544,131.364 190.877,134.364 189.5,137.5 Z"/></g>
<g><path style="opacity:1" fill="#cae0f6" d="M 165.5,120.5 C 165.5,121.5 165.5,122.5 165.5,123.5C 167.973,123.912 169.306,122.912 169.5,120.5C 170.167,120.5 170.833,120.5 171.5,120.5C 172.695,120.322 173.862,119.989 175,119.5C 178.201,121.51 181.701,122.677 185.5,123C 188.037,126.035 191.037,128.535 194.5,130.5C 195.305,133.304 195.972,136.138 196.5,139C 195.201,139.611 193.701,140.777 192,142.5C 191.536,141.906 191.369,141.239 191.5,140.5C 191.737,139.209 191.404,138.209 190.5,137.5C 190.167,137.5 189.833,137.5 189.5,137.5C 190.877,134.364 190.544,131.364 188.5,128.5C 183.644,125.492 178.478,123.159 173,121.5C 169.887,127.35 166.554,127.684 163,122.5C 158.213,122.649 153.046,123.649 147.5,125.5C 142.918,125.295 138.585,124.295 134.5,122.5C 129.878,129.311 125.711,128.978 122,121.5C 111.408,123.873 102.908,129.373 96.5,138C 98.3586,139.692 100.359,141.192 102.5,142.5C 103.107,142.376 103.44,142.043 103.5,141.5C 105.814,146.128 108.147,150.795 110.5,155.5C 100.629,156.794 94.7953,152.128 93,141.5C 92.6667,141.833 92.3333,142.167 92,142.5C 91.8301,140.155 92.1635,137.821 93,135.5C 100.328,128.708 108.828,123.708 118.5,120.5C 120.591,116.561 122.591,116.561 124.5,120.5C 124.833,120.5 125.167,120.5 125.5,120.5C 126.833,124.5 128.167,124.5 129.5,120.5C 130.29,119.391 130.79,118.058 131,116.5C 134.911,117.579 138.411,119.412 141.5,122C 145.167,122.667 148.833,122.667 152.5,122C 156.329,120.001 160.162,118.167 164,116.5C 164.21,118.058 164.71,119.391 165.5,120.5 Z"/></g>
<g><path style="opacity:1" fill="#2b328a" d="M 129.5,120.5 C 128.167,124.5 126.833,124.5 125.5,120.5C 126.293,116.835 127.626,116.835 129.5,120.5 Z"/></g>
<g><path style="opacity:1" fill="#b9d8fa" d="M 165.5,137.5 C 162.583,138.417 159.583,139.084 156.5,139.5C 148.344,139.991 140.344,139.158 132.5,137C 132.833,136.667 133.167,136.333 133.5,136C 144.833,135.333 156.167,135.333 167.5,136C 166.584,136.278 165.918,136.778 165.5,137.5 Z"/></g>
<g><path style="opacity:1" fill="#84aee3" d="M 80.5,127.5 C 82.0109,129.476 82.8442,131.809 83,134.5C 84,135.5 85,136.5 86,137.5C 87.1622,135.162 88.9956,133.828 91.5,133.5C 89.8402,135.322 88.8402,137.489 88.5,140C 88.68,145.437 88.8466,150.937 89,156.5C 90.2265,160.211 92.0599,163.545 94.5,166.5C 92.9382,166.267 91.6049,165.6 90.5,164.5C 87.8308,160.579 85.1641,156.579 82.5,152.5C 81.8328,149.023 81.1661,145.689 80.5,142.5C 80.5,140.5 80.5,138.5 80.5,136.5C 80.5,133.5 80.5,130.5 80.5,127.5 Z"/></g>
<g><path style="opacity:1" fill="#d6e3f0" d="M 165.5,137.5 C 165.918,136.778 166.584,136.278 167.5,136C 156.167,135.333 144.833,135.333 133.5,136C 133.167,136.333 132.833,136.667 132.5,137C 140.344,139.158 148.344,139.991 156.5,139.5C 153.023,140.323 149.356,140.823 145.5,141C 145.833,141.333 146.167,141.667 146.5,142C 154.523,142.657 162.523,142.49 170.5,141.5C 169.488,145.704 167.988,149.704 166,153.5C 163.5,150.5 161,147.5 158.5,144.5C 157.675,143.614 156.675,143.281 155.5,143.5C 150.167,143.5 144.833,143.5 139.5,143.5C 135.565,145.434 132.565,148.434 130.5,152.5C 129.883,152.611 129.383,152.944 129,153.5C 128.148,152.429 127.315,151.429 126.5,150.5C 126.768,148.901 126.434,147.568 125.5,146.5C 125.341,143.799 124.174,141.799 122,140.5C 120.317,142.351 118.484,144.017 116.5,145.5C 116.846,140.002 119.513,138.002 124.5,139.5C 124.703,137.61 124.037,136.11 122.5,135C 123.416,134.626 124.25,134.126 125,133.5C 139.785,134.812 154.618,134.812 169.5,133.5C 170.737,133.556 171.737,134.056 172.5,135C 170.35,136.411 168.016,137.245 165.5,137.5 Z"/></g>
<g><path style="opacity:1" fill="#1e43b4" d="M 80.5,143.5 C 81.953,154.927 79.953,165.593 74.5,175.5C 67.9534,185.261 63.6201,195.928 61.5,207.5C 60.9987,210.119 59.832,212.452 58,214.5C 52.8574,216.27 47.6907,217.937 42.5,219.5C 31.1271,204.066 24.1271,186.733 21.5,167.5C 23.0681,167.641 24.7348,167.974 26.5,168.5C 28.444,167.811 30.444,167.311 32.5,167C 30.0085,165.751 30.1751,164.584 33,163.5C 33.724,165.959 35.0573,166.959 37,166.5C 38.9431,168.645 41.2764,170.312 44,171.5C 58.1722,169.9 63.0056,162.734 58.5,150C 58.4513,146.924 58.9513,144.091 60,141.5C 61.0437,142.623 61.7104,143.956 62,145.5C 62.5968,142.445 63.9302,139.445 66,136.5C 66.1967,141.178 67.1967,141.512 69,137.5C 69.2835,139.886 70.2835,140.552 72,139.5C 72.9803,140.981 74.147,142.315 75.5,143.5C 77.0026,142.948 78.6693,142.948 80.5,143.5 Z"/></g>
<g><path style="opacity:1" fill="#a7c1da" d="M 139.5,143.5 C 144.833,143.5 150.167,143.5 155.5,143.5C 153.75,147.335 151.75,151.001 149.5,154.5C 149.777,151.552 149.444,148.719 148.5,146C 145.69,145.09 143.69,145.923 142.5,148.5C 141.11,147.101 140.11,145.434 139.5,143.5 Z"/></g>
<g><path style="opacity:1" fill="#0f2f69" d="M 104.5,137.5 C 106.92,137.292 109.253,137.626 111.5,138.5C 112.958,141.372 114.125,144.372 115,147.5C 115.717,146.956 116.217,146.289 116.5,145.5C 118.484,144.017 120.317,142.351 122,140.5C 124.174,141.799 125.341,143.799 125.5,146.5C 123.89,150.443 121.223,153.443 117.5,155.5C 111.221,150.956 106.888,144.956 104.5,137.5 Z"/></g>
<g><path style="opacity:1" fill="#08326f" d="M 139.5,143.5 C 140.11,145.434 141.11,147.101 142.5,148.5C 143.227,150.954 144.227,153.287 145.5,155.5C 145.565,155.938 145.399,156.272 145,156.5C 142.651,153.983 140.151,151.65 137.5,149.5C 135.261,150.788 132.928,151.788 130.5,152.5C 132.565,148.434 135.565,145.434 139.5,143.5 Z"/></g>
<g><path style="opacity:1" fill="#dfeaf4" d="M 149.5,154.5 C 149.5,154.833 149.5,155.167 149.5,155.5C 148.849,156.091 148.182,156.757 147.5,157.5C 146.818,156.757 146.151,156.091 145.5,155.5C 144.227,153.287 143.227,150.954 142.5,148.5C 143.69,145.923 145.69,145.09 148.5,146C 149.444,148.719 149.777,151.552 149.5,154.5 Z"/></g>
<g><path style="opacity:1" fill="#103471" d="M 189.5,137.5 C 189.833,137.5 190.167,137.5 190.5,137.5C 188.226,145.391 183.559,151.391 176.5,155.5C 175.206,154.71 174.039,153.71 173,152.5C 172.833,153.5 172.667,154.5 172.5,155.5C 172.64,157.03 173.307,158.03 174.5,158.5C 173.449,159.222 172.782,160.222 172.5,161.5C 171.167,160.5 169.833,159.5 168.5,158.5C 168.44,157.957 168.107,157.624 167.5,157.5C 166.086,158.624 164.586,159.624 163,160.5C 161.954,158.91 160.787,157.41 159.5,156C 156.183,155.502 152.85,155.335 149.5,155.5C 149.5,155.167 149.5,154.833 149.5,154.5C 151.75,151.001 153.75,147.335 155.5,143.5C 156.675,143.281 157.675,143.614 158.5,144.5C 161,147.5 163.5,150.5 166,153.5C 167.988,149.704 169.488,145.704 170.5,141.5C 171.601,140.402 172.934,140.235 174.5,141C 175.958,143.46 177.791,145.627 180,147.5C 180.875,144.372 182.042,141.372 183.5,138.5C 185.409,137.652 187.409,137.318 189.5,137.5 Z"/></g>
<g><path style="opacity:1" fill="#adcdf0" d="M 179.5,101.5 C 179.198,104.059 179.532,106.393 180.5,108.5C 180.545,113.212 182.878,115.545 187.5,115.5C 187.34,117.199 187.506,118.866 188,120.5C 192.808,125.451 197.142,130.785 201,136.5C 200.917,139.119 200.75,141.786 200.5,144.5C 199.5,144.5 198.5,144.5 197.5,144.5C 196.698,148.394 195.198,152.061 193,155.5C 192.586,155.043 192.086,154.709 191.5,154.5C 187.275,156.499 183.775,158.499 181,160.5C 180.536,159.906 180.369,159.239 180.5,158.5C 185.699,153.436 189.365,147.436 191.5,140.5C 191.369,141.239 191.536,141.906 192,142.5C 193.701,140.777 195.201,139.611 196.5,139C 195.972,136.138 195.305,133.304 194.5,130.5C 191.037,128.535 188.037,126.035 185.5,123C 181.701,122.677 178.201,121.51 175,119.5C 173.862,119.989 172.695,120.322 171.5,120.5C 172.691,115.882 171.025,113.382 166.5,113C 167.93,111.56 169.597,111.226 171.5,112C 172.369,114.368 174.035,115.868 176.5,116.5C 176.876,113.627 176.876,110.627 176.5,107.5C 176.34,105.801 176.506,104.134 177,102.5C 177.671,101.748 178.504,101.414 179.5,101.5 Z"/></g>
<g><path style="opacity:1" fill="#903849" d="M 190.5,137.5 C 191.404,138.209 191.737,139.209 191.5,140.5C 189.365,147.436 185.699,153.436 180.5,158.5C 178.772,160.226 176.772,161.559 174.5,162.5C 173.833,162.5 173.167,162.5 172.5,162.5C 172.5,162.167 172.5,161.833 172.5,161.5C 172.782,160.222 173.449,159.222 174.5,158.5C 177.007,158.368 177.674,157.368 176.5,155.5C 183.559,151.391 188.226,145.391 190.5,137.5 Z"/></g>
<g><path style="opacity:1" fill="#2856bc" d="M 274.5,135.5 C 275.833,143.5 275.833,151.5 274.5,159.5C 256.299,165.204 238.299,170.537 220.5,175.5C 218.086,170.577 216.086,165.577 214.5,160.5C 213.383,154.011 213.383,147.678 214.5,141.5C 214.5,145.5 214.5,149.5 214.5,153.5C 228.268,150.664 241.602,147.331 254.5,143.5C 254.063,145.074 253.063,146.241 251.5,147C 252.333,147.167 253.167,147.333 254,147.5C 260.99,145.529 267.824,144.196 274.5,143.5C 274.5,140.833 274.5,138.167 274.5,135.5 Z"/></g>
<g><path style="opacity:1" fill="#9a3e4c" d="M 104.5,137.5 C 106.888,144.956 111.221,150.956 117.5,155.5C 117.833,156.833 118.167,158.167 118.5,159.5C 118.5,159.833 118.5,160.167 118.5,160.5C 117.391,160.443 116.391,160.11 115.5,159.5C 113.833,158.167 112.167,156.833 110.5,155.5C 108.147,150.795 105.814,146.128 103.5,141.5C 103.232,139.901 103.566,138.568 104.5,137.5 Z"/></g>
<g><path style="opacity:1" fill="#8fa9cd" d="M 176.5,155.5 C 177.674,157.368 177.007,158.368 174.5,158.5C 173.307,158.03 172.64,157.03 172.5,155.5C 172.667,154.5 172.833,153.5 173,152.5C 174.039,153.71 175.206,154.71 176.5,155.5 Z"/></g>
<g><path style="opacity:1" fill="#81ade0" d="M 200.5,144.5 C 200.611,145.117 200.944,145.617 201.5,146C 198.694,150.45 196.027,154.95 193.5,159.5C 188.687,163.362 183.354,165.028 177.5,164.5C 176.29,164.068 175.29,163.401 174.5,162.5C 176.772,161.559 178.772,160.226 180.5,158.5C 180.369,159.239 180.536,159.906 181,160.5C 183.775,158.499 187.275,156.499 191.5,154.5C 192.086,154.709 192.586,155.043 193,155.5C 195.198,152.061 196.698,148.394 197.5,144.5C 198.5,144.5 199.5,144.5 200.5,144.5 Z"/></g>
<g><path style="opacity:1" fill="#6095d3" d="M 203.5,132.5 C 204.117,132.611 204.617,132.944 205,133.5C 207.822,141.776 207.822,150.109 205,158.5C 202.129,162.262 198.629,166.262 194.5,170.5C 192.075,172.145 189.408,173.311 186.5,174C 187.823,174.816 188.489,175.983 188.5,177.5C 188.167,177.5 187.833,177.5 187.5,177.5C 185.5,176.5 183.5,175.5 181.5,174.5C 180.066,171.953 178.4,169.619 176.5,167.5C 177.11,166.609 177.443,165.609 177.5,164.5C 183.354,165.028 188.687,163.362 193.5,159.5C 196.027,154.95 198.694,150.45 201.5,146C 200.944,145.617 200.611,145.117 200.5,144.5C 203.726,142.156 204.726,139.156 203.5,135.5C 203.5,134.5 203.5,133.5 203.5,132.5 Z"/></g>
<g><path style="opacity:1" fill="#4367c5" d="M 44.5,150.5 C 49.5732,150.282 52.9066,152.615 54.5,157.5C 50.8963,164.629 46.3963,165.296 41,159.5C 39.6649,155.392 40.8316,152.392 44.5,150.5 Z"/></g>
<g><path style="opacity:1" fill="#6fa7e7" d="M 145.5,155.5 C 146.151,156.091 146.818,156.757 147.5,157.5C 148.182,156.757 148.849,156.091 149.5,155.5C 152.85,155.335 156.183,155.502 159.5,156C 160.787,157.41 161.954,158.91 163,160.5C 164.586,159.624 166.086,158.624 167.5,157.5C 168.107,157.624 168.44,157.957 168.5,158.5C 167.733,159.172 167.066,160.005 166.5,161C 166.057,162.518 166.724,163.685 168.5,164.5C 168.023,165.478 167.357,166.311 166.5,167C 159.444,167.788 152.444,167.455 145.5,166C 143.91,164.954 142.41,163.787 141,162.5C 140.667,162.833 140.333,163.167 140,163.5C 135.943,163.097 131.776,162.097 127.5,160.5C 126.513,157.232 126.18,153.898 126.5,150.5C 127.315,151.429 128.148,152.429 129,153.5C 129.383,152.944 129.883,152.611 130.5,152.5C 132.928,151.788 135.261,150.788 137.5,149.5C 140.151,151.65 142.651,153.983 145,156.5C 145.399,156.272 145.565,155.938 145.5,155.5 Z"/></g>
<g><path style="opacity:1" fill="#97c4f4" d="M 125.5,146.5 C 126.434,147.568 126.768,148.901 126.5,150.5C 126.18,153.898 126.513,157.232 127.5,160.5C 131.776,162.097 135.943,163.097 140,163.5C 140.333,163.167 140.667,162.833 141,162.5C 142.41,163.787 143.91,164.954 145.5,166C 152.444,167.455 159.444,167.788 166.5,167C 167.357,166.311 168.023,165.478 168.5,164.5C 166.724,163.685 166.057,162.518 166.5,161C 167.066,160.005 167.733,159.172 168.5,158.5C 169.833,159.5 171.167,160.5 172.5,161.5C 172.5,161.833 172.5,162.167 172.5,162.5C 172.799,164.604 172.466,166.604 171.5,168.5C 168.456,169.719 165.289,170.386 162,170.5C 149.893,169.677 138.059,167.51 126.5,164C 124.04,162.542 121.873,160.709 120,158.5C 119.617,159.056 119.117,159.389 118.5,159.5C 118.167,158.167 117.833,156.833 117.5,155.5C 121.223,153.443 123.89,150.443 125.5,146.5 Z"/></g>
<g><path style="opacity:1" fill="#b2d5f7" d="M 172.5,162.5 C 173.167,162.5 173.833,162.5 174.5,162.5C 175.29,163.401 176.29,164.068 177.5,164.5C 177.443,165.609 177.11,166.609 176.5,167.5C 176.204,169.403 175.537,171.07 174.5,172.5C 174.631,171.761 174.464,171.094 174,170.5C 170.551,172.135 166.885,173.135 163,173.5C 153.55,172.477 144.216,170.81 135,168.5C 134.5,168.833 134,169.167 133.5,169.5C 134.243,170.182 134.909,170.849 135.5,171.5C 133.833,171.5 132.167,171.5 130.5,171.5C 130.918,170.778 131.584,170.278 132.5,170C 127.366,167.594 122.699,164.427 118.5,160.5C 118.5,160.167 118.5,159.833 118.5,159.5C 119.117,159.389 119.617,159.056 120,158.5C 121.873,160.709 124.04,162.542 126.5,164C 138.059,167.51 149.893,169.677 162,170.5C 165.289,170.386 168.456,169.719 171.5,168.5C 172.466,166.604 172.799,164.604 172.5,162.5 Z"/></g>
<g><path style="opacity:1" fill="#d0e8f7" d="M 118.5,160.5 C 122.699,164.427 127.366,167.594 132.5,170C 131.584,170.278 130.918,170.778 130.5,171.5C 126.014,174.577 125.348,178.41 128.5,183C 127.167,187 125.833,191 124.5,195C 122.273,196.706 120.106,198.54 118,200.5C 117.51,201.793 117.343,203.127 117.5,204.5C 116.417,204.539 115.417,204.873 114.5,205.5C 111.956,203.322 109.29,201.322 106.5,199.5C 109.678,193.477 112.012,187.144 113.5,180.5C 114.514,173.778 116.181,167.111 118.5,160.5 Z"/></g>
<g><path style="opacity:1" fill="#1e46b6" d="M 274.5,159.5 C 274.256,165.965 273.256,172.299 271.5,178.5C 266.769,179.295 262.102,179.295 257.5,178.5C 252.405,179.042 247.405,180.042 242.5,181.5C 241.914,181.291 241.414,180.957 241,180.5C 235.835,182.595 230.668,183.595 225.5,183.5C 223.347,181.206 221.68,178.54 220.5,175.5C 238.299,170.537 256.299,165.204 274.5,159.5 Z"/></g>
<g><path style="opacity:1" fill="#95bdeb" d="M 115.5,159.5 C 116.391,160.11 117.391,160.443 118.5,160.5C 116.181,167.111 114.514,173.778 113.5,180.5C 113.5,180.167 113.5,179.833 113.5,179.5C 113.119,178.069 112.119,177.236 110.5,177C 106.5,176.667 102.5,176.333 98.5,176C 99.1667,175.667 99.8333,175.333 100.5,175C 98.1365,172.494 96.4698,169.661 95.5,166.5C 98.346,166.59 100.679,167.756 102.5,170C 105.224,170.27 107.891,170.77 110.5,171.5C 110.833,171.167 111.167,170.833 111.5,170.5C 109.803,169.636 108.637,168.303 108,166.5C 107.282,167.451 106.449,167.617 105.5,167C 103.787,165.622 102.453,163.955 101.5,162C 103.967,161.694 106.467,161.527 109,161.5C 109.945,161.905 110.612,162.572 111,163.5C 112,162.167 113,162.167 114,163.5C 115.188,162.437 115.688,161.103 115.5,159.5 Z"/></g>
<g><path style="opacity:1" fill="#0b2757" d="M 130.5,171.5 C 132.167,171.5 133.833,171.5 135.5,171.5C 138.698,172.854 139.864,175.187 139,178.5C 137.581,181.296 135.415,183.296 132.5,184.5C 131.628,186.45 130.961,188.45 130.5,190.5C 129.643,192.403 128.977,194.403 128.5,196.5C 131.933,202.022 130.933,206.355 125.5,209.5C 121.495,209.837 118.828,208.17 117.5,204.5C 117.343,203.127 117.51,201.793 118,200.5C 120.106,198.54 122.273,196.706 124.5,195C 125.833,191 127.167,187 128.5,183C 125.348,178.41 126.014,174.577 130.5,171.5 Z"/></g>
<g><path style="opacity:1" fill="#6094d6" d="M 90.5,164.5 C 91.6049,165.6 92.9382,166.267 94.5,166.5C 94.8333,166.5 95.1667,166.5 95.5,166.5C 96.4698,169.661 98.1365,172.494 100.5,175C 99.8333,175.333 99.1667,175.667 98.5,176C 102.5,176.333 106.5,176.667 110.5,177C 112.119,177.236 113.119,178.069 113.5,179.5C 105.794,176.93 98.1269,176.93 90.5,179.5C 88.1259,177.599 87.9593,175.265 90,172.5C 91.9942,171.721 93.8276,171.387 95.5,171.5C 94.9649,169.739 93.9649,168.406 92.5,167.5C 91.0937,167.027 90.427,166.027 90.5,164.5 Z"/></g>
<g><path style="opacity:1" fill="#c3e1f6" d="M 174.5,172.5 C 174.784,174.415 174.451,176.081 173.5,177.5C 173.631,176.761 173.464,176.094 173,175.5C 167.522,177.286 162.022,178.119 156.5,178C 159.854,181.006 163.52,183.506 167.5,185.5C 165.766,187.234 164.432,189.234 163.5,191.5C 160.971,192.655 158.637,193.655 156.5,194.5C 158.087,190.977 158.587,187.31 158,183.5C 156.266,181.549 154.099,180.549 151.5,180.5C 151.92,178.326 151.92,176.326 151.5,174.5C 148.42,175.789 145.586,177.455 143,179.5C 143.404,182.976 144.904,185.976 147.5,188.5C 148.429,187.311 148.762,185.978 148.5,184.5C 150.199,184.34 151.866,184.506 153.5,185C 154.202,188.409 153.535,191.576 151.5,194.5C 150.848,193.275 149.681,192.608 148,192.5C 142.566,191.817 137.233,190.817 132,189.5C 131.617,190.056 131.117,190.389 130.5,190.5C 130.961,188.45 131.628,186.45 132.5,184.5C 135.415,183.296 137.581,181.296 139,178.5C 139.864,175.187 138.698,172.854 135.5,171.5C 134.909,170.849 134.243,170.182 133.5,169.5C 134,169.167 134.5,168.833 135,168.5C 144.216,170.81 153.55,172.477 163,173.5C 166.885,173.135 170.551,172.135 174,170.5C 174.464,171.094 174.631,171.761 174.5,172.5 Z"/></g>
<g><path style="opacity:1" fill="#295da5" d="M 176.5,167.5 C 178.4,169.619 180.066,171.953 181.5,174.5C 180.962,176.117 180.629,177.784 180.5,179.5C 178.299,180.566 175.965,181.233 173.5,181.5C 173.5,180.167 173.5,178.833 173.5,177.5C 174.451,176.081 174.784,174.415 174.5,172.5C 175.537,171.07 176.204,169.403 176.5,167.5 Z"/></g>
<g><path style="opacity:1" fill="#b6d5eb" d="M 130.5,175.5 C 131.833,175.5 133.167,175.5 134.5,175.5C 134.5,176.833 134.5,178.167 134.5,179.5C 131.5,179.833 130.167,178.5 130.5,175.5 Z"/></g>
<g><path style="opacity:1" fill="#0b2758" d="M 156.5,194.5 C 155.434,196.701 154.767,199.035 154.5,201.5C 154.167,201.5 153.833,201.5 153.5,201.5C 151.821,201.715 150.821,201.048 150.5,199.5C 151.038,197.883 151.371,196.216 151.5,194.5C 153.535,191.576 154.202,188.409 153.5,185C 151.866,184.506 150.199,184.34 148.5,184.5C 148.762,185.978 148.429,187.311 147.5,188.5C 144.904,185.976 143.404,182.976 143,179.5C 145.586,177.455 148.42,175.789 151.5,174.5C 151.92,176.326 151.92,178.326 151.5,180.5C 154.099,180.549 156.266,181.549 158,183.5C 158.587,187.31 158.087,190.977 156.5,194.5 Z"/></g>
<g><path style="opacity:1" fill="#d5eaf8" d="M 173.5,177.5 C 173.5,178.833 173.5,180.167 173.5,181.5C 173.5,183.5 173.5,185.5 173.5,187.5C 172.833,189.833 172.167,192.167 171.5,194.5C 171.631,193.761 171.464,193.094 171,192.5C 167.159,198.505 161.659,201.505 154.5,201.5C 154.767,199.035 155.434,196.701 156.5,194.5C 158.637,193.655 160.971,192.655 163.5,191.5C 164.432,189.234 165.766,187.234 167.5,185.5C 163.52,183.506 159.854,181.006 156.5,178C 162.022,178.119 167.522,177.286 173,175.5C 173.464,176.094 173.631,176.761 173.5,177.5 Z"/></g>
<g><path style="opacity:1" fill="#286ac2" d="M 214.5,160.5 C 216.086,165.577 218.086,170.577 220.5,175.5C 221.68,178.54 223.347,181.206 225.5,183.5C 226.079,186.331 227.412,188.664 229.5,190.5C 230.656,194.793 231.656,199.126 232.5,203.5C 230.983,203.489 229.816,202.823 229,201.5C 223.971,191.813 217.471,183.313 209.5,176C 206.404,173.785 203.071,172.119 199.5,171C 202.866,168.282 205.533,164.948 207.5,161C 207.167,160.667 206.833,160.333 206.5,160C 207.833,159 209.167,158 210.5,157C 210.167,156.667 209.833,156.333 209.5,156C 210.416,155.626 211.25,155.126 212,154.5C 212.566,156.723 213.4,158.723 214.5,160.5 Z"/></g>
<g><path style="opacity:1" fill="#3673c7" d="M 80.5,142.5 C 81.1661,145.689 81.8328,149.023 82.5,152.5C 85.1641,156.579 87.8308,160.579 90.5,164.5C 90.427,166.027 91.0937,167.027 92.5,167.5C 93.087,168.767 93.087,169.767 92.5,170.5C 90.9984,169.917 89.6651,169.084 88.5,168C 86.8333,167.333 85.1667,167.333 83.5,168C 84.6105,170.737 84.7772,173.571 84,176.5C 78.85,182.138 74.1834,188.138 70,194.5C 69.51,193.207 69.3433,191.873 69.5,190.5C 72.2957,185.742 74.9623,180.909 77.5,176C 76.552,175.517 75.552,175.351 74.5,175.5C 79.953,165.593 81.953,154.927 80.5,143.5C 80.5,143.167 80.5,142.833 80.5,142.5 Z"/></g>
<g><path style="opacity:1" fill="#4881c9" d="M 92.5,167.5 C 93.9649,168.406 94.9649,169.739 95.5,171.5C 93.8276,171.387 91.9942,171.721 90,172.5C 87.9593,175.265 88.1259,177.599 90.5,179.5C 79.8795,186.704 71.5462,196.037 65.5,207.5C 66.0748,201.54 67.4081,195.874 69.5,190.5C 69.3433,191.873 69.51,193.207 70,194.5C 74.1834,188.138 78.85,182.138 84,176.5C 84.7772,173.571 84.6105,170.737 83.5,168C 85.1667,167.333 86.8333,167.333 88.5,168C 89.6651,169.084 90.9984,169.917 92.5,170.5C 93.087,169.767 93.087,168.767 92.5,167.5 Z"/></g>
<g><path style="opacity:1" fill="#86acdb" d="M 181.5,174.5 C 183.5,175.5 185.5,176.5 187.5,177.5C 189.094,178.983 190.76,180.483 192.5,182C 188.353,181.815 185.52,183.648 184,187.5C 182.007,185.182 180.841,182.516 180.5,179.5C 180.629,177.784 180.962,176.117 181.5,174.5 Z"/></g>
<g><path style="opacity:1" fill="#2342b0" d="M 113.5,179.5 C 113.5,179.833 113.5,180.167 113.5,180.5C 112.012,187.144 109.678,193.477 106.5,199.5C 106.068,200.71 105.401,201.71 104.5,202.5C 100.634,203.555 96.9671,204.389 93.5,205C 97.8184,205.594 98.3184,207.094 95,209.5C 94,209.167 93,208.833 92,208.5C 86.3738,210.924 80.7071,212.258 75,212.5C 72.4822,214.464 69.8155,215.13 67,214.5C 64.4475,217.194 63.2808,216.527 63.5,212.5C 63.8925,210.716 64.5592,209.05 65.5,207.5C 71.5462,196.037 79.8795,186.704 90.5,179.5C 98.1269,176.93 105.794,176.93 113.5,179.5 Z"/></g>
<g><path style="opacity:1" fill="#2848b3" d="M 208.5,182.5 C 214.55,186.217 219.217,191.217 222.5,197.5C 222.617,199.484 221.95,201.15 220.5,202.5C 213.505,206.58 206.339,210.247 199,213.5C 197,213.5 195,213.5 193,213.5C 190.583,212.648 188.083,211.981 185.5,211.5C 184.287,211.253 183.62,210.586 183.5,209.5C 183.794,207.724 183.96,205.724 184,203.5C 184.75,202.874 185.584,202.374 186.5,202C 185.529,200.796 184.529,200.296 183.5,200.5C 184.04,199.252 184.707,198.085 185.5,197C 185.167,196.667 184.833,196.333 184.5,196C 185.76,194.887 186.927,194.72 188,195.5C 189.267,193.576 189.267,191.91 188,190.5C 186.333,191.5 184.667,192.5 183,193.5C 182.308,192.975 181.808,192.308 181.5,191.5C 187.337,188.947 193.17,186.614 199,184.5C 199.333,184.833 199.667,185.167 200,185.5C 202.419,183.415 205.253,182.415 208.5,182.5 Z"/></g>
<g><path style="opacity:1" fill="#254aad" d="M 187.5,177.5 C 187.833,177.5 188.167,177.5 188.5,177.5C 195.966,176.435 202.633,178.102 208.5,182.5C 205.253,182.415 202.419,183.415 200,185.5C 199.667,185.167 199.333,184.833 199,184.5C 193.17,186.614 187.337,188.947 181.5,191.5C 181.808,192.308 182.308,192.975 183,193.5C 184.667,192.5 186.333,191.5 188,190.5C 189.267,191.91 189.267,193.576 188,195.5C 186.927,194.72 185.76,194.887 184.5,196C 184.833,196.333 185.167,196.667 185.5,197C 184.707,198.085 184.04,199.252 183.5,200.5C 184.529,200.296 185.529,200.796 186.5,202C 185.584,202.374 184.75,202.874 184,203.5C 183.96,205.724 183.794,207.724 183.5,209.5C 179.765,207.403 176.432,204.737 173.5,201.5C 174.311,200.784 174.978,199.95 175.5,199C 174.833,198.333 174.167,197.667 173.5,197C 176.009,192.433 177.509,187.599 178,182.5C 176.264,184.063 174.764,185.73 173.5,187.5C 173.5,185.5 173.5,183.5 173.5,181.5C 175.965,181.233 178.299,180.566 180.5,179.5C 180.841,182.516 182.007,185.182 184,187.5C 185.52,183.648 188.353,181.815 192.5,182C 190.76,180.483 189.094,178.983 187.5,177.5 Z"/></g>
<g><path style="opacity:1" fill="#d6ebf7" d="M 151.5,194.5 C 151.371,196.216 151.038,197.883 150.5,199.5C 149.566,200.568 149.232,201.901 149.5,203.5C 145.945,204.054 143.612,206.054 142.5,209.5C 137.096,208.463 131.429,208.463 125.5,209.5C 130.933,206.355 131.933,202.022 128.5,196.5C 128.977,194.403 129.643,192.403 130.5,190.5C 131.117,190.389 131.617,190.056 132,189.5C 137.233,190.817 142.566,191.817 148,192.5C 149.681,192.608 150.848,193.275 151.5,194.5 Z"/></g>
<g><path style="opacity:1" fill="#2a53b8" d="M 233.5,212.5 C 233.736,209.391 233.403,206.391 232.5,203.5C 231.656,199.126 230.656,194.793 229.5,190.5C 230.88,191.706 232.047,191.373 233,189.5C 234.828,191.807 236.494,191.474 238,188.5C 238.333,188.833 238.667,189.167 239,189.5C 242.076,188.712 245.242,188.212 248.5,188C 249,187.5 249.5,187 250,186.5C 253.796,187.422 257.463,187.422 261,186.5C 266.103,186.706 267.27,188.706 264.5,192.5C 262.321,193.757 260.321,195.257 258.5,197C 257.451,197.492 256.451,197.326 255.5,196.5C 253.549,198.622 251.215,200.122 248.5,201C 249,201.5 249.5,202 250,202.5C 254.392,201.304 258.392,199.304 262,196.5C 262.617,197.449 262.451,198.282 261.5,199C 252.262,203.786 242.929,208.286 233.5,212.5 Z"/></g>
<g><path style="opacity:1" fill="#769dd5" d="M 74.5,175.5 C 75.552,175.351 76.552,175.517 77.5,176C 74.9623,180.909 72.2957,185.742 69.5,190.5C 67.4081,195.874 66.0748,201.54 65.5,207.5C 64.5592,209.05 63.8925,210.716 63.5,212.5C 62.7784,212.918 62.2784,213.584 62,214.5C 61.5034,212.19 61.3367,209.857 61.5,207.5C 63.6201,195.928 67.9534,185.261 74.5,175.5 Z"/></g>
<g><path style="opacity:1" fill="#edf5f8" d="M 171.5,194.5 C 170.992,198.197 170.326,201.864 169.5,205.5C 168.069,206.78 167.402,208.447 167.5,210.5C 166.599,211.29 165.932,212.29 165.5,213.5C 162.315,218.687 158.982,223.854 155.5,229C 150.841,228.798 146.674,229.964 143,232.5C 141.862,232.011 140.695,231.678 139.5,231.5C 138.883,231.389 138.383,231.056 138,230.5C 137.505,228.527 137.338,226.527 137.5,224.5C 135.585,224.216 133.919,224.549 132.5,225.5C 131.508,225.328 130.842,225.662 130.5,226.5C 127.545,227.159 124.545,227.492 121.5,227.5C 119.035,227.233 116.701,226.566 114.5,225.5C 107.506,223.835 100.84,221.335 94.5,218C 98.4777,213.202 101.811,208.035 104.5,202.5C 105.401,201.71 106.068,200.71 106.5,199.5C 109.29,201.322 111.956,203.322 114.5,205.5C 115.417,204.873 116.417,204.539 117.5,204.5C 118.828,208.17 121.495,209.837 125.5,209.5C 131.429,208.463 137.096,208.463 142.5,209.5C 143.625,215.092 146.958,216.926 152.5,215C 154.594,213.745 155.594,211.912 155.5,209.5C 154.345,206.989 153.678,204.322 153.5,201.5C 153.833,201.5 154.167,201.5 154.5,201.5C 161.659,201.505 167.159,198.505 171,192.5C 171.464,193.094 171.631,193.761 171.5,194.5 Z"/></g>
<g><path style="opacity:1" fill="#324971" d="M 150.5,199.5 C 150.821,201.048 151.821,201.715 153.5,201.5C 153.678,204.322 154.345,206.989 155.5,209.5C 155.594,211.912 154.594,213.745 152.5,215C 146.958,216.926 143.625,215.092 142.5,209.5C 143.612,206.054 145.945,204.054 149.5,203.5C 149.232,201.901 149.566,200.568 150.5,199.5 Z"/></g>
<g><path style="opacity:1" fill="#dde7f0" d="M 147.5,207.5 C 149.346,207.222 150.68,207.889 151.5,209.5C 150.68,211.111 149.346,211.778 147.5,211.5C 147.5,210.167 147.5,208.833 147.5,207.5 Z"/></g>
<g><path style="opacity:1" fill="#c8d7e5" d="M 122.5,201.5 C 123.5,201.5 124.5,201.5 125.5,201.5C 125.5,202.833 125.5,204.167 125.5,205.5C 122.046,205.733 121.046,204.4 122.5,201.5 Z"/></g>
<g><path style="opacity:1" fill="#2f4bb2" d="M 104.5,202.5 C 101.811,208.035 98.4777,213.202 94.5,218C 100.84,221.335 107.506,223.835 114.5,225.5C 113.992,228.176 113.825,230.843 114,233.5C 115.085,231.627 116.418,229.96 118,228.5C 119.241,229.938 119.741,231.438 119.5,233C 117.038,236.097 114.705,239.264 112.5,242.5C 109.94,240.727 107.607,238.727 105.5,236.5C 105.938,236.565 106.272,236.399 106.5,236C 104.846,233.503 104.013,231.003 104,228.5C 103.667,229.167 103.333,229.833 103,230.5C 101.445,227.945 99.2785,226.112 96.5,225C 97.5,224 98.5,223 99.5,222C 97.1527,221.666 94.8194,221.833 92.5,222.5C 92.6641,225.187 92.4974,227.854 92,230.5C 89.9783,231.991 88.3117,231.658 87,229.5C 86.6667,229.833 86.3333,230.167 86,230.5C 84.7838,228.032 83.1171,226.032 81,224.5C 77.5923,225.351 74.259,226.351 71,227.5C 67.7298,227.59 64.3965,227.59 61,227.5C 57.39,228.448 53.89,229.448 50.5,230.5C 47.1021,227.373 44.4354,223.707 42.5,219.5C 47.6907,217.937 52.8574,216.27 58,214.5C 59.832,212.452 60.9987,210.119 61.5,207.5C 61.3367,209.857 61.5034,212.19 62,214.5C 62.2784,213.584 62.7784,212.918 63.5,212.5C 63.2808,216.527 64.4475,217.194 67,214.5C 69.8155,215.13 72.4822,214.464 75,212.5C 80.7071,212.258 86.3738,210.924 92,208.5C 93,208.833 94,209.167 95,209.5C 98.3184,207.094 97.8184,205.594 93.5,205C 96.9671,204.389 100.634,203.555 104.5,202.5 Z"/></g>
<g><path style="opacity:1" fill="#2d4bb4" d="M 271.5,178.5 C 269.582,186.985 266.582,194.985 262.5,202.5C 262.565,202.062 262.399,201.728 262,201.5C 257.042,204.729 251.875,207.562 246.5,210C 247.308,210.308 247.975,210.808 248.5,211.5C 233.837,218.297 218.504,224.463 202.5,230C 193.899,234.939 185.565,240.272 177.5,246C 180.521,245.708 183.188,244.375 185.5,242C 186.448,241.517 187.448,241.351 188.5,241.5C 188.649,242.552 188.483,243.552 188,244.5C 187.111,243.112 186.611,243.278 186.5,245C 186.833,245.5 187.167,246 187.5,246.5C 190.63,243.887 193.796,243.887 197,246.5C 197.758,248.769 197.591,250.936 196.5,253C 194.02,253.96 191.52,254.793 189,255.5C 185.85,253.879 185.016,251.546 186.5,248.5C 186,247.5 185.5,246.5 185,245.5C 181.502,248.165 177.669,250.165 173.5,251.5C 173.5,248.833 173.5,246.167 173.5,243.5C 174.014,242.375 174.347,241.209 174.5,240C 181.241,237.546 187.075,233.713 192,228.5C 192.383,229.056 192.883,229.389 193.5,229.5C 193.833,229.5 194.167,229.5 194.5,229.5C 205.725,222.158 218.392,216.825 232.5,213.5C 233.206,214.557 233.539,214.224 233.5,212.5C 242.929,208.286 252.262,203.786 261.5,199C 262.451,198.282 262.617,197.449 262,196.5C 258.392,199.304 254.392,201.304 250,202.5C 249.5,202 249,201.5 248.5,201C 251.215,200.122 253.549,198.622 255.5,196.5C 256.451,197.326 257.451,197.492 258.5,197C 260.321,195.257 262.321,193.757 264.5,192.5C 267.27,188.706 266.103,186.706 261,186.5C 257.463,187.422 253.796,187.422 250,186.5C 249.5,187 249,187.5 248.5,188C 245.242,188.212 242.076,188.712 239,189.5C 238.667,189.167 238.333,188.833 238,188.5C 236.494,191.474 234.828,191.807 233,189.5C 232.047,191.373 230.88,191.706 229.5,190.5C 227.412,188.664 226.079,186.331 225.5,183.5C 230.668,183.595 235.835,182.595 241,180.5C 241.414,180.957 241.914,181.291 242.5,181.5C 247.405,180.042 252.405,179.042 257.5,178.5C 262.102,179.295 266.769,179.295 271.5,178.5 Z"/></g>
<g><path style="opacity:1" fill="#7286c8" d="M 165.5,213.5 C 165.414,214.496 165.748,215.329 166.5,216C 168.623,216.815 170.623,217.815 172.5,219C 171.5,219.333 170.5,219.667 169.5,220C 172.707,221.135 174.041,223.135 173.5,226C 164.762,235.249 154.429,238.583 142.5,236C 141.117,234.729 140.117,233.229 139.5,231.5C 140.695,231.678 141.862,232.011 143,232.5C 146.674,229.964 150.841,228.798 155.5,229C 158.982,223.854 162.315,218.687 165.5,213.5 Z"/></g>
<g><path style="opacity:1" fill="#2639aa" d="M 105.5,236.5 C 100.291,235.808 95.2908,236.808 90.5,239.5C 93.1155,240.762 95.7821,241.928 98.5,243C 97.6634,244.011 97.33,245.178 97.5,246.5C 97.6107,247.117 97.944,247.617 98.5,248C 97.0577,248.377 96.0577,249.21 95.5,250.5C 92.001,250.741 91.6677,249.908 94.5,248C 93.0922,247.685 91.7589,248.018 90.5,249C 86.9231,251.074 84.2565,253.907 82.5,257.5C 70.05,250.725 59.3833,241.725 50.5,230.5C 53.89,229.448 57.39,228.448 61,227.5C 64.3965,227.59 67.7298,227.59 71,227.5C 74.259,226.351 77.5923,225.351 81,224.5C 83.1171,226.032 84.7838,228.032 86,230.5C 86.3333,230.167 86.6667,229.833 87,229.5C 88.3117,231.658 89.9783,231.991 92,230.5C 92.4974,227.854 92.6641,225.187 92.5,222.5C 94.8194,221.833 97.1527,221.666 99.5,222C 98.5,223 97.5,224 96.5,225C 99.2785,226.112 101.445,227.945 103,230.5C 103.333,229.833 103.667,229.167 104,228.5C 104.013,231.003 104.846,233.503 106.5,236C 106.272,236.399 105.938,236.565 105.5,236.5 Z"/></g>
<g><path style="opacity:1" fill="#3d56b4" d="M 183.5,209.5 C 183.62,210.586 184.287,211.253 185.5,211.5C 188.083,211.981 190.583,212.648 193,213.5C 195,213.5 197,213.5 199,213.5C 206.339,210.247 213.505,206.58 220.5,202.5C 221.95,201.15 222.617,199.484 222.5,197.5C 226.32,202.461 229.653,207.794 232.5,213.5C 218.392,216.825 205.725,222.158 194.5,229.5C 195.681,226.975 197.014,224.475 198.5,222C 202.225,220.986 205.892,219.819 209.5,218.5C 204.783,215.952 199.783,215.119 194.5,216C 193.214,218.022 192.214,220.189 191.5,222.5C 192.325,224.801 192.992,227.135 193.5,229.5C 192.883,229.389 192.383,229.056 192,228.5C 187.075,233.713 181.241,237.546 174.5,240C 174.347,241.209 174.014,242.375 173.5,243.5C 173.565,243.062 173.399,242.728 173,242.5C 171.38,244.241 169.88,246.075 168.5,248C 165.493,248.301 162.493,248.135 159.5,247.5C 159.265,246.903 158.765,246.57 158,246.5C 151.65,248.637 145.15,250.137 138.5,251C 141.121,251.906 140.954,252.406 138,252.5C 131.191,251.76 124.357,251.26 117.5,251C 116.128,250.598 114.795,250.098 113.5,249.5C 112.511,247.414 111.178,245.747 109.5,244.5C 110.5,243.833 111.5,243.167 112.5,242.5C 114.705,239.264 117.038,236.097 119.5,233C 119.741,231.438 119.241,229.938 118,228.5C 116.418,229.96 115.085,231.627 114,233.5C 113.825,230.843 113.992,228.176 114.5,225.5C 116.701,226.566 119.035,227.233 121.5,227.5C 124.804,228.407 125.138,229.907 122.5,232C 122.833,232.333 123.167,232.667 123.5,233C 120.645,235.87 118.145,239.037 116,242.5C 115.464,244.567 115.964,246.401 117.5,248C 123.012,250.885 128.512,251.051 134,248.5C 134.333,249.167 134.667,249.833 135,250.5C 140.803,249.393 146.637,248.226 152.5,247C 153.646,246.355 154.646,245.522 155.5,244.5C 158.493,245.782 160.993,245.115 163,242.5C 168.8,240.523 174.633,237.69 180.5,234C 190.659,225.135 189.826,217.969 178,212.5C 177.667,212.833 177.333,213.167 177,213.5C 173.799,211.382 171.299,208.715 169.5,205.5C 170.326,201.864 170.992,198.197 171.5,194.5C 172.167,192.167 172.833,189.833 173.5,187.5C 174.764,185.73 176.264,184.063 178,182.5C 177.509,187.599 176.009,192.433 173.5,197C 174.167,197.667 174.833,198.333 175.5,199C 174.978,199.95 174.311,200.784 173.5,201.5C 176.432,204.737 179.765,207.403 183.5,209.5 Z"/></g>
<g><path style="opacity:1" fill="#dae8f6" d="M 194.5,229.5 C 194.167,229.5 193.833,229.5 193.5,229.5C 192.992,227.135 192.325,224.801 191.5,222.5C 192.214,220.189 193.214,218.022 194.5,216C 199.783,215.119 204.783,215.952 209.5,218.5C 205.892,219.819 202.225,220.986 198.5,222C 197.014,224.475 195.681,226.975 194.5,229.5 Z"/></g>
<g><path style="opacity:1" fill="#2838a8" d="M 262.5,202.5 C 237.914,250.15 198.581,274.483 144.5,275.5C 125.879,274.845 108.212,270.511 91.5,262.5C 99.0423,261.259 106.709,259.926 114.5,258.5C 126.115,259.448 137.281,259.448 148,258.5C 148.945,258.905 149.612,259.572 150,260.5C 150.399,260.272 150.565,259.938 150.5,259.5C 155.196,259.097 159.863,258.43 164.5,257.5C 167.216,254.812 170.216,252.812 173.5,251.5C 177.669,250.165 181.502,248.165 185,245.5C 185.5,246.5 186,247.5 186.5,248.5C 185.016,251.546 185.85,253.879 189,255.5C 191.52,254.793 194.02,253.96 196.5,253C 197.591,250.936 197.758,248.769 197,246.5C 193.796,243.887 190.63,243.887 187.5,246.5C 187.167,246 186.833,245.5 186.5,245C 186.611,243.278 187.111,243.112 188,244.5C 188.483,243.552 188.649,242.552 188.5,241.5C 187.448,241.351 186.448,241.517 185.5,242C 183.188,244.375 180.521,245.708 177.5,246C 185.565,240.272 193.899,234.939 202.5,230C 218.504,224.463 233.837,218.297 248.5,211.5C 247.975,210.808 247.308,210.308 246.5,210C 251.875,207.562 257.042,204.729 262,201.5C 262.399,201.728 262.565,202.062 262.5,202.5 Z"/></g>
<g><path style="opacity:1" fill="#4c62b9" d="M 169.5,205.5 C 171.299,208.715 173.799,211.382 177,213.5C 177.333,213.167 177.667,212.833 178,212.5C 189.826,217.969 190.659,225.135 180.5,234C 174.633,237.69 168.8,240.523 163,242.5C 160.993,245.115 158.493,245.782 155.5,244.5C 154.646,245.522 153.646,246.355 152.5,247C 146.637,248.226 140.803,249.393 135,250.5C 134.667,249.833 134.333,249.167 134,248.5C 128.512,251.051 123.012,250.885 117.5,248C 115.964,246.401 115.464,244.567 116,242.5C 118.145,239.037 120.645,235.87 123.5,233C 123.167,232.667 122.833,232.333 122.5,232C 125.138,229.907 124.804,228.407 121.5,227.5C 124.545,227.492 127.545,227.159 130.5,226.5C 131.485,231.58 129.818,235.913 125.5,239.5C 126.128,241.258 127.128,242.758 128.5,244C 137.871,245.787 147.204,245.453 156.5,243C 157.646,242.355 158.646,241.522 159.5,240.5C 160.451,241.326 161.451,241.492 162.5,241C 161.304,240.346 161.304,239.846 162.5,239.5C 164.909,240.722 166.742,240.055 168,237.5C 173.243,236.918 178.076,234.084 182.5,229C 180.244,226.818 180.244,224.485 182.5,222C 182.265,221.127 181.931,220.293 181.5,219.5C 178.359,216.874 175.026,214.541 171.5,212.5C 170.167,211.833 168.833,211.167 167.5,210.5C 167.402,208.447 168.069,206.78 169.5,205.5 Z"/></g>
<g><path style="opacity:1" fill="#6278c2" d="M 167.5,210.5 C 168.833,211.167 170.167,211.833 171.5,212.5C 170.308,213.566 170.641,214.399 172.5,215C 171.833,215.333 171.167,215.667 170.5,216C 181.432,219.529 182.432,225.195 173.5,233C 163.065,240.07 151.732,242.403 139.5,240C 137.246,239.376 135.579,238.043 134.5,236C 134.812,232.837 135.479,229.503 136.5,226C 135.207,225.51 133.873,225.343 132.5,225.5C 133.919,224.549 135.585,224.216 137.5,224.5C 137.338,226.527 137.505,228.527 138,230.5C 138.383,231.056 138.883,231.389 139.5,231.5C 140.117,233.229 141.117,234.729 142.5,236C 154.429,238.583 164.762,235.249 173.5,226C 174.041,223.135 172.707,221.135 169.5,220C 170.5,219.667 171.5,219.333 172.5,219C 170.623,217.815 168.623,216.815 166.5,216C 165.748,215.329 165.414,214.496 165.5,213.5C 165.932,212.29 166.599,211.29 167.5,210.5 Z"/></g>
<g><path style="opacity:1" fill="#576dbe" d="M 171.5,212.5 C 175.026,214.541 178.359,216.874 181.5,219.5C 181.931,220.293 182.265,221.127 182.5,222C 180.244,224.485 180.244,226.818 182.5,229C 178.076,234.084 173.243,236.918 168,237.5C 166.742,240.055 164.909,240.722 162.5,239.5C 161.304,239.846 161.304,240.346 162.5,241C 161.451,241.492 160.451,241.326 159.5,240.5C 158.646,241.522 157.646,242.355 156.5,243C 147.204,245.453 137.871,245.787 128.5,244C 127.128,242.758 126.128,241.258 125.5,239.5C 129.818,235.913 131.485,231.58 130.5,226.5C 130.842,225.662 131.508,225.328 132.5,225.5C 133.873,225.343 135.207,225.51 136.5,226C 135.479,229.503 134.812,232.837 134.5,236C 135.579,238.043 137.246,239.376 139.5,240C 151.732,242.403 163.065,240.07 173.5,233C 182.432,225.195 181.432,219.529 170.5,216C 171.167,215.667 171.833,215.333 172.5,215C 170.641,214.399 170.308,213.566 171.5,212.5 Z"/></g>
<g><path style="opacity:1" fill="#d1d9ee" d="M 105.5,236.5 C 107.607,238.727 109.94,240.727 112.5,242.5C 111.5,243.167 110.5,243.833 109.5,244.5C 105.557,245.486 101.557,246.152 97.5,246.5C 97.33,245.178 97.6634,244.011 98.5,243C 95.7821,241.928 93.1155,240.762 90.5,239.5C 95.2908,236.808 100.291,235.808 105.5,236.5 Z"/></g>
<g><path style="opacity:1" fill="#3041ab" d="M 95.5,250.5 C 96.2589,252.666 95.2589,254.166 92.5,255C 93.0253,255.692 93.6919,256.192 94.5,256.5C 97.9923,256.763 101.492,256.096 105,254.5C 110.864,255.35 116.864,255.683 123,255.5C 128.831,254.972 134.664,254.472 140.5,254C 146.281,253.918 151.781,252.751 157,250.5C 157.464,251.094 157.631,251.761 157.5,252.5C 154.973,254.605 152.64,256.939 150.5,259.5C 150.565,259.938 150.399,260.272 150,260.5C 149.612,259.572 148.945,258.905 148,258.5C 137.281,259.448 126.115,259.448 114.5,258.5C 106.709,259.926 99.0423,261.259 91.5,262.5C 88.3037,261.071 85.3037,259.405 82.5,257.5C 84.2565,253.907 86.9231,251.074 90.5,249C 91.7589,248.018 93.0922,247.685 94.5,248C 91.6677,249.908 92.001,250.741 95.5,250.5 Z"/></g>
<g><path style="opacity:1" fill="#bbc7ea" d="M 173.5,243.5 C 173.5,246.167 173.5,248.833 173.5,251.5C 170.216,252.812 167.216,254.812 164.5,257.5C 159.863,258.43 155.196,259.097 150.5,259.5C 152.64,256.939 154.973,254.605 157.5,252.5C 158.309,250.972 158.976,249.306 159.5,247.5C 162.493,248.135 165.493,248.301 168.5,248C 169.88,246.075 171.38,244.241 173,242.5C 173.399,242.728 173.565,243.062 173.5,243.5 Z"/></g>
<g><path style="opacity:1" fill="#394db0" d="M 109.5,244.5 C 111.178,245.747 112.511,247.414 113.5,249.5C 114.795,250.098 116.128,250.598 117.5,251C 124.357,251.26 131.191,251.76 138,252.5C 140.954,252.406 141.121,251.906 138.5,251C 145.15,250.137 151.65,248.637 158,246.5C 158.765,246.57 159.265,246.903 159.5,247.5C 158.976,249.306 158.309,250.972 157.5,252.5C 157.631,251.761 157.464,251.094 157,250.5C 151.781,252.751 146.281,253.918 140.5,254C 134.664,254.472 128.831,254.972 123,255.5C 116.864,255.683 110.864,255.35 105,254.5C 101.492,256.096 97.9923,256.763 94.5,256.5C 93.6919,256.192 93.0253,255.692 92.5,255C 95.2589,254.166 96.2589,252.666 95.5,250.5C 96.0577,249.21 97.0577,248.377 98.5,248C 97.944,247.617 97.6107,247.117 97.5,246.5C 101.557,246.152 105.557,245.486 109.5,244.5 Z"/></g>
</svg>
