<?xml version="1.0" encoding="UTF-8"?>
<!DOCTYPE svg PUBLIC "-//W3C//DTD SVG 1.1//EN" "http://www.w3.org/Graphics/SVG/1.1/DTD/svg11.dtd">
<svg xmlns="http://www.w3.org/2000/svg" version="1.1" width="296px" height="296px" style="shape-rendering:geometricPrecision; text-rendering:geometricPrecision; image-rendering:optimizeQuality; fill-rule:evenodd; clip-rule:evenodd" xmlns:xlink="http://www.w3.org/1999/xlink">
<g><path style="opacity:1" fill="#f9f9f9" d="M 130.5,7.5 C 190.411,3.53921 236.578,26.5392 269,76.5C 288.695,112.018 293.028,149.351 282,188.5C 262.439,244.7 223.273,277.533 164.5,287C 104.566,291.449 58.3996,268.616 26,218.5C 6.305,182.982 1.97167,145.649 13,106.5C 32.7936,50.3725 71.9602,17.3725 130.5,7.5 Z"/></g>
<g><path style="opacity:1" fill="#a9ebb4" d="M 218.5,41.5 C 210.227,40.649 201.227,40.649 191.5,41.5C 190.5,40.8333 189.5,40.1667 188.5,39.5C 184.966,40.1313 181.466,40.798 178,41.5C 170.715,41.7031 163.215,41.3698 155.5,40.5C 154.566,42.0948 154.566,43.7615 155.5,45.5C 154.85,45.8039 154.183,46.1373 153.5,46.5C 152.74,51.0193 151.74,55.3526 150.5,59.5C 149.95,55.7372 148.616,52.2372 146.5,49C 146.833,48.6667 147.167,48.3333 147.5,48C 145.016,44.9173 143.349,41.4173 142.5,37.5C 137.443,31.4405 131.776,26.1072 125.5,21.5C 159.324,15.9287 190.324,22.5954 218.5,41.5 Z"/></g>
<g><path style="opacity:1" fill="#98d9a2" d="M 122.5,22.5 C 125.788,25.4493 129.121,28.4493 132.5,31.5C 133.763,34.6028 135.263,37.6028 137,40.5C 139,46.5 139,52.5 137,58.5C 136.56,56.9238 135.727,55.5904 134.5,54.5C 134.709,53.914 135.043,53.414 135.5,53C 134.711,50.733 134.044,48.3997 133.5,46C 131.502,42.9566 129.169,42.7899 126.5,45.5C 123.557,42.8196 123.89,42.153 127.5,43.5C 128.308,43.1924 128.975,42.6924 129.5,42C 126.483,38.7545 123.649,38.9211 121,42.5C 120.035,40.7397 118.868,40.4063 117.5,41.5C 118.025,42.1924 118.692,42.6924 119.5,43C 117.741,43.9804 116.074,44.647 114.5,45C 115.167,45.6667 115.833,46.3333 116.5,47C 116.815,48.9023 116.815,50.9023 116.5,53C 119.167,55.4091 119.001,56.5758 116,56.5C 114.667,54.5 113,52.8333 111,51.5C 109.272,53.1944 109.772,54.3611 112.5,55C 110.043,56.1544 110.043,57.4877 112.5,59C 111.584,59.3742 110.75,59.8742 110,60.5C 101.302,52.6335 92.8024,44.6335 84.5,36.5C 96.0708,29.0561 108.737,24.3895 122.5,22.5 Z"/></g>
<g><path style="opacity:1" fill="#afecad" d="M 218.5,41.5 C 220.795,42.4746 222.795,43.8079 224.5,45.5C 213.681,47.2772 203.014,50.7772 192.5,56C 180.915,63.816 181.582,65.6493 194.5,61.5C 190.211,65.4934 186.877,69.8267 184.5,74.5C 179.16,79.8665 173.827,85.1999 168.5,90.5C 168.167,90.5 167.833,90.5 167.5,90.5C 166.167,90.5 164.833,90.5 163.5,90.5C 161.987,89.6907 160.32,89.5241 158.5,90C 159.167,88.3333 159.833,86.6667 160.5,85C 158.562,78.9012 154.229,74.7345 147.5,72.5C 149.651,70.2277 151.151,67.561 152,64.5C 152.423,65.9561 153.256,66.4561 154.5,66C 155.167,64.6667 155.833,63.3333 156.5,62C 156.245,56.532 155.912,51.032 155.5,45.5C 154.566,43.7615 154.566,42.0948 155.5,40.5C 163.215,41.3698 170.715,41.7031 178,41.5C 181.466,40.798 184.966,40.1313 188.5,39.5C 189.5,40.1667 190.5,40.8333 191.5,41.5C 201.227,40.649 210.227,40.649 218.5,41.5 Z"/></g>
<g><path style="opacity:1" fill="#a0e0a2" d="M 125.5,21.5 C 131.776,26.1072 137.443,31.4405 142.5,37.5C 143.349,41.4173 145.016,44.9173 147.5,48C 147.167,48.3333 146.833,48.6667 146.5,49C 148.616,52.2372 149.95,55.7372 150.5,59.5C 149.883,61.2292 148.883,62.7292 147.5,64C 147.833,64.3333 148.167,64.6667 148.5,65C 145.221,66.1841 142.221,67.5175 139.5,69C 140.46,67.5806 141.293,66.0806 142,64.5C 142.333,64.8333 142.667,65.1667 143,65.5C 144.318,62.5698 144.985,59.5698 145,56.5C 142.758,59.9639 140.258,63.2973 137.5,66.5C 134.853,68.6053 131.853,69.9387 128.5,70.5C 121.762,73.022 115.262,76.022 109,79.5C 106.42,77.7465 103.587,76.7465 100.5,76.5C 100.649,75.448 100.483,74.448 100,73.5C 99.6667,73.8333 99.3333,74.1667 99,74.5C 95.4893,72.3236 91.6559,70.8236 87.5,70C 83.8901,68.056 80.5568,65.7226 77.5,63C 75.402,62.9861 73.5687,63.1528 72,63.5C 70.456,60.7364 69.2893,60.9031 68.5,64C 68.8333,64.3333 69.1667,64.6667 69.5,65C 68.0039,65.5074 66.8373,65.0074 66,63.5C 65.3333,64.1667 65.3333,64.8333 66,65.5C 67.3139,66.3128 68.4805,67.3128 69.5,68.5C 73.3621,67.7807 76.3621,69.2807 78.5,73C 75.3285,76.7068 73.4952,76.2068 73,71.5C 72.7508,72.624 72.2508,73.624 71.5,74.5C 69.7547,74.5238 67.9214,74.1905 66,73.5C 65.0546,73.9054 64.3879,74.572 64,75.5C 63.6827,73.6992 63.016,73.3659 62,74.5C 61.5172,73.552 61.3505,72.552 61.5,71.5C 58.0896,72.0653 54.923,71.0653 52,68.5C 51.3333,69.1667 50.6667,69.8333 50,70.5C 49.5831,69.244 48.7498,68.5774 47.5,68.5C 57.3907,54.9379 69.7241,44.2713 84.5,36.5C 92.8024,44.6335 101.302,52.6335 110,60.5C 110.75,59.8742 111.584,59.3742 112.5,59C 110.043,57.4877 110.043,56.1544 112.5,55C 109.772,54.3611 109.272,53.1944 111,51.5C 113,52.8333 114.667,54.5 116,56.5C 119.001,56.5758 119.167,55.4091 116.5,53C 116.815,50.9023 116.815,48.9023 116.5,47C 115.833,46.3333 115.167,45.6667 114.5,45C 116.074,44.647 117.741,43.9804 119.5,43C 118.692,42.6924 118.025,42.1924 117.5,41.5C 118.868,40.4063 120.035,40.7397 121,42.5C 123.649,38.9211 126.483,38.7545 129.5,42C 128.975,42.6924 128.308,43.1924 127.5,43.5C 123.89,42.153 123.557,42.8196 126.5,45.5C 129.169,42.7899 131.502,42.9566 133.5,46C 134.044,48.3997 134.711,50.733 135.5,53C 135.043,53.414 134.709,53.914 134.5,54.5C 135.727,55.5904 136.56,56.9238 137,58.5C 139,52.5 139,46.5 137,40.5C 135.263,37.6028 133.763,34.6028 132.5,31.5C 129.121,28.4493 125.788,25.4493 122.5,22.5C 123.391,21.8902 124.391,21.5569 125.5,21.5 Z"/></g>
<g><path style="opacity:1" fill="#ade7af" d="M 224.5,45.5 C 230.155,49.823 235.488,54.4897 240.5,59.5C 239.504,59.4142 238.671,59.7476 238,60.5C 234.249,57.8772 230.082,56.2106 225.5,55.5C 222.597,55.6937 219.763,55.6937 217,55.5C 211.555,56.7896 206.222,58.4563 201,60.5C 199.249,59.8263 197.583,59.493 196,59.5C 195.283,60.0442 194.783,60.7109 194.5,61.5C 181.582,65.6493 180.915,63.816 192.5,56C 203.014,50.7772 213.681,47.2772 224.5,45.5 Z"/></g>
<g><path style="opacity:1" fill="#a6e2a3" d="M 240.5,59.5 C 240.5,59.8333 240.5,60.1667 240.5,60.5C 239.286,62.6437 238.119,65.3103 237,68.5C 236,69.5 235,70.5 234,71.5C 233.676,69.4311 232.842,69.0977 231.5,70.5C 230.48,73.7421 228.813,76.5754 226.5,79C 227.13,80.892 228.13,82.5587 229.5,84C 228.448,88.2887 230.115,91.122 234.5,92.5C 232.565,93.709 230.565,93.5423 228.5,92C 226.036,88.9508 224.536,85.4508 224,81.5C 223.617,82.056 223.117,82.3893 222.5,82.5C 222.631,81.7611 222.464,81.0944 222,80.5C 220.836,80.1654 219.503,80.1654 218,80.5C 216.933,79.0569 215.766,77.7236 214.5,76.5C 214.709,75.914 215.043,75.414 215.5,75C 209.845,70.6854 203.845,70.352 197.5,74C 191.403,77.7986 185.569,81.9652 180,86.5C 180.372,84.8838 181.039,83.2171 182,81.5C 185.398,78.358 188.564,75.0247 191.5,71.5C 191.333,71.1667 191.167,70.8333 191,70.5C 189.429,72.9229 187.263,74.2562 184.5,74.5C 186.877,69.8267 190.211,65.4934 194.5,61.5C 194.783,60.7109 195.283,60.0442 196,59.5C 197.583,59.493 199.249,59.8263 201,60.5C 206.222,58.4563 211.555,56.7896 217,55.5C 219.763,55.6937 222.597,55.6937 225.5,55.5C 230.082,56.2106 234.249,57.8772 238,60.5C 238.671,59.7476 239.504,59.4142 240.5,59.5 Z"/></g>
<g><path style="opacity:1" fill="#afe6a5" d="M 128.5,70.5 C 121.496,74.3206 116.996,79.9873 115,87.5C 115.333,87.8333 115.667,88.1667 116,88.5C 117,87.1667 118,85.8333 119,84.5C 118.852,85.825 119.018,86.9916 119.5,88C 117.674,90.6569 115.674,93.1569 113.5,95.5C 112.29,95.9321 111.29,96.5987 110.5,97.5C 104.711,96.7587 99.0441,95.592 93.5,94C 92.2986,93.0975 91.4652,91.9308 91,90.5C 90.6667,90.8333 90.3333,91.1667 90,91.5C 88.6482,89.5676 86.8149,88.2343 84.5,87.5C 83.1667,87.5 81.8333,87.5 80.5,87.5C 79.4593,85.0087 78.6259,85.0087 78,87.5C 75.6148,85.4612 73.4482,85.4612 71.5,87.5C 69.8437,85.9776 68.677,86.311 68,88.5C 67.6924,87.6919 67.1924,87.0253 66.5,86.5C 65.0262,88.1487 63.1929,89.1487 61,89.5C 59.9895,89.1081 59.4895,88.4415 59.5,87.5C 57.5283,88.3052 56.0283,89.6385 55,91.5C 55.1349,89.5753 55.3016,87.5753 55.5,85.5C 54.5,85.5 53.5,85.5 52.5,85.5C 52.6567,86.8734 52.49,88.2068 52,89.5C 49.9952,88.9683 48.8286,89.9683 48.5,92.5C 45.1792,98.5822 41.5125,105.082 37.5,112C 36.5838,112.374 35.7504,112.874 35,113.5C 32.0916,112.715 29.2582,112.381 26.5,112.5C 25.7124,113.77 24.7124,114.77 23.5,115.5C 28.1019,97.9605 36.1019,82.2938 47.5,68.5C 48.7498,68.5774 49.5831,69.244 50,70.5C 50.6667,69.8333 51.3333,69.1667 52,68.5C 54.923,71.0653 58.0896,72.0653 61.5,71.5C 61.3505,72.552 61.5172,73.552 62,74.5C 63.016,73.3659 63.6827,73.6992 64,75.5C 64.3879,74.572 65.0546,73.9054 66,73.5C 67.9214,74.1905 69.7547,74.5238 71.5,74.5C 72.2508,73.624 72.7508,72.624 73,71.5C 73.4952,76.2068 75.3285,76.7068 78.5,73C 76.3621,69.2807 73.3621,67.7807 69.5,68.5C 68.4805,67.3128 67.3139,66.3128 66,65.5C 65.3333,64.8333 65.3333,64.1667 66,63.5C 66.8373,65.0074 68.0039,65.5074 69.5,65C 69.1667,64.6667 68.8333,64.3333 68.5,64C 69.2893,60.9031 70.456,60.7364 72,63.5C 73.5687,63.1528 75.402,62.9861 77.5,63C 80.5568,65.7226 83.8901,68.056 87.5,70C 91.6559,70.8236 95.4893,72.3236 99,74.5C 99.3333,74.1667 99.6667,73.8333 100,73.5C 100.483,74.448 100.649,75.448 100.5,76.5C 103.587,76.7465 106.42,77.7465 109,79.5C 115.262,76.022 121.762,73.022 128.5,70.5 Z"/></g>
<g><path style="opacity:1" fill="#b3e6ae" d="M 155.5,45.5 C 155.912,51.032 156.245,56.532 156.5,62C 155.833,63.3333 155.167,64.6667 154.5,66C 153.256,66.4561 152.423,65.9561 152,64.5C 151.151,67.561 149.651,70.2277 147.5,72.5C 154.229,74.7345 158.562,78.9012 160.5,85C 159.833,86.6667 159.167,88.3333 158.5,90C 160.32,89.5241 161.987,89.6907 163.5,90.5C 160.167,91.5 156.833,92.5 153.5,93.5C 153.472,91.4176 154.139,89.5843 155.5,88C 153.879,84.0473 151.213,81.0473 147.5,79C 143.998,78.718 140.665,78.5513 137.5,78.5C 138.76,77.6184 139.926,76.6184 141,75.5C 141.333,75.8333 141.667,76.1667 142,76.5C 142.374,75.5838 142.874,74.7504 143.5,74C 139.619,74.4265 135.953,75.7599 132.5,78C 128.369,80.7787 125.036,84.2787 122.5,88.5C 120.074,91.5622 117.074,93.8955 113.5,95.5C 115.674,93.1569 117.674,90.6569 119.5,88C 119.018,86.9916 118.852,85.825 119,84.5C 118,85.8333 117,87.1667 116,88.5C 115.667,88.1667 115.333,87.8333 115,87.5C 116.996,79.9873 121.496,74.3206 128.5,70.5C 131.853,69.9387 134.853,68.6053 137.5,66.5C 140.258,63.2973 142.758,59.9639 145,56.5C 144.985,59.5698 144.318,62.5698 143,65.5C 142.667,65.1667 142.333,64.8333 142,64.5C 141.293,66.0806 140.46,67.5806 139.5,69C 142.221,67.5175 145.221,66.1841 148.5,65C 148.167,64.6667 147.833,64.3333 147.5,64C 148.883,62.7292 149.883,61.2292 150.5,59.5C 151.74,55.3526 152.74,51.0193 153.5,46.5C 154.183,46.1373 154.85,45.8039 155.5,45.5 Z"/></g>
<g><path style="opacity:1" fill="#a0dd99" d="M 222.5,82.5 C 221.572,85.4535 220.739,88.4535 220,91.5C 218,88.8333 216,86.1667 214,83.5C 212.477,85.5692 211.643,87.9026 211.5,90.5C 210.532,92.6074 210.198,94.9407 210.5,97.5C 196.801,93.3602 182.801,91.0268 168.5,90.5C 173.827,85.1999 179.16,79.8665 184.5,74.5C 187.263,74.2562 189.429,72.9229 191,70.5C 191.167,70.8333 191.333,71.1667 191.5,71.5C 188.564,75.0247 185.398,78.358 182,81.5C 181.039,83.2171 180.372,84.8838 180,86.5C 185.569,81.9652 191.403,77.7986 197.5,74C 203.845,70.352 209.845,70.6854 215.5,75C 215.043,75.414 214.709,75.914 214.5,76.5C 215.766,77.7236 216.933,79.0569 218,80.5C 219.503,80.1654 220.836,80.1654 222,80.5C 222.464,81.0944 222.631,81.7611 222.5,82.5 Z"/></g>
<g><path style="opacity:1" fill="#b2e7a5" d="M 240.5,60.5 C 244.957,63.6187 248.291,67.6187 250.5,72.5C 249.241,76.0246 247.241,79.0246 244.5,81.5C 243.347,84.2165 243.347,87.2165 244.5,90.5C 243.735,90.0766 242.902,89.7432 242,89.5C 239.535,90.6513 237.035,91.6513 234.5,92.5C 230.115,91.122 228.448,88.2887 229.5,84C 228.13,82.5587 227.13,80.892 226.5,79C 228.813,76.5754 230.48,73.7421 231.5,70.5C 232.842,69.0977 233.676,69.4311 234,71.5C 235,70.5 236,69.5 237,68.5C 238.119,65.3103 239.286,62.6437 240.5,60.5 Z"/></g>
<g><path style="opacity:1" fill="#bfeca8" d="M 110.5,97.5 C 109.391,98.29 108.058,98.79 106.5,99C 107.025,99.6924 107.692,100.192 108.5,100.5C 110.106,100.519 111.772,100.353 113.5,100C 109.553,104.335 104.886,104.502 99.5,100.5C 97.6293,101.767 95.7959,101.767 94,100.5C 93.6924,101.308 93.1924,101.975 92.5,102.5C 89.8319,98.0678 85.6652,95.7345 80,95.5C 78.7292,94.1175 77.2292,93.1175 75.5,92.5C 72.8736,93.4215 70.2069,94.4215 67.5,95.5C 61.194,101.477 55.8607,108.144 51.5,115.5C 50.7702,112.787 50.7702,110.787 51.5,109.5C 53.6574,106.769 53.9907,104.102 52.5,101.5C 52.9767,100.522 53.6433,99.6891 54.5,99C 52.4616,97.764 51.2949,95.9306 51,93.5C 50.3292,92.7476 49.4959,92.4142 48.5,92.5C 48.8286,89.9683 49.9952,88.9683 52,89.5C 52.49,88.2068 52.6567,86.8734 52.5,85.5C 53.5,85.5 54.5,85.5 55.5,85.5C 55.3016,87.5753 55.1349,89.5753 55,91.5C 56.0283,89.6385 57.5283,88.3052 59.5,87.5C 59.4895,88.4415 59.9895,89.1081 61,89.5C 63.1929,89.1487 65.0262,88.1487 66.5,86.5C 67.1924,87.0253 67.6924,87.6919 68,88.5C 68.677,86.311 69.8437,85.9776 71.5,87.5C 73.4482,85.4612 75.6148,85.4612 78,87.5C 78.6259,85.0087 79.4593,85.0087 80.5,87.5C 81.8333,87.5 83.1667,87.5 84.5,87.5C 86.8149,88.2343 88.6482,89.5676 90,91.5C 90.3333,91.1667 90.6667,90.8333 91,90.5C 91.4652,91.9308 92.2986,93.0975 93.5,94C 99.0441,95.592 104.711,96.7587 110.5,97.5 Z"/></g>
<g><path style="opacity:1" fill="#d1f1b0" d="M 250.5,72.5 C 260.683,85.5364 267.683,100.203 271.5,116.5C 269.55,118.465 267.216,119.799 264.5,120.5C 259.068,129.101 251.068,133.434 240.5,133.5C 240.5,132.5 240.5,131.5 240.5,130.5C 244.41,130.737 248.077,129.904 251.5,128C 250.167,127.333 248.833,126.667 247.5,126C 253.311,122.646 253.811,118.813 249,114.5C 250.786,108.318 249.453,107.318 245,111.5C 244.51,110.207 244.343,108.873 244.5,107.5C 247.167,102.5 247.167,97.5 244.5,92.5C 244.5,91.8333 244.5,91.1667 244.5,90.5C 243.347,87.2165 243.347,84.2165 244.5,81.5C 247.241,79.0246 249.241,76.0246 250.5,72.5 Z"/></g>
<g><path style="opacity:1" fill="#c4ebb9" d="M 153.5,93.5 C 151.537,94.8202 149.537,96.1535 147.5,97.5C 147.781,95.0372 148.781,92.8705 150.5,91C 147.164,83.4928 141.831,81.8261 134.5,86C 128.581,93.188 122.914,100.521 117.5,108C 118.047,108.925 118.713,109.758 119.5,110.5C 123.572,110.581 127.406,109.247 131,106.5C 131.717,107.044 132.217,107.711 132.5,108.5C 129.833,111.167 127.167,113.833 124.5,116.5C 121.594,117.787 118.594,118.787 115.5,119.5C 114.761,119.631 114.094,119.464 113.5,119C 117.449,118.193 117.449,117.693 113.5,117.5C 115.663,116.531 117.996,115.698 120.5,115C 118.231,114.242 116.064,114.409 114,115.5C 111.667,114.587 109.834,113.087 108.5,111C 115.199,104.374 121.366,97.207 127,89.5C 127.667,88.8333 127.667,88.1667 127,87.5C 125,89.5 123,91.5 121,93.5C 121.134,91.8107 121.634,90.144 122.5,88.5C 125.036,84.2787 128.369,80.7787 132.5,78C 135.953,75.7599 139.619,74.4265 143.5,74C 142.874,74.7504 142.374,75.5838 142,76.5C 141.667,76.1667 141.333,75.8333 141,75.5C 139.926,76.6184 138.76,77.6184 137.5,78.5C 140.665,78.5513 143.998,78.718 147.5,79C 151.213,81.0473 153.879,84.0473 155.5,88C 154.139,89.5843 153.472,91.4176 153.5,93.5 Z"/></g>
<g><path style="opacity:1" fill="#cbedc1" d="M 147.5,97.5 C 142.219,100.78 137.219,104.447 132.5,108.5C 132.217,107.711 131.717,107.044 131,106.5C 127.406,109.247 123.572,110.581 119.5,110.5C 118.713,109.758 118.047,108.925 117.5,108C 122.914,100.521 128.581,93.188 134.5,86C 141.831,81.8261 147.164,83.4928 150.5,91C 148.781,92.8705 147.781,95.0372 147.5,97.5 Z"/></g>
<g><path style="opacity:1" fill="#0e5623" d="M 234.5,92.5 C 237.035,91.6513 239.535,90.6513 242,89.5C 242.902,89.7432 243.735,90.0766 244.5,90.5C 244.5,91.1667 244.5,91.8333 244.5,92.5C 241.643,94.7583 238.643,96.7583 235.5,98.5C 235.881,96.0582 235.214,95.3915 233.5,96.5C 227.736,92.2426 221.903,91.9093 216,95.5C 215.913,98.7067 215.746,101.707 215.5,104.5C 213.413,103.415 212.08,101.749 211.5,99.5C 211.5,96.5 211.5,93.5 211.5,90.5C 211.643,87.9026 212.477,85.5692 214,83.5C 216,86.1667 218,88.8333 220,91.5C 220.739,88.4535 221.572,85.4535 222.5,82.5C 223.117,82.3893 223.617,82.056 224,81.5C 224.536,85.4508 226.036,88.9508 228.5,92C 230.565,93.5423 232.565,93.709 234.5,92.5 Z"/></g>
<g><path style="opacity:1" fill="#227e3d" d="M 167.5,90.5 C 167.833,90.5 168.167,90.5 168.5,90.5C 182.801,91.0268 196.801,93.3602 210.5,97.5C 210.198,94.9407 210.532,92.6074 211.5,90.5C 211.5,93.5 211.5,96.5 211.5,99.5C 197.006,97.2505 182.673,94.9171 168.5,92.5C 168.167,91.8333 167.833,91.1667 167.5,90.5 Z"/></g>
<g><path style="opacity:1" fill="#136d2e" d="M 235.5,98.5 C 235.5,100.833 235.5,103.167 235.5,105.5C 235.737,106.791 235.404,107.791 234.5,108.5C 232.832,106.66 231.332,104.66 230,102.5C 226.29,104.357 222.457,106.023 218.5,107.5C 217.694,106.272 216.694,105.272 215.5,104.5C 215.746,101.707 215.913,98.7067 216,95.5C 221.903,91.9093 227.736,92.2426 233.5,96.5C 235.214,95.3915 235.881,96.0582 235.5,98.5 Z"/></g>
<g><path style="opacity:1" fill="#b1e09c" d="M 244.5,92.5 C 247.167,97.5 247.167,102.5 244.5,107.5C 243.662,107.842 243.328,108.508 243.5,109.5C 242.603,110.598 241.77,110.598 241,109.5C 240.536,110.094 240.369,110.761 240.5,111.5C 238.357,109.869 236.69,107.869 235.5,105.5C 235.5,103.167 235.5,100.833 235.5,98.5C 238.643,96.7583 241.643,94.7583 244.5,92.5 Z"/></g>
<g><path style="opacity:1" fill="#379e53" d="M 168.5,92.5 C 182.673,94.9171 197.006,97.2505 211.5,99.5C 212.08,101.749 213.413,103.415 215.5,104.5C 216.694,105.272 217.694,106.272 218.5,107.5C 218.5,108.5 218.5,109.5 218.5,110.5C 217.21,111.058 216.377,112.058 216,113.5C 214.988,110.798 213.488,108.465 211.5,106.5C 210.571,105.685 209.571,104.852 208.5,104C 194.476,99.87 180.643,96.37 167,93.5C 165.436,93.9121 163.936,94.2454 162.5,94.5C 163.918,92.6921 165.918,92.0254 168.5,92.5 Z"/></g>
<g><path style="opacity:1" fill="#52b86b" d="M 211.5,106.5 C 210.167,106.5 208.833,106.5 207.5,106.5C 206.942,105.21 205.942,104.377 204.5,104C 189.67,101.448 175.004,100.114 160.5,100C 163.642,98.982 163.976,97.8153 161.5,96.5C 159.901,96.7678 158.568,96.4345 157.5,95.5C 159.117,94.962 160.784,94.6287 162.5,94.5C 163.936,94.2454 165.436,93.9121 167,93.5C 180.643,96.37 194.476,99.87 208.5,104C 209.571,104.852 210.571,105.685 211.5,106.5 Z"/></g>
<g><path style="opacity:1" fill="#66a679" d="M 163.5,90.5 C 164.833,90.5 166.167,90.5 167.5,90.5C 167.833,91.1667 168.167,91.8333 168.5,92.5C 165.918,92.0254 163.918,92.6921 162.5,94.5C 160.784,94.6287 159.117,94.962 157.5,95.5C 151.578,96.5539 146.744,99.5539 143,104.5C 142.667,104.167 142.333,103.833 142,103.5C 138.049,108.186 133.883,112.52 129.5,116.5C 128.391,116.557 127.391,116.89 126.5,117.5C 126.158,116.662 125.492,116.328 124.5,116.5C 127.167,113.833 129.833,111.167 132.5,108.5C 137.219,104.447 142.219,100.78 147.5,97.5C 149.537,96.1535 151.537,94.8202 153.5,93.5C 156.833,92.5 160.167,91.5 163.5,90.5 Z"/></g>
<g><path style="opacity:1" fill="#0f401c" d="M 170.5,102.5 C 182.913,103.069 195.246,104.402 207.5,106.5C 208.458,107.962 209.624,109.295 211,110.5C 211.885,113.538 211.385,116.205 209.5,118.5C 207.621,118.607 207.288,118.107 208.5,117C 206.555,114.29 203.888,112.79 200.5,112.5C 199.5,111.833 198.5,111.167 197.5,110.5C 197.167,109.833 196.833,109.167 196.5,108.5C 196.082,107.778 195.416,107.278 194.5,107C 184.35,106.117 174.35,105.284 164.5,104.5C 166.698,104.125 168.698,103.458 170.5,102.5 Z"/></g>
<g><path style="opacity:1" fill="#caedb2" d="M 113.5,117.5 C 108.743,119.345 104.076,121.011 99.5,122.5C 97.4727,122.662 95.4727,122.495 93.5,122C 95.72,119.788 98.0533,118.622 100.5,118.5C 99.1097,116.797 97.6097,116.13 96,116.5C 93.5938,113.075 94.0938,110.241 97.5,108C 95.6711,107.727 94.1711,106.893 93,105.5C 89.9424,105.426 87.609,103.76 86,100.5C 85,100.833 84,101.167 83,101.5C 78.3054,99.4303 73.8054,99.5969 69.5,102C 70.8331,103.84 70.6665,104.34 69,103.5C 67.9882,105.864 66.6549,107.198 65,107.5C 64.2195,106.056 64.3861,104.723 65.5,103.5C 66.3957,104.506 67.0623,104.506 67.5,103.5C 66.6744,102.549 66.5078,101.549 67,100.5C 69.6667,99.1667 71.6667,97.1667 73,94.5C 74.6255,95.4119 75.4588,94.7453 75.5,92.5C 77.2292,93.1175 78.7292,94.1175 80,95.5C 85.6652,95.7345 89.8319,98.0678 92.5,102.5C 93.1924,101.975 93.6924,101.308 94,100.5C 95.7959,101.767 97.6293,101.767 99.5,100.5C 104.886,104.502 109.553,104.335 113.5,100C 111.772,100.353 110.106,100.519 108.5,100.5C 107.692,100.192 107.025,99.6924 106.5,99C 108.058,98.79 109.391,98.29 110.5,97.5C 111.29,96.5987 112.29,95.9321 113.5,95.5C 117.074,93.8955 120.074,91.5622 122.5,88.5C 121.634,90.144 121.134,91.8107 121,93.5C 123,91.5 125,89.5 127,87.5C 127.667,88.1667 127.667,88.8333 127,89.5C 121.366,97.207 115.199,104.374 108.5,111C 109.834,113.087 111.667,114.587 114,115.5C 116.064,114.409 118.231,114.242 120.5,115C 117.996,115.698 115.663,116.531 113.5,117.5 Z"/></g>
<g><path style="opacity:1" fill="#6fbb86" d="M 157.5,95.5 C 158.568,96.4345 159.901,96.7678 161.5,96.5C 160.653,97.9663 159.32,98.7996 157.5,99C 157.833,99.3333 158.167,99.6667 158.5,100C 155.277,101.126 152.111,101.293 149,100.5C 143.023,106.653 137.19,112.32 131.5,117.5C 130.833,117.167 130.167,116.833 129.5,116.5C 133.883,112.52 138.049,108.186 142,103.5C 142.333,103.833 142.667,104.167 143,104.5C 146.744,99.5539 151.578,96.5539 157.5,95.5 Z"/></g>
<g><path style="opacity:1" fill="#2d7c45" d="M 234.5,108.5 C 232.232,110.465 229.565,111.632 226.5,112C 227.167,112.333 227.833,112.667 228.5,113C 226.919,113.707 225.419,114.54 224,115.5C 222.981,114.313 221.814,113.313 220.5,112.5C 219.893,112.624 219.56,112.957 219.5,113.5C 218.596,112.791 218.263,111.791 218.5,110.5C 218.5,109.5 218.5,108.5 218.5,107.5C 222.457,106.023 226.29,104.357 230,102.5C 231.332,104.66 232.832,106.66 234.5,108.5 Z"/></g>
<g><path style="opacity:1" fill="#77ca8a" d="M 161.5,96.5 C 163.976,97.8153 163.642,98.982 160.5,100C 175.004,100.114 189.67,101.448 204.5,104C 205.942,104.377 206.942,105.21 207.5,106.5C 195.246,104.402 182.913,103.069 170.5,102.5C 166.123,102.577 161.79,103.077 157.5,104C 154.791,104.541 152.791,106.041 151.5,108.5C 149.205,109.432 146.871,110.265 144.5,111C 140.901,114.761 137.901,118.928 135.5,123.5C 130.444,128.365 124.444,131.699 117.5,133.5C 117.389,132.883 117.056,132.383 116.5,132C 118.972,130.54 121.639,129.54 124.5,129C 125.126,128.25 125.626,127.416 126,126.5C 127.873,127.089 129.54,126.422 131,124.5C 132.404,122.606 133.57,120.606 134.5,118.5C 134.333,117.833 134.167,117.167 134,116.5C 133.081,119.402 132.248,119.735 131.5,117.5C 137.19,112.32 143.023,106.653 149,100.5C 152.111,101.293 155.277,101.126 158.5,100C 158.167,99.6667 157.833,99.3333 157.5,99C 159.32,98.7996 160.653,97.9663 161.5,96.5 Z"/></g>
<g><path style="opacity:1" fill="#5b7d43" d="M 166.5,108.5 C 176.352,107.258 186.352,107.258 196.5,108.5C 196.833,109.167 197.167,109.833 197.5,110.5C 193.158,110.261 188.824,109.927 184.5,109.5C 178.69,108.51 172.69,108.177 166.5,108.5 Z"/></g>
<g><path style="opacity:1" fill="#3e653e" d="M 164.5,104.5 C 174.35,105.284 184.35,106.117 194.5,107C 195.416,107.278 196.082,107.778 196.5,108.5C 186.352,107.258 176.352,107.258 166.5,108.5C 164.614,109.065 162.947,110.065 161.5,111.5C 162.325,113.801 162.992,116.135 163.5,118.5C 161.767,119.008 161.434,119.841 162.5,121C 161.552,121.483 160.552,121.649 159.5,121.5C 159.66,119.801 159.494,118.134 159,116.5C 157.667,115.167 156.333,115.167 155,116.5C 154.506,118.134 154.34,119.801 154.5,121.5C 155.833,121.5 157.167,121.5 158.5,121.5C 156.44,122.811 154.274,122.811 152,121.5C 151.506,123.134 151.34,124.801 151.5,126.5C 151.167,126.5 150.833,126.5 150.5,126.5C 150.5,125.167 150.5,123.833 150.5,122.5C 150.5,121.833 150.5,121.167 150.5,120.5C 151.234,119.292 151.567,117.959 151.5,116.5C 149.217,116.608 147.217,117.441 145.5,119C 143.271,121.4 140.937,123.567 138.5,125.5C 138.737,124.209 138.404,123.209 137.5,122.5C 145.407,114.939 154.407,108.939 164.5,104.5 Z"/></g>
<g><path style="opacity:1" fill="#8aa371" d="M 166.5,108.5 C 172.69,108.177 178.69,108.51 184.5,109.5C 182.901,109.232 181.568,109.566 180.5,110.5C 175.087,110.229 169.754,110.729 164.5,112C 163.667,114.081 163.667,116.248 164.5,118.5C 164.167,118.5 163.833,118.5 163.5,118.5C 162.992,116.135 162.325,113.801 161.5,111.5C 162.947,110.065 164.614,109.065 166.5,108.5 Z"/></g>
<g><path style="opacity:1" fill="#8cd399" d="M 170.5,102.5 C 168.698,103.458 166.698,104.125 164.5,104.5C 154.407,108.939 145.407,114.939 137.5,122.5C 136.833,122.833 136.167,123.167 135.5,123.5C 137.901,118.928 140.901,114.761 144.5,111C 146.871,110.265 149.205,109.432 151.5,108.5C 152.791,106.041 154.791,104.541 157.5,104C 161.79,103.077 166.123,102.577 170.5,102.5 Z"/></g>
<g><path style="opacity:1" fill="#b7e99e" d="M 48.5,92.5 C 49.4959,92.4142 50.3292,92.7476 51,93.5C 51.2949,95.9306 52.4616,97.764 54.5,99C 53.6433,99.6891 52.9767,100.522 52.5,101.5C 53.9907,104.102 53.6574,106.769 51.5,109.5C 49.0078,111.28 47.3411,113.78 46.5,117C 45.3098,120.574 44.9765,124.074 45.5,127.5C 43.9459,126.307 42.2792,125.14 40.5,124C 40.8333,123.667 41.1667,123.333 41.5,123C 39.1728,121.004 37.6728,118.504 37,115.5C 35.908,118.044 35.2414,120.711 35,123.5C 34.3457,122.304 33.8457,122.304 33.5,123.5C 35.7272,127.192 36.5605,131.192 36,135.5C 32.875,135.923 29.7083,136.257 26.5,136.5C 24.7583,134.027 22.925,134.027 21,136.5C 20.8138,139.036 20.3138,141.369 19.5,143.5C 19.6682,133.994 21.0016,124.661 23.5,115.5C 24.7124,114.77 25.7124,113.77 26.5,112.5C 29.2582,112.381 32.0916,112.715 35,113.5C 35.7504,112.874 36.5838,112.374 37.5,112C 41.5125,105.082 45.1792,98.5822 48.5,92.5 Z"/></g>
<g><path style="opacity:1" fill="#8faf5f" d="M 180.5,110.5 C 181.568,109.566 182.901,109.232 184.5,109.5C 188.824,109.927 193.158,110.261 197.5,110.5C 198.5,111.167 199.5,111.833 200.5,112.5C 200.733,114.062 201.4,115.395 202.5,116.5C 200.676,114.977 198.51,113.977 196,113.5C 194.319,113.608 193.152,114.275 192.5,115.5C 190.18,113.774 187.513,113.107 184.5,113.5C 183.789,111.799 182.455,110.799 180.5,110.5 Z"/></g>
<g><path style="opacity:1" fill="#ccdaa2" d="M 180.5,110.5 C 182.455,110.799 183.789,111.799 184.5,113.5C 183.4,114.605 182.733,115.938 182.5,117.5C 180.874,120.246 180.207,123.246 180.5,126.5C 179.356,122.648 179.356,118.648 180.5,114.5C 175.873,114.2 171.206,114.7 166.5,116C 165.712,119.076 165.212,122.242 165,125.5C 164.617,126.056 164.117,126.389 163.5,126.5C 164.265,123.904 164.599,121.237 164.5,118.5C 163.667,116.248 163.667,114.081 164.5,112C 169.754,110.729 175.087,110.229 180.5,110.5 Z"/></g>
<g><path style="opacity:1" fill="#519756" d="M 184.5,113.5 C 187.513,113.107 190.18,113.774 192.5,115.5C 192.5,116.167 192.5,116.833 192.5,117.5C 189.167,114.833 185.833,114.833 182.5,117.5C 182.733,115.938 183.4,114.605 184.5,113.5 Z"/></g>
<g><path style="opacity:1" fill="#4d815d" d="M 235.5,105.5 C 236.69,107.869 238.357,109.869 240.5,111.5C 241.751,112.472 241.418,113.139 239.5,113.5C 237.235,113.06 235.068,112.394 233,111.5C 232.736,115.696 234.236,119.196 237.5,122C 233.237,122.434 229.237,121.601 225.5,119.5C 224.29,119.068 223.29,118.401 222.5,117.5C 221.71,116.599 220.71,115.932 219.5,115.5C 219.5,114.833 219.5,114.167 219.5,113.5C 219.56,112.957 219.893,112.624 220.5,112.5C 221.814,113.313 222.981,114.313 224,115.5C 225.419,114.54 226.919,113.707 228.5,113C 227.833,112.667 227.167,112.333 226.5,112C 229.565,111.632 232.232,110.465 234.5,108.5C 235.404,107.791 235.737,106.791 235.5,105.5 Z"/></g>
<g><path style="opacity:1" fill="#e8ebb8" d="M 180.5,126.5 C 181.478,131.481 184.478,133.815 189.5,133.5C 187.372,134.629 185.039,134.796 182.5,134C 180.833,131.667 179.167,129.333 177.5,127C 178.433,125.392 177.767,124.559 175.5,124.5C 173.267,125.615 171.101,125.615 169,124.5C 165.885,126.647 163.052,129.147 160.5,132C 158.866,132.494 157.199,132.66 155.5,132.5C 152.034,132.032 150.368,130.032 150.5,126.5C 150.833,126.5 151.167,126.5 151.5,126.5C 155.263,133.102 159.263,133.102 163.5,126.5C 164.117,126.389 164.617,126.056 165,125.5C 165.212,122.242 165.712,119.076 166.5,116C 171.206,114.7 175.873,114.2 180.5,114.5C 179.356,118.648 179.356,122.648 180.5,126.5 Z"/></g>
<g><path style="opacity:1" fill="#b5e0ac" d="M 243.5,109.5 C 241.904,114.456 240.404,119.456 239,124.5C 238.264,127.592 238.431,130.592 239.5,133.5C 237.742,133.123 236.075,132.456 234.5,131.5C 233.602,136.852 231.602,136.852 228.5,131.5C 226.672,134.056 225.338,133.723 224.5,130.5C 225.598,129.399 225.765,128.066 225,126.5C 224.094,129.121 223.594,128.954 223.5,126C 224.033,123.774 224.7,121.607 225.5,119.5C 229.237,121.601 233.237,122.434 237.5,122C 234.236,119.196 232.736,115.696 233,111.5C 235.068,112.394 237.235,113.06 239.5,113.5C 241.418,113.139 241.751,112.472 240.5,111.5C 240.369,110.761 240.536,110.094 241,109.5C 241.77,110.598 242.603,110.598 243.5,109.5 Z"/></g>
<g><path style="opacity:1" fill="#cef0aa" d="M 75.5,92.5 C 75.4588,94.7453 74.6255,95.4119 73,94.5C 71.6667,97.1667 69.6667,99.1667 67,100.5C 66.5078,101.549 66.6744,102.549 67.5,103.5C 67.0623,104.506 66.3957,104.506 65.5,103.5C 64.3861,104.723 64.2195,106.056 65,107.5C 66.6549,107.198 67.9882,105.864 69,103.5C 70.6665,104.34 70.8331,103.84 69.5,102C 73.8054,99.5969 78.3054,99.4303 83,101.5C 84,101.167 85,100.833 86,100.5C 87.609,103.76 89.9424,105.426 93,105.5C 94.1711,106.893 95.6711,107.727 97.5,108C 94.0938,110.241 93.5938,113.075 96,116.5C 97.6097,116.13 99.1097,116.797 100.5,118.5C 98.0533,118.622 95.72,119.788 93.5,122C 95.4727,122.495 97.4727,122.662 99.5,122.5C 92.4204,125.958 85.2537,129.625 78,133.5C 75.5017,132.879 73.1684,133.545 71,135.5C 68.1545,134.285 65.3212,133.285 62.5,132.5C 61.914,132.709 61.414,133.043 61,133.5C 58.6667,131.5 56.3333,129.5 54,127.5C 53.3828,126.551 53.5494,125.718 54.5,125C 52.8839,124.385 51.5505,123.385 50.5,122C 50.3931,119.58 50.7265,117.413 51.5,115.5C 55.8607,108.144 61.194,101.477 67.5,95.5C 70.2069,94.4215 72.8736,93.4215 75.5,92.5 Z"/></g>
<g><path style="opacity:1" fill="#d2ddd4" d="M 159.5,121.5 C 159.167,121.5 158.833,121.5 158.5,121.5C 157.167,121.5 155.833,121.5 154.5,121.5C 154.34,119.801 154.506,118.134 155,116.5C 156.333,115.167 157.667,115.167 159,116.5C 159.494,118.134 159.66,119.801 159.5,121.5 Z"/></g>
<g><path style="opacity:1" fill="#16562a" d="M 200.5,112.5 C 203.888,112.79 206.555,114.29 208.5,117C 207.288,118.107 207.621,118.607 209.5,118.5C 208.935,122.537 207.601,126.203 205.5,129.5C 205.802,126.941 205.468,124.607 204.5,122.5C 204.204,120.597 203.537,118.93 202.5,117.5C 202.5,117.167 202.5,116.833 202.5,116.5C 201.4,115.395 200.733,114.062 200.5,112.5 Z"/></g>
<g><path style="opacity:1" fill="#64884b" d="M 150.5,120.5 C 149.448,120.351 148.448,120.517 147.5,121C 144.588,124.419 141.254,127.252 137.5,129.5C 137.232,127.901 137.566,126.568 138.5,125.5C 140.937,123.567 143.271,121.4 145.5,119C 147.217,117.441 149.217,116.608 151.5,116.5C 151.567,117.959 151.234,119.292 150.5,120.5 Z"/></g>
<g><path style="opacity:1" fill="#c2eba1" d="M 51.5,109.5 C 50.7702,110.787 50.7702,112.787 51.5,115.5C 50.7265,117.413 50.3931,119.58 50.5,122C 51.5505,123.385 52.8839,124.385 54.5,125C 53.5494,125.718 53.3828,126.551 54,127.5C 56.3333,129.5 58.6667,131.5 61,133.5C 61.414,133.043 61.914,132.709 62.5,132.5C 65.3212,133.285 68.1545,134.285 71,135.5C 73.1684,133.545 75.5017,132.879 78,133.5C 85.2537,129.625 92.4204,125.958 99.5,122.5C 104.076,121.011 108.743,119.345 113.5,117.5C 117.449,117.693 117.449,118.193 113.5,119C 114.094,119.464 114.761,119.631 115.5,119.5C 105.646,122.961 95.9798,127.127 86.5,132C 83.6693,134.001 81.0026,136.167 78.5,138.5C 75.2198,140.14 71.8864,141.807 68.5,143.5C 67.1667,142.833 67.1667,142.167 68.5,141.5C 70.1667,140.667 71.8333,139.833 73.5,139C 63.0211,140.558 53.6877,137.891 45.5,131C 44.3157,129.855 44.3157,128.688 45.5,127.5C 44.9765,124.074 45.3098,120.574 46.5,117C 47.3411,113.78 49.0078,111.28 51.5,109.5 Z"/></g>
<g><path style="opacity:1" fill="#49a664" d="M 126.5,117.5 C 125.925,119.411 124.925,121.078 123.5,122.5C 120.975,123.681 118.475,125.014 116,126.5C 114.249,125.826 112.583,125.493 111,125.5C 110.722,126.416 110.222,127.082 109.5,127.5C 107.374,126.897 105.041,126.897 102.5,127.5C 110.509,124.99 118.509,121.656 126.5,117.5 Z"/></g>
<g><path style="opacity:1" fill="#cdebb6" d="M 244.5,107.5 C 244.343,108.873 244.51,110.207 245,111.5C 249.453,107.318 250.786,108.318 249,114.5C 253.811,118.813 253.311,122.646 247.5,126C 248.833,126.667 250.167,127.333 251.5,128C 248.077,129.904 244.41,130.737 240.5,130.5C 240.5,131.5 240.5,132.5 240.5,133.5C 240.167,133.5 239.833,133.5 239.5,133.5C 238.431,130.592 238.264,127.592 239,124.5C 240.404,119.456 241.904,114.456 243.5,109.5C 243.328,108.508 243.662,107.842 244.5,107.5 Z"/></g>
<g><path style="opacity:1" fill="#c4eba5" d="M 271.5,116.5 C 274.24,125.274 275.573,134.274 275.5,143.5C 274.521,140.375 274.187,137.042 274.5,133.5C 263.809,135.34 253.142,137.506 242.5,140C 243.167,140.333 243.833,140.667 244.5,141C 243.359,141.741 243.359,142.575 244.5,143.5C 243.833,143.833 243.167,144.167 242.5,144.5C 240.481,143.86 238.647,143.86 237,144.5C 234.61,143.109 232.943,141.109 232,138.5C 231.612,139.428 230.945,140.095 230,140.5C 228.357,139.685 226.857,138.685 225.5,137.5C 224.559,135.95 223.893,134.284 223.5,132.5C 223.246,130.599 223.58,129.933 224.5,130.5C 225.338,133.723 226.672,134.056 228.5,131.5C 231.602,136.852 233.602,136.852 234.5,131.5C 236.075,132.456 237.742,133.123 239.5,133.5C 239.833,133.5 240.167,133.5 240.5,133.5C 251.068,133.434 259.068,129.101 264.5,120.5C 267.216,119.799 269.55,118.465 271.5,116.5 Z"/></g>
<g><path style="opacity:1" fill="#1b4f21" d="M 192.5,117.5 C 193.167,119.167 193.833,120.833 194.5,122.5C 194.559,127.005 192.892,130.671 189.5,133.5C 184.478,133.815 181.478,131.481 180.5,126.5C 180.207,123.246 180.874,120.246 182.5,117.5C 185.833,114.833 189.167,114.833 192.5,117.5 Z"/></g>
<g><path style="opacity:1" fill="#e0e7e0" d="M 185.5,117.5 C 189.068,117.759 190.401,119.759 189.5,123.5C 187.833,123.5 186.167,123.5 184.5,123.5C 184.325,121.379 184.659,119.379 185.5,117.5 Z"/></g>
<g><path style="opacity:1" fill="#6bc57d" d="M 129.5,116.5 C 130.167,116.833 130.833,117.167 131.5,117.5C 132.248,119.735 133.081,119.402 134,116.5C 134.167,117.167 134.333,117.833 134.5,118.5C 133.57,120.606 132.404,122.606 131,124.5C 129.54,126.422 127.873,127.089 126,126.5C 125.626,127.416 125.126,128.25 124.5,129C 121.639,129.54 118.972,130.54 116.5,132C 117.056,132.383 117.389,132.883 117.5,133.5C 107.532,136.651 98.1983,141.151 89.5,147C 82.5615,154.707 77.5615,163.541 74.5,173.5C 74.4431,174.609 74.1098,175.609 73.5,176.5C 72.5655,175.432 72.2322,174.099 72.5,172.5C 74.2238,168.862 76.0571,165.195 78,161.5C 78.4193,156.417 80.2526,151.917 83.5,148C 89.8771,143.319 96.3771,138.819 103,134.5C 112.135,133.683 119.635,129.85 125.5,123C 124.906,122.536 124.239,122.369 123.5,122.5C 124.925,121.078 125.925,119.411 126.5,117.5C 127.391,116.89 128.391,116.557 129.5,116.5 Z"/></g>
<g><path style="opacity:1" fill="#95d198" d="M 222.5,117.5 C 223.29,118.401 224.29,119.068 225.5,119.5C 224.7,121.607 224.033,123.774 223.5,126C 223.594,128.954 224.094,129.121 225,126.5C 225.765,128.066 225.598,129.399 224.5,130.5C 223.58,129.933 223.246,130.599 223.5,132.5C 222.732,133.263 222.232,134.263 222,135.5C 221.722,134.584 221.222,133.918 220.5,133.5C 220.073,130.99 219.407,128.657 218.5,126.5C 219.084,123.997 219.751,121.497 220.5,119C 220.836,117.97 221.503,117.47 222.5,117.5 Z"/></g>
<g><path style="opacity:1" fill="#8db45a" d="M 150.5,120.5 C 150.5,121.167 150.5,121.833 150.5,122.5C 149.508,122.328 148.842,122.662 148.5,123.5C 146.915,124.533 145.581,125.866 144.5,127.5C 142.861,128.473 141.527,129.806 140.5,131.5C 139.833,131.5 139.167,131.5 138.5,131.5C 138.167,131.5 137.833,131.5 137.5,131.5C 137.5,131.167 137.5,130.833 137.5,130.5C 137.5,130.167 137.5,129.833 137.5,129.5C 141.254,127.252 144.588,124.419 147.5,121C 148.448,120.517 149.448,120.351 150.5,120.5 Z"/></g>
<g><path style="opacity:1" fill="#033b17" d="M 137.5,122.5 C 138.404,123.209 138.737,124.209 138.5,125.5C 137.566,126.568 137.232,127.901 137.5,129.5C 137.5,129.833 137.5,130.167 137.5,130.5C 135.644,134.291 132.644,136.957 128.5,138.5C 128.167,138.5 127.833,138.5 127.5,138.5C 127.158,137.662 126.492,137.328 125.5,137.5C 122.921,135.975 120.254,134.641 117.5,133.5C 124.444,131.699 130.444,128.365 135.5,123.5C 136.167,123.167 136.833,122.833 137.5,122.5 Z"/></g>
<g><path style="opacity:1" fill="#194f24" d="M 163.5,118.5 C 163.833,118.5 164.167,118.5 164.5,118.5C 164.599,121.237 164.265,123.904 163.5,126.5C 159.263,133.102 155.263,133.102 151.5,126.5C 151.34,124.801 151.506,123.134 152,121.5C 154.274,122.811 156.44,122.811 158.5,121.5C 158.833,121.5 159.167,121.5 159.5,121.5C 160.552,121.649 161.552,121.483 162.5,121C 161.434,119.841 161.767,119.008 163.5,118.5 Z"/></g>
<g><path style="opacity:1" fill="#dde49b" d="M 194.5,122.5 C 195.621,125.591 195.287,128.591 193.5,131.5C 191.944,134.552 189.444,136.218 186,136.5C 182.987,135.833 180.154,134.667 177.5,133C 169.993,133.088 162.659,132.921 155.5,132.5C 157.199,132.66 158.866,132.494 160.5,132C 163.052,129.147 165.885,126.647 169,124.5C 171.101,125.615 173.267,125.615 175.5,124.5C 177.767,124.559 178.433,125.392 177.5,127C 179.167,129.333 180.833,131.667 182.5,134C 185.039,134.796 187.372,134.629 189.5,133.5C 192.892,130.671 194.559,127.005 194.5,122.5 Z"/></g>
<g><path style="opacity:1" fill="#428b57" d="M 219.5,115.5 C 220.71,115.932 221.71,116.599 222.5,117.5C 221.503,117.47 220.836,117.97 220.5,119C 219.751,121.497 219.084,123.997 218.5,126.5C 217.795,129.354 216.795,132.021 215.5,134.5C 214.167,135.167 212.833,135.833 211.5,136.5C 210.833,136.5 210.167,136.5 209.5,136.5C 210.248,134.668 211.248,133.001 212.5,131.5C 214.83,128.427 216.497,124.927 217.5,121C 216.066,118.472 216.733,116.638 219.5,115.5 Z"/></g>
<g><path style="opacity:1" fill="#cddd80" d="M 150.5,122.5 C 150.5,123.833 150.5,125.167 150.5,126.5C 150.368,130.032 152.034,132.032 155.5,132.5C 162.659,132.921 169.993,133.088 177.5,133C 180.154,134.667 182.987,135.833 186,136.5C 189.444,136.218 191.944,134.552 193.5,131.5C 193.099,135.07 191.099,137.236 187.5,138C 177.021,141.656 166.688,141.323 156.5,137C 154.023,135.357 151.69,133.524 149.5,131.5C 148.607,128.916 148.274,126.249 148.5,123.5C 148.842,122.662 149.508,122.328 150.5,122.5 Z"/></g>
<g><path style="opacity:1" fill="#bae897" d="M 45.5,127.5 C 44.3157,128.688 44.3157,129.855 45.5,131C 53.6877,137.891 63.0211,140.558 73.5,139C 71.8333,139.833 70.1667,140.667 68.5,141.5C 67.1667,142.167 67.1667,142.833 68.5,143.5C 71.8864,141.807 75.2198,140.14 78.5,138.5C 76.7451,141.68 74.7451,144.68 72.5,147.5C 68.5748,150.628 65.5748,154.628 63.5,159.5C 62.9033,159.265 62.5699,158.765 62.5,158C 63.5038,156.202 64.0038,154.368 64,152.5C 60.8414,155.456 57.6748,158.456 54.5,161.5C 53.8333,161.167 53.1667,160.833 52.5,160.5C 50.6381,161.59 48.8048,162.59 47,163.5C 37.8915,162.974 29.0581,162.64 20.5,162.5C 19.6279,156.211 19.2946,149.878 19.5,143.5C 20.3138,141.369 20.8138,139.036 21,136.5C 22.925,134.027 24.7583,134.027 26.5,136.5C 29.7083,136.257 32.875,135.923 36,135.5C 36.5605,131.192 35.7272,127.192 33.5,123.5C 33.8457,122.304 34.3457,122.304 35,123.5C 35.2414,120.711 35.908,118.044 37,115.5C 37.6728,118.504 39.1728,121.004 41.5,123C 41.1667,123.333 40.8333,123.667 40.5,124C 42.2792,125.14 43.9459,126.307 45.5,127.5 Z"/></g>
<g><path style="opacity:1" fill="#7aa649" d="M 202.5,117.5 C 203.537,118.93 204.204,120.597 204.5,122.5C 203.244,127.446 202.077,132.446 201,137.5C 199.301,139.696 197.467,141.696 195.5,143.5C 196.38,140.738 197.546,138.071 199,135.5C 199.495,133.527 199.662,131.527 199.5,129.5C 201.95,125.988 202.95,121.988 202.5,117.5 Z"/></g>
<g><path style="opacity:1" fill="#4cb667" d="M 123.5,122.5 C 124.239,122.369 124.906,122.536 125.5,123C 119.635,129.85 112.135,133.683 103,134.5C 96.3771,138.819 89.8771,143.319 83.5,148C 80.2526,151.917 78.4193,156.417 78,161.5C 76.0571,165.195 74.2238,168.862 72.5,172.5C 68.6664,178.305 67.6664,184.638 69.5,191.5C 68.8826,191.389 68.3826,191.056 68,190.5C 67.3333,186.5 67.3333,182.5 68,178.5C 70.7847,172.813 72.7847,166.813 74,160.5C 77.2505,155.001 80.2505,149.334 83,143.5C 87.842,139.287 93.6754,135.787 100.5,133C 102.321,130.362 105.321,128.529 109.5,127.5C 110.222,127.082 110.722,126.416 111,125.5C 112.583,125.493 114.249,125.826 116,126.5C 118.475,125.014 120.975,123.681 123.5,122.5 Z"/></g>
<g><path style="opacity:1" fill="#a2cd55" d="M 144.5,127.5 C 145.497,127.47 146.164,127.97 146.5,129C 146.382,130.899 146.882,132.733 148,134.5C 148.333,134.167 148.667,133.833 149,133.5C 150.532,136.524 152.699,139.024 155.5,141C 152.833,141.667 152.833,142.333 155.5,143C 155.634,144.545 155.3,146.212 154.5,148C 156.1,150.911 158.1,153.411 160.5,155.5C 157.738,154.62 155.071,153.454 152.5,152C 148.939,148.609 145.606,145.109 142.5,141.5C 141.198,138.292 140.531,134.959 140.5,131.5C 141.527,129.806 142.861,128.473 144.5,127.5 Z"/></g>
<g><path style="opacity:1" fill="#b4d16c" d="M 202.5,116.5 C 202.5,116.833 202.5,117.167 202.5,117.5C 202.95,121.988 201.95,125.988 199.5,129.5C 195.606,135.197 190.272,139.363 183.5,142C 184.729,145.8 184.729,149.633 183.5,153.5C 180.658,155.017 177.658,156.017 174.5,156.5C 171.287,156.81 168.287,156.477 165.5,155.5C 163.833,155.5 162.167,155.5 160.5,155.5C 158.1,153.411 156.1,150.911 154.5,148C 155.3,146.212 155.634,144.545 155.5,143C 152.833,142.333 152.833,141.667 155.5,141C 152.699,139.024 150.532,136.524 149,133.5C 148.667,133.833 148.333,134.167 148,134.5C 146.882,132.733 146.382,130.899 146.5,129C 146.164,127.97 145.497,127.47 144.5,127.5C 145.581,125.866 146.915,124.533 148.5,123.5C 148.274,126.249 148.607,128.916 149.5,131.5C 151.69,133.524 154.023,135.357 156.5,137C 166.688,141.323 177.021,141.656 187.5,138C 191.099,137.236 193.099,135.07 193.5,131.5C 195.287,128.591 195.621,125.591 194.5,122.5C 193.833,120.833 193.167,119.167 192.5,117.5C 192.5,116.833 192.5,116.167 192.5,115.5C 193.152,114.275 194.319,113.608 196,113.5C 198.51,113.977 200.676,114.977 202.5,116.5 Z"/></g>
<g><path style="opacity:1" fill="#489150" d="M 182.5,144.5 C 174.505,144.065 166.505,143.731 158.5,143.5C 160.048,142.206 162.048,141.539 164.5,141.5C 170.941,141.514 176.941,142.514 182.5,144.5 Z"/></g>
<g><path style="opacity:1" fill="#a0c451" d="M 199.5,129.5 C 199.662,131.527 199.495,133.527 199,135.5C 197.546,138.071 196.38,140.738 195.5,143.5C 192.426,147.904 188.426,151.237 183.5,153.5C 184.729,149.633 184.729,145.8 183.5,142C 190.272,139.363 195.606,135.197 199.5,129.5 Z"/></g>
<g><path style="opacity:1" fill="#bae896" d="M 275.5,143.5 C 275.705,149.878 275.372,156.211 274.5,162.5C 262.447,162.69 250.614,163.024 239,163.5C 237.518,161.219 235.851,161.219 234,163.5C 232.245,162.33 231.245,160.663 231,158.5C 228.979,159.236 227.479,158.403 226.5,156C 226.452,153.223 226.618,150.389 227,147.5C 225.615,148.551 224.615,149.884 224,151.5C 223.399,154.637 222.399,157.637 221,160.5C 220.517,159.552 220.351,158.552 220.5,157.5C 220.677,150.416 222.344,143.749 225.5,137.5C 226.857,138.685 228.357,139.685 230,140.5C 230.945,140.095 231.612,139.428 232,138.5C 232.943,141.109 234.61,143.109 237,144.5C 238.647,143.86 240.481,143.86 242.5,144.5C 243.167,144.167 243.833,143.833 244.5,143.5C 243.359,142.575 243.359,141.741 244.5,141C 243.833,140.667 243.167,140.333 242.5,140C 253.142,137.506 263.809,135.34 274.5,133.5C 274.187,137.042 274.521,140.375 275.5,143.5 Z"/></g>
<g><path style="opacity:1" fill="#86a064" d="M 125.5,137.5 C 126.492,137.328 127.158,137.662 127.5,138.5C 123.418,139.079 119.752,140.412 116.5,142.5C 111.963,144.155 107.296,145.655 102.5,147C 100.681,147.74 99.3479,148.907 98.5,150.5C 96.4178,149.415 96.0844,147.915 97.5,146C 106.275,141.465 115.608,138.632 125.5,137.5 Z"/></g>
<g><path style="opacity:1" fill="#346627" d="M 182.5,148.5 C 182.167,149.167 181.833,149.833 181.5,150.5C 181.167,150.5 180.833,150.5 180.5,150.5C 174.072,149.034 167.405,147.701 160.5,146.5C 167.142,145.336 173.808,145.169 180.5,146C 181.066,146.995 181.733,147.828 182.5,148.5 Z"/></g>
<g><path style="opacity:1" fill="#1d7c38" d="M 209.5,136.5 C 210.167,136.5 210.833,136.5 211.5,136.5C 209.56,142.871 206.893,148.371 203.5,153C 203.833,153.333 204.167,153.667 204.5,154C 202.651,155.093 200.984,156.426 199.5,158C 200.258,159.364 199.758,160.531 198,161.5C 197.667,161.167 197.333,160.833 197,160.5C 194.693,161.833 192.859,163.666 191.5,166C 190.24,167.113 189.073,167.28 188,166.5C 186.218,169.235 183.885,170.235 181,169.5C 180.676,171.569 179.842,171.902 178.5,170.5C 177.5,171 176.5,171.5 175.5,172C 176.696,172.654 176.696,173.154 175.5,173.5C 174.833,173.167 174.167,172.833 173.5,172.5C 173.167,173.167 172.833,173.833 172.5,174.5C 171.158,173.098 170.324,173.431 170,175.5C 160.764,176.553 153.264,180.886 147.5,188.5C 147.649,187.448 147.483,186.448 147,185.5C 146.417,187.002 145.584,188.335 144.5,189.5C 143.893,189.376 143.56,189.043 143.5,188.5C 144.09,187.234 144.59,185.901 145,184.5C 147.682,182.097 150.182,179.597 152.5,177C 156.239,175.587 159.739,173.753 163,171.5C 163.945,171.905 164.612,172.572 165,173.5C 174.017,169.077 183.184,164.744 192.5,160.5C 194.474,156.692 197.308,153.692 201,151.5C 202.813,145.835 205.646,140.835 209.5,136.5 Z"/></g>
<g><path style="opacity:1" fill="#bbd56f" d="M 127.5,138.5 C 127.833,138.5 128.167,138.5 128.5,138.5C 133.587,142.253 137.587,146.919 140.5,152.5C 140.5,154.5 140.5,156.5 140.5,158.5C 138.415,155.881 136.915,152.881 136,149.5C 135.282,148.549 134.449,148.383 133.5,149C 134.828,154.528 135.495,160.528 135.5,167C 131.208,169.957 127.208,173.123 123.5,176.5C 115.141,176.526 106.807,177.026 98.5,178C 97.193,179.943 97.193,181.777 98.5,183.5C 98.8333,184.5 99.5,185.167 100.5,185.5C 100.433,186.959 100.766,188.292 101.5,189.5C 99.7085,189.634 98.0418,189.301 96.5,188.5C 95.9916,186.135 95.3249,183.801 94.5,181.5C 96.7241,178.751 95.8907,176.751 92,175.5C 91.6667,175.833 91.3333,176.167 91,176.5C 89.7101,174.208 88.0435,172.208 86,170.5C 85.5172,169.552 85.3505,168.552 85.5,167.5C 90.2715,173.192 96.2715,174.859 103.5,172.5C 104.833,173.167 106.167,173.833 107.5,174.5C 113.621,173.396 120.287,172.23 127.5,171C 129.233,168.725 131.067,166.558 133,164.5C 133.667,161.5 133.667,158.5 133,155.5C 132.8,153.68 131.966,152.347 130.5,151.5C 128.552,147.247 125.219,145.58 120.5,146.5C 119.598,144.659 118.264,143.326 116.5,142.5C 119.752,140.412 123.418,139.079 127.5,138.5 Z"/></g>
<g><path style="opacity:1" fill="#67a464" d="M 120.5,146.5 C 125.219,145.58 128.552,147.247 130.5,151.5C 130.5,151.833 130.5,152.167 130.5,152.5C 126.802,147.688 122.802,147.355 118.5,151.5C 118.392,149.486 119.058,147.82 120.5,146.5 Z"/></g>
<g><path style="opacity:1" fill="#1d4e1e" d="M 158.5,143.5 C 166.505,143.731 174.505,144.065 182.5,144.5C 183.686,145.961 183.686,147.295 182.5,148.5C 181.733,147.828 181.066,146.995 180.5,146C 173.808,145.169 167.142,145.336 160.5,146.5C 167.405,147.701 174.072,149.034 180.5,150.5C 172.642,153.955 165.475,152.955 159,147.5C 158.517,146.552 158.351,145.552 158.5,144.5C 158.5,144.167 158.5,143.833 158.5,143.5 Z"/></g>
<g><path style="opacity:1" fill="#68b375" d="M 207.5,106.5 C 208.833,106.5 210.167,106.5 211.5,106.5C 213.488,108.465 214.988,110.798 216,113.5C 216.377,112.058 217.21,111.058 218.5,110.5C 218.263,111.791 218.596,112.791 219.5,113.5C 219.5,114.167 219.5,114.833 219.5,115.5C 216.733,116.638 216.066,118.472 217.5,121C 216.497,124.927 214.83,128.427 212.5,131.5C 211.226,130.811 211.226,129.977 212.5,129C 211.552,128.517 210.552,128.351 209.5,128.5C 205.247,138.156 199.58,146.989 192.5,155C 183.568,160.263 174.401,165.096 165,169.5C 153.595,171.935 144.761,177.935 138.5,187.5C 135.775,188.713 133.441,190.546 131.5,193C 127.859,194.619 124.193,196.286 120.5,198C 112.895,199.311 105.228,199.811 97.5,199.5C 90.2084,198.17 82.8751,196.836 75.5,195.5C 73.4346,194.143 71.4346,192.81 69.5,191.5C 67.6664,184.638 68.6664,178.305 72.5,172.5C 72.2322,174.099 72.5655,175.432 73.5,176.5C 70.5847,181.307 70.0847,186.307 72,191.5C 77.2216,193.845 82.7216,195.178 88.5,195.5C 104.917,199.916 119.917,197.083 133.5,187C 137.359,183.968 141.026,180.802 144.5,177.5C 149.882,173.14 155.882,169.807 162.5,167.5C 173.14,164.013 183.14,159.18 192.5,153C 198.526,146.115 202.86,138.282 205.5,129.5C 207.601,126.203 208.935,122.537 209.5,118.5C 211.385,116.205 211.885,113.538 211,110.5C 209.624,109.295 208.458,107.962 207.5,106.5 Z"/></g>
<g><path style="opacity:1" fill="#9fda81" d="M 72.5,147.5 C 68.0955,156.779 64.7621,166.445 62.5,176.5C 60.3925,184.046 57.7258,191.379 54.5,198.5C 54.6556,201.066 54.3223,203.566 53.5,206C 53.8082,207.459 54.4749,208.626 55.5,209.5C 55.5394,210.583 55.8728,211.583 56.5,212.5C 55.8333,213.833 55.1667,213.833 54.5,212.5C 52.6912,209.407 51.6912,206.074 51.5,202.5C 53.8324,193.835 56.1658,185.168 58.5,176.5C 58.3893,175.883 58.056,175.383 57.5,175C 59.6844,169.939 61.6844,164.773 63.5,159.5C 65.5748,154.628 68.5748,150.628 72.5,147.5 Z"/></g>
<g><path style="opacity:1" fill="#c2d79e" d="M 158.5,144.5 C 158.351,145.552 158.517,146.552 159,147.5C 165.475,152.955 172.642,153.955 180.5,150.5C 180.833,150.5 181.167,150.5 181.5,150.5C 180.274,152.876 178.274,154.376 175.5,155C 172.183,155.498 168.85,155.665 165.5,155.5C 163.238,154.104 161.071,152.437 159,150.5C 157.458,148.435 157.291,146.435 158.5,144.5 Z"/></g>
<g><path style="opacity:1" fill="#77c765" d="M 138.5,131.5 C 139.167,131.5 139.833,131.5 140.5,131.5C 140.531,134.959 141.198,138.292 142.5,141.5C 145.606,145.109 148.939,148.609 152.5,152C 155.071,153.454 157.738,154.62 160.5,155.5C 162.167,155.5 163.833,155.5 165.5,155.5C 168.287,156.477 171.287,156.81 174.5,156.5C 170.855,158.463 167.189,160.463 163.5,162.5C 157.694,159.992 152.027,156.492 146.5,152C 146.833,151.667 147.167,151.333 147.5,151C 142.233,145.628 139.233,139.128 138.5,131.5 Z"/></g>
<g><path style="opacity:1" fill="#488341" d="M 204.5,122.5 C 205.468,124.607 205.802,126.941 205.5,129.5C 202.86,138.282 198.526,146.115 192.5,153C 183.14,159.18 173.14,164.013 162.5,167.5C 162.833,166.833 163.167,166.167 163.5,165.5C 168.456,162.675 173.789,160.508 179.5,159C 187.379,156.286 192.712,151.119 195.5,143.5C 197.467,141.696 199.301,139.696 201,137.5C 202.077,132.446 203.244,127.446 204.5,122.5 Z"/></g>
<g><path style="opacity:1" fill="#0d5923" d="M 137.5,130.5 C 137.5,130.833 137.5,131.167 137.5,131.5C 137.696,147.346 145.029,158.346 159.5,164.5C 160.568,165.434 161.901,165.768 163.5,165.5C 163.167,166.167 162.833,166.833 162.5,167.5C 155.882,169.807 149.882,173.14 144.5,177.5C 143.662,177.158 143.328,176.492 143.5,175.5C 144.678,170.688 144.678,166.021 143.5,161.5C 143.472,158.084 142.472,155.084 140.5,152.5C 137.587,146.919 133.587,142.253 128.5,138.5C 132.644,136.957 135.644,134.291 137.5,130.5 Z"/></g>
<g><path style="opacity:1" fill="#7cc97a" d="M 137.5,131.5 C 137.833,131.5 138.167,131.5 138.5,131.5C 139.233,139.128 142.233,145.628 147.5,151C 147.167,151.333 146.833,151.667 146.5,152C 152.027,156.492 157.694,159.992 163.5,162.5C 161.938,162.733 160.605,163.4 159.5,164.5C 145.029,158.346 137.696,147.346 137.5,131.5 Z"/></g>
<g><path style="opacity:1" fill="#2c582a" d="M 117.5,133.5 C 120.254,134.641 122.921,135.975 125.5,137.5C 115.608,138.632 106.275,141.465 97.5,146C 96.0844,147.915 96.4178,149.415 98.5,150.5C 99.7789,153.395 100.779,156.395 101.5,159.5C 101.401,161.799 100.734,163.799 99.5,165.5C 99.719,164.325 99.3857,163.325 98.5,162.5C 95.0585,164.34 91.8919,163.674 89,160.5C 88.4014,158.465 88.9014,156.799 90.5,155.5C 90.4077,159.071 92.0743,160.238 95.5,159C 97.35,155.534 96.35,153.701 92.5,153.5C 93.9516,152.698 95.6183,152.198 97.5,152C 92.1774,149.832 88.844,151.665 87.5,157.5C 85.2152,158.957 83.3819,160.957 82,163.5C 80.0329,168.37 78.5329,173.37 77.5,178.5C 76.9348,176.58 75.9348,174.913 74.5,173.5C 77.5615,163.541 82.5615,154.707 89.5,147C 98.1983,141.151 107.532,136.651 117.5,133.5 Z"/></g>
<g><path style="opacity:1" fill="#cdd9cf" d="M 92.5,153.5 C 96.35,153.701 97.35,155.534 95.5,159C 92.0743,160.238 90.4077,159.071 90.5,155.5C 90.8333,154.5 91.5,153.833 92.5,153.5 Z"/></g>
<g><path style="opacity:1" fill="#3c9652" d="M 212.5,131.5 C 211.248,133.001 210.248,134.668 209.5,136.5C 205.646,140.835 202.813,145.835 201,151.5C 197.308,153.692 194.474,156.692 192.5,160.5C 183.184,164.744 174.017,169.077 165,173.5C 164.612,172.572 163.945,171.905 163,171.5C 159.739,173.753 156.239,175.587 152.5,177C 150.182,179.597 147.682,182.097 145,184.5C 144.59,185.901 144.09,187.234 143.5,188.5C 142.196,189.987 141.03,191.654 140,193.5C 139.667,192.833 139.333,192.167 139,191.5C 137.291,194.712 135.791,194.878 134.5,192C 136.192,190.693 137.525,189.193 138.5,187.5C 144.761,177.935 153.595,171.935 165,169.5C 174.401,165.096 183.568,160.263 192.5,155C 199.58,146.989 205.247,138.156 209.5,128.5C 210.552,128.351 211.552,128.517 212.5,129C 211.226,129.977 211.226,130.811 212.5,131.5 Z"/></g>
<g><path style="opacity:1" fill="#1a4d1f" d="M 130.5,152.5 C 131.265,155.096 131.599,157.763 131.5,160.5C 129.985,165.497 126.651,167.33 121.5,166C 117.496,161.827 116.496,156.993 118.5,151.5C 122.802,147.355 126.802,147.688 130.5,152.5 Z"/></g>
<g><path style="opacity:1" fill="#cfddd0" d="M 121.5,151.5 C 126.159,151.015 127.492,152.848 125.5,157C 120.728,157.81 119.395,155.977 121.5,151.5 Z"/></g>
<g><path style="opacity:1" fill="#b9e68e" d="M 274.5,162.5 C 273.616,170.366 271.949,178.033 269.5,185.5C 267.072,184.788 264.739,183.788 262.5,182.5C 261.094,183.668 259.928,183.335 259,181.5C 256.549,180.751 253.882,180.751 251,181.5C 247.642,180.759 244.642,179.426 242,177.5C 241.667,178.167 241.333,178.833 241,179.5C 235.404,178.975 229.904,178.975 224.5,179.5C 222.088,178.423 219.754,177.256 217.5,176C 217.833,175.667 218.167,175.333 218.5,175C 217.692,174.692 217.025,174.192 216.5,173.5C 217.59,172.391 217.59,171.391 216.5,170.5C 213.527,174.94 210.194,179.107 206.5,183C 206.841,186.059 205.341,188.226 202,189.5C 201.5,189.333 201,189.167 200.5,189C 203.137,183.866 206.47,178.699 210.5,173.5C 214.334,168.503 217.667,163.17 220.5,157.5C 220.351,158.552 220.517,159.552 221,160.5C 222.399,157.637 223.399,154.637 224,151.5C 224.615,149.884 225.615,148.551 227,147.5C 226.618,150.389 226.452,153.223 226.5,156C 227.479,158.403 228.979,159.236 231,158.5C 231.245,160.663 232.245,162.33 234,163.5C 235.851,161.219 237.518,161.219 239,163.5C 250.614,163.024 262.447,162.69 274.5,162.5 Z"/></g>
<g><path style="opacity:1" fill="#bae68e" d="M 63.5,159.5 C 61.6844,164.773 59.6844,169.939 57.5,175C 58.056,175.383 58.3893,175.883 58.5,176.5C 56.7373,178.885 55.2373,181.552 54,184.5C 53.8333,184 53.6667,183.5 53.5,183C 55.3169,178.57 56.4836,174.07 57,169.5C 54.9105,172.216 53.4105,175.216 52.5,178.5C 50.9519,178.821 50.2852,179.821 50.5,181.5C 46.7971,183.344 42.9637,185.011 39,186.5C 37.6015,185.949 36.2682,185.616 35,185.5C 33.5981,187.973 32.0981,187.973 30.5,185.5C 28.9974,186.052 27.3307,186.052 25.5,185.5C 23.1991,177.998 21.5324,170.331 20.5,162.5C 29.0581,162.64 37.8915,162.974 47,163.5C 48.8048,162.59 50.6381,161.59 52.5,160.5C 53.1667,160.833 53.8333,161.167 54.5,161.5C 57.6748,158.456 60.8414,155.456 64,152.5C 64.0038,154.368 63.5038,156.202 62.5,158C 62.5699,158.765 62.9033,159.265 63.5,159.5 Z"/></g>
<g><path style="opacity:1" fill="#65aa55" d="M 195.5,143.5 C 192.712,151.119 187.379,156.286 179.5,159C 173.789,160.508 168.456,162.675 163.5,165.5C 161.901,165.768 160.568,165.434 159.5,164.5C 160.605,163.4 161.938,162.733 163.5,162.5C 167.189,160.463 170.855,158.463 174.5,156.5C 177.658,156.017 180.658,155.017 183.5,153.5C 188.426,151.237 192.426,147.904 195.5,143.5 Z"/></g>
<g><path style="opacity:1" fill="#e1e7b0" d="M 116.5,142.5 C 118.264,143.326 119.598,144.659 120.5,146.5C 119.058,147.82 118.392,149.486 118.5,151.5C 116.496,156.993 117.496,161.827 121.5,166C 126.651,167.33 129.985,165.497 131.5,160.5C 129.915,169.246 125.248,171.412 117.5,167C 114.433,162.515 110.1,160.849 104.5,162C 102.544,167.985 98.5444,170.652 92.5,170C 89.7411,169.166 88.7411,167.666 89.5,165.5C 91.4065,168.332 94.0732,169.166 97.5,168C 98.3805,167.292 99.0472,166.458 99.5,165.5C 100.734,163.799 101.401,161.799 101.5,159.5C 100.779,156.395 99.7789,153.395 98.5,150.5C 99.3479,148.907 100.681,147.74 102.5,147C 107.296,145.655 111.963,144.155 116.5,142.5 Z"/></g>
<g><path style="opacity:1" fill="#67944a" d="M 87.5,157.5 C 87.5,158.167 87.5,158.833 87.5,159.5C 86.4625,160.93 85.7959,162.597 85.5,164.5C 83.5669,165.642 82.0669,167.308 81,169.5C 80.51,170.793 80.3433,172.127 80.5,173.5C 79.7929,176.786 79.4595,180.119 79.5,183.5C 78.0687,182.22 77.4021,180.553 77.5,178.5C 78.5329,173.37 80.0329,168.37 82,163.5C 83.3819,160.957 85.2152,158.957 87.5,157.5 Z"/></g>
<g><path style="opacity:1" fill="#0f401a" d="M 92.5,153.5 C 91.5,153.833 90.8333,154.5 90.5,155.5C 88.9014,156.799 88.4014,158.465 89,160.5C 91.8919,163.674 95.0585,164.34 98.5,162.5C 99.3857,163.325 99.719,164.325 99.5,165.5C 99.0472,166.458 98.3805,167.292 97.5,168C 94.0732,169.166 91.4065,168.332 89.5,165.5C 88.2702,163.703 87.6036,161.703 87.5,159.5C 87.5,158.833 87.5,158.167 87.5,157.5C 88.844,151.665 92.1774,149.832 97.5,152C 95.6183,152.198 93.9516,152.698 92.5,153.5 Z"/></g>
<g><path style="opacity:1" fill="#13682c" d="M 215.5,134.5 C 215.5,135.5 215.5,136.5 215.5,137.5C 211.866,147.594 206.533,156.76 199.5,165C 193.79,168.855 187.79,172.188 181.5,175C 173.943,177.056 166.609,179.722 159.5,183C 155.91,185.614 152.576,188.448 149.5,191.5C 148.833,191.833 148.167,192.167 147.5,192.5C 147.167,191.833 146.833,191.167 146.5,190.5C 146.833,189.833 147.167,189.167 147.5,188.5C 153.264,180.886 160.764,176.553 170,175.5C 170.324,173.431 171.158,173.098 172.5,174.5C 172.833,173.833 173.167,173.167 173.5,172.5C 174.167,172.833 174.833,173.167 175.5,173.5C 176.696,173.154 176.696,172.654 175.5,172C 176.5,171.5 177.5,171 178.5,170.5C 179.842,171.902 180.676,171.569 181,169.5C 183.885,170.235 186.218,169.235 188,166.5C 189.073,167.28 190.24,167.113 191.5,166C 192.859,163.666 194.693,161.833 197,160.5C 197.333,160.833 197.667,161.167 198,161.5C 199.758,160.531 200.258,159.364 199.5,158C 200.984,156.426 202.651,155.093 204.5,154C 204.167,153.667 203.833,153.333 203.5,153C 206.893,148.371 209.56,142.871 211.5,136.5C 212.833,135.833 214.167,135.167 215.5,134.5 Z"/></g>
<g><path style="opacity:1" fill="#d0df8a" d="M 130.5,151.5 C 131.966,152.347 132.8,153.68 133,155.5C 133.667,158.5 133.667,161.5 133,164.5C 131.067,166.558 129.233,168.725 127.5,171C 120.287,172.23 113.621,173.396 107.5,174.5C 106.167,173.833 104.833,173.167 103.5,172.5C 96.2715,174.859 90.2715,173.192 85.5,167.5C 85.5,166.5 85.5,165.5 85.5,164.5C 85.7959,162.597 86.4625,160.93 87.5,159.5C 87.6036,161.703 88.2702,163.703 89.5,165.5C 88.7411,167.666 89.7411,169.166 92.5,170C 98.5444,170.652 102.544,167.985 104.5,162C 110.1,160.849 114.433,162.515 117.5,167C 125.248,171.412 129.915,169.246 131.5,160.5C 131.599,157.763 131.265,155.096 130.5,152.5C 130.5,152.167 130.5,151.833 130.5,151.5 Z"/></g>
<g><path style="opacity:1" fill="#9ed06e" d="M 140.5,152.5 C 142.472,155.084 143.472,158.084 143.5,161.5C 143.82,164.898 143.487,168.232 142.5,171.5C 141.358,172.826 140.024,173.826 138.5,174.5C 140.49,169.248 141.157,163.914 140.5,158.5C 140.5,156.5 140.5,154.5 140.5,152.5 Z"/></g>
<g><path style="opacity:1" fill="#a8cd59" d="M 140.5,158.5 C 141.157,163.914 140.49,169.248 138.5,174.5C 136.721,176.546 135.054,178.713 133.5,181C 130.169,183.998 126.502,186.498 122.5,188.5C 122.953,187.542 123.619,186.708 124.5,186C 123.663,184.989 123.33,183.822 123.5,182.5C 123.5,182.167 123.5,181.833 123.5,181.5C 123.5,180.833 123.5,180.167 123.5,179.5C 123.5,178.5 123.5,177.5 123.5,176.5C 127.208,173.123 131.208,169.957 135.5,167C 135.495,160.528 134.828,154.528 133.5,149C 134.449,148.383 135.282,148.549 136,149.5C 136.915,152.881 138.415,155.881 140.5,158.5 Z"/></g>
<g><path style="opacity:1" fill="#b5e486" d="M 269.5,185.5 C 267.557,191.662 265.224,197.662 262.5,203.5C 256.121,195.474 247.788,190.807 237.5,189.5C 229.527,189.823 222.861,192.823 217.5,198.5C 215.811,199.931 213.811,200.764 211.5,201C 210.663,202.011 210.33,203.178 210.5,204.5C 207.282,204.651 206.949,205.484 209.5,207C 207.285,207.388 205.952,208.388 205.5,210C 206.167,210.333 206.833,210.667 207.5,211C 204.597,212.486 204.264,213.986 206.5,215.5C 206.988,219.71 208.321,224.043 210.5,228.5C 210.167,228.833 209.833,229.167 209.5,229.5C 205.756,225.678 202.756,221.345 200.5,216.5C 199.675,215.614 198.675,215.281 197.5,215.5C 196.761,215.631 196.094,215.464 195.5,215C 195.5,213.667 195.5,212.333 195.5,211C 193.117,210.935 192.45,210.102 193.5,208.5C 192.582,206.161 190.916,204.661 188.5,204C 189.167,203.667 189.833,203.333 190.5,203C 188.236,202.764 186.069,202.264 184,201.5C 178.817,201.693 173.651,202.027 168.5,202.5C 167.737,201.732 166.737,201.232 165.5,201C 167.5,200.333 169.5,199.667 171.5,199C 170.234,198.691 169.067,198.191 168,197.5C 165.928,197.258 163.761,197.591 161.5,198.5C 169.941,195.381 178.607,192.547 187.5,190C 196.213,185.285 203.713,179.118 210,171.5C 210.464,172.094 210.631,172.761 210.5,173.5C 206.47,178.699 203.137,183.866 200.5,189C 201,189.167 201.5,189.333 202,189.5C 205.341,188.226 206.841,186.059 206.5,183C 210.194,179.107 213.527,174.94 216.5,170.5C 217.59,171.391 217.59,172.391 216.5,173.5C 217.025,174.192 217.692,174.692 218.5,175C 218.167,175.333 217.833,175.667 217.5,176C 219.754,177.256 222.088,178.423 224.5,179.5C 229.904,178.975 235.404,178.975 241,179.5C 241.333,178.833 241.667,178.167 242,177.5C 244.642,179.426 247.642,180.759 251,181.5C 253.882,180.751 256.549,180.751 259,181.5C 259.928,183.335 261.094,183.668 262.5,182.5C 264.739,183.788 267.072,184.788 269.5,185.5 Z"/></g>
<g><path style="opacity:1" fill="#60a257" d="M 123.5,176.5 C 123.5,177.5 123.5,178.5 123.5,179.5C 115.56,178.656 107.56,178.822 99.5,180C 98.6634,181.011 98.33,182.178 98.5,183.5C 97.193,181.777 97.193,179.943 98.5,178C 106.807,177.026 115.141,176.526 123.5,176.5 Z"/></g>
<g><path style="opacity:1" fill="#aace55" d="M 85.5,167.5 C 85.3505,168.552 85.5172,169.552 86,170.5C 88.0435,172.208 89.7101,174.208 91,176.5C 91.3333,176.167 91.6667,175.833 92,175.5C 95.8907,176.751 96.7241,178.751 94.5,181.5C 95.3249,183.801 95.9916,186.135 96.5,188.5C 93.821,188.475 92.4877,187.142 92.5,184.5C 89.132,183.122 86.4653,180.789 84.5,177.5C 85.0238,174.351 85.3571,171.018 85.5,167.5 Z"/></g>
<g><path style="opacity:1" fill="#2c4e22" d="M 123.5,179.5 C 123.5,180.167 123.5,180.833 123.5,181.5C 115,180.458 106.667,181.125 98.5,183.5C 98.33,182.178 98.6634,181.011 99.5,180C 107.56,178.822 115.56,178.656 123.5,179.5 Z"/></g>
<g><path style="opacity:1" fill="#66bc67" d="M 215.5,137.5 C 213.164,149.938 207.164,161.438 197.5,172C 186.077,180.038 173.41,185.371 159.5,188C 156.145,189.118 152.978,190.618 150,192.5C 149.601,192.272 149.435,191.938 149.5,191.5C 152.576,188.448 155.91,185.614 159.5,183C 166.609,179.722 173.943,177.056 181.5,175C 187.79,172.188 193.79,168.855 199.5,165C 206.533,156.76 211.866,147.594 215.5,137.5 Z"/></g>
<g><path style="opacity:1" fill="#85ce76" d="M 218.5,126.5 C 219.407,128.657 220.073,130.99 220.5,133.5C 220.666,137.514 220.499,141.514 220,145.5C 217.394,151.165 214.894,156.832 212.5,162.5C 209.152,168.692 204.819,174.192 199.5,179C 194.596,180.785 189.929,183.119 185.5,186C 179.284,188.303 172.95,190.137 166.5,191.5C 166.217,190.711 165.717,190.044 165,189.5C 158.826,191.057 152.659,192.723 146.5,194.5C 146.833,193.833 147.167,193.167 147.5,192.5C 148.167,192.167 148.833,191.833 149.5,191.5C 149.435,191.938 149.601,192.272 150,192.5C 152.978,190.618 156.145,189.118 159.5,188C 173.41,185.371 186.077,180.038 197.5,172C 207.164,161.438 213.164,149.938 215.5,137.5C 215.5,136.5 215.5,135.5 215.5,134.5C 216.795,132.021 217.795,129.354 218.5,126.5 Z"/></g>
<g><path style="opacity:1" fill="#33672a" d="M 123.5,181.5 C 123.5,181.833 123.5,182.167 123.5,182.5C 122.167,183.5 120.833,184.5 119.5,185.5C 113.167,184.167 106.833,184.167 100.5,185.5C 99.5,185.167 98.8333,184.5 98.5,183.5C 106.667,181.125 115,180.458 123.5,181.5 Z"/></g>
<g><path style="opacity:1" fill="#359b50" d="M 109.5,127.5 C 105.321,128.529 102.321,130.362 100.5,133C 93.6754,135.787 87.842,139.287 83,143.5C 80.2505,149.334 77.2505,155.001 74,160.5C 72.7847,166.813 70.7847,172.813 68,178.5C 67.3333,182.5 67.3333,186.5 68,190.5C 68.3826,191.056 68.8826,191.389 69.5,191.5C 71.4346,192.81 73.4346,194.143 75.5,195.5C 82.8751,196.836 90.2084,198.17 97.5,199.5C 97.5,199.833 97.5,200.167 97.5,200.5C 89.9311,200.048 82.4311,199.048 75,197.5C 72.5168,199.163 70.3501,198.829 68.5,196.5C 66.0017,197.121 63.6684,196.455 61.5,194.5C 61.2782,190.337 62.6116,186.504 65.5,183C 65.9022,177.203 67.2356,171.37 69.5,165.5C 69.2907,164.914 68.9574,164.414 68.5,164C 70.3512,158.461 72.3512,152.961 74.5,147.5C 79.4884,142.843 84.1551,137.843 88.5,132.5C 93.1982,130.813 97.8648,129.146 102.5,127.5C 105.041,126.897 107.374,126.897 109.5,127.5 Z"/></g>
<g><path style="opacity:1" fill="#7ac76f" d="M 80.5,173.5 C 81.3138,175.631 81.8138,177.964 82,180.5C 84.6961,184.361 87.8627,187.694 91.5,190.5C 89.1667,190.5 86.8333,190.5 84.5,190.5C 82.1,188.704 80.4333,186.37 79.5,183.5C 79.4595,180.119 79.7929,176.786 80.5,173.5 Z"/></g>
<g><path style="opacity:1" fill="#88c55b" d="M 85.5,164.5 C 85.5,165.5 85.5,166.5 85.5,167.5C 85.3571,171.018 85.0238,174.351 84.5,177.5C 86.4653,180.789 89.132,183.122 92.5,184.5C 92.4877,187.142 93.821,188.475 96.5,188.5C 98.0418,189.301 99.7085,189.634 101.5,189.5C 102.5,189.833 103.167,190.5 103.5,191.5C 103.5,191.833 103.5,192.167 103.5,192.5C 99.4185,192.108 95.4185,191.442 91.5,190.5C 87.8627,187.694 84.6961,184.361 82,180.5C 81.8138,177.964 81.3138,175.631 80.5,173.5C 80.3433,172.127 80.51,170.793 81,169.5C 82.0669,167.308 83.5669,165.642 85.5,164.5 Z"/></g>
<g><path style="opacity:1" fill="#c0e788" d="M 52.5,178.5 C 50.548,187.662 47.3814,196.329 43,204.5C 41.7385,211.009 43.9052,216.509 49.5,221C 49.1667,221.333 48.8333,221.667 48.5,222C 49.5,222.333 50.5,222.667 51.5,223C 50.7417,224.364 51.2417,225.531 53,226.5C 53.2926,230.98 54.126,231.313 55.5,227.5C 53.8439,225.588 53.5105,223.588 54.5,221.5C 55.2162,223.482 56.3829,225.149 58,226.5C 59.9188,230.746 59.4188,234.413 56.5,237.5C 42.0877,222.719 31.7544,205.386 25.5,185.5C 27.3307,186.052 28.9974,186.052 30.5,185.5C 32.0981,187.973 33.5981,187.973 35,185.5C 36.2682,185.616 37.6015,185.949 39,186.5C 42.9637,185.011 46.7971,183.344 50.5,181.5C 50.2852,179.821 50.9519,178.821 52.5,178.5 Z"/></g>
<g><path style="opacity:1" fill="#154c22" d="M 100.5,185.5 C 106.833,184.167 113.167,184.167 119.5,185.5C 113.137,189.423 106.804,189.423 100.5,185.5 Z"/></g>
<g><path style="opacity:1" fill="#9ed981" d="M 223.5,132.5 C 223.893,134.284 224.559,135.95 225.5,137.5C 222.344,143.749 220.677,150.416 220.5,157.5C 217.667,163.17 214.334,168.503 210.5,173.5C 210.631,172.761 210.464,172.094 210,171.5C 203.713,179.118 196.213,185.285 187.5,190C 178.607,192.547 169.941,195.381 161.5,198.5C 158.833,199.167 156.167,199.833 153.5,200.5C 152.262,200.19 152.262,199.69 153.5,199C 158.365,197.381 163.032,195.381 167.5,193C 166.207,192.51 164.873,192.343 163.5,192.5C 164.209,191.596 165.209,191.263 166.5,191.5C 172.95,190.137 179.284,188.303 185.5,186C 189.929,183.119 194.596,180.785 199.5,179C 204.819,174.192 209.152,168.692 212.5,162.5C 214.894,156.832 217.394,151.165 220,145.5C 220.499,141.514 220.666,137.514 220.5,133.5C 221.222,133.918 221.722,134.584 222,135.5C 222.232,134.263 222.732,133.263 223.5,132.5 Z"/></g>
<g><path style="opacity:1" fill="#c3daa0" d="M 123.5,182.5 C 123.33,183.822 123.663,184.989 124.5,186C 123.619,186.708 122.953,187.542 122.5,188.5C 120.745,189.072 119.078,189.906 117.5,191C 112.845,191.499 108.179,191.666 103.5,191.5C 103.167,190.5 102.5,189.833 101.5,189.5C 100.766,188.292 100.433,186.959 100.5,185.5C 106.804,189.423 113.137,189.423 119.5,185.5C 120.833,184.5 122.167,183.5 123.5,182.5 Z"/></g>
<g><path style="opacity:1" fill="#84b864" d="M 143.5,161.5 C 144.678,166.021 144.678,170.688 143.5,175.5C 142.325,175.281 141.325,175.614 140.5,176.5C 136.879,181.115 132.545,185.115 127.5,188.5C 124.123,189.342 121.123,190.842 118.5,193C 115.607,194.149 112.607,194.649 109.5,194.5C 107.5,193.833 105.5,193.167 103.5,192.5C 103.5,192.167 103.5,191.833 103.5,191.5C 108.179,191.666 112.845,191.499 117.5,191C 119.078,189.906 120.745,189.072 122.5,188.5C 126.502,186.498 130.169,183.998 133.5,181C 135.054,178.713 136.721,176.546 138.5,174.5C 140.024,173.826 141.358,172.826 142.5,171.5C 143.487,168.232 143.82,164.898 143.5,161.5 Z"/></g>
<g><path style="opacity:1" fill="#add97d" d="M 262.5,203.5 C 261.071,206.696 259.405,209.696 257.5,212.5C 257.505,209.682 256.172,208.515 253.5,209C 255.255,209.72 256.089,210.887 256,212.5C 254.062,211.14 252.396,211.473 251,213.5C 249.627,213.596 248.127,213.43 246.5,213C 248.789,214.688 250.123,216.521 250.5,218.5C 250.192,219.308 249.692,219.975 249,220.5C 247.345,220.198 246.012,218.864 245,216.5C 244.55,218.519 243.717,220.352 242.5,222C 242.833,222.333 243.167,222.667 243.5,223C 239.719,223.367 239.052,224.7 241.5,227C 241.167,227.167 240.833,227.333 240.5,227.5C 235.824,222.829 231.49,218.496 227.5,214.5C 226.035,215.609 225.035,215.109 224.5,213C 224.833,212.667 225.167,212.333 225.5,212C 223.129,209.294 220.463,206.961 217.5,205C 216.649,202.566 216.649,200.4 217.5,198.5C 222.861,192.823 229.527,189.823 237.5,189.5C 247.788,190.807 256.121,195.474 262.5,203.5 Z"/></g>
<g><path style="opacity:1" fill="#07491d" d="M 74.5,173.5 C 75.9348,174.913 76.9348,176.58 77.5,178.5C 77.4021,180.553 78.0687,182.22 79.5,183.5C 80.4333,186.37 82.1,188.704 84.5,190.5C 85.1667,191.833 86.1667,192.833 87.5,193.5C 87.8333,194.167 88.1667,194.833 88.5,195.5C 82.7216,195.178 77.2216,193.845 72,191.5C 70.0847,186.307 70.5847,181.307 73.5,176.5C 74.1098,175.609 74.4431,174.609 74.5,173.5 Z"/></g>
<g><path style="opacity:1" fill="#62ae5e" d="M 84.5,190.5 C 86.8333,190.5 89.1667,190.5 91.5,190.5C 95.4185,191.442 99.4185,192.108 103.5,192.5C 105.5,193.167 107.5,193.833 109.5,194.5C 102.11,194.764 94.7771,194.43 87.5,193.5C 86.1667,192.833 85.1667,191.833 84.5,190.5 Z"/></g>
<g><path style="opacity:1" fill="#25803e" d="M 124.5,116.5 C 125.492,116.328 126.158,116.662 126.5,117.5C 118.509,121.656 110.509,124.99 102.5,127.5C 97.8648,129.146 93.1982,130.813 88.5,132.5C 84.1551,137.843 79.4884,142.843 74.5,147.5C 72.3512,152.961 70.3512,158.461 68.5,164C 68.9574,164.414 69.2907,164.914 69.5,165.5C 67.2356,171.37 65.9022,177.203 65.5,183C 62.6116,186.504 61.2782,190.337 61.5,194.5C 63.6684,196.455 66.0017,197.121 68.5,196.5C 70.3501,198.829 72.5168,199.163 75,197.5C 82.4311,199.048 89.9311,200.048 97.5,200.5C 99.1033,200.312 100.437,200.812 101.5,202C 99.0749,202.109 96.7415,202.276 94.5,202.5C 96.444,203.801 98.444,204.801 100.5,205.5C 98.3067,206.059 95.9734,206.393 93.5,206.5C 93.2252,204.158 92.3919,204.158 91,206.5C 87.4878,203.64 83.1545,201.64 78,200.5C 76.2215,201.479 74.5548,201.146 73,199.5C 70.8449,200.683 68.8449,200.35 67,198.5C 64.7646,199.239 62.7646,199.239 61,198.5C 58.5725,192.742 59.4058,187.909 63.5,184C 63.0426,183.586 62.7093,183.086 62.5,182.5C 63.6113,181.389 64.278,180.055 64.5,178.5C 64.2528,177.287 63.5862,176.62 62.5,176.5C 64.7621,166.445 68.0955,156.779 72.5,147.5C 74.7451,144.68 76.7451,141.68 78.5,138.5C 81.0026,136.167 83.6693,134.001 86.5,132C 95.9798,127.127 105.646,122.961 115.5,119.5C 118.594,118.787 121.594,117.787 124.5,116.5 Z"/></g>
<g><path style="opacity:1" fill="#589756" d="M 143.5,175.5 C 143.328,176.492 143.662,177.158 144.5,177.5C 141.026,180.802 137.359,183.968 133.5,187C 119.917,197.083 104.917,199.916 88.5,195.5C 88.1667,194.833 87.8333,194.167 87.5,193.5C 94.7771,194.43 102.11,194.764 109.5,194.5C 112.607,194.649 115.607,194.149 118.5,193C 121.123,190.842 124.123,189.342 127.5,188.5C 132.545,185.115 136.879,181.115 140.5,176.5C 141.325,175.614 142.325,175.281 143.5,175.5 Z"/></g>
<g><path style="opacity:1" fill="#166c2f" d="M 62.5,176.5 C 63.5862,176.62 64.2528,177.287 64.5,178.5C 64.278,180.055 63.6113,181.389 62.5,182.5C 62.7093,183.086 63.0426,183.586 63.5,184C 59.4058,187.909 58.5725,192.742 61,198.5C 62.7646,199.239 64.7646,199.239 67,198.5C 68.8449,200.35 70.8449,200.683 73,199.5C 74.5548,201.146 76.2215,201.479 78,200.5C 83.1545,201.64 87.4878,203.64 91,206.5C 92.3919,204.158 93.2252,204.158 93.5,206.5C 93.5,207.167 93.1667,207.5 92.5,207.5C 84.3674,206.3 76.3674,204.467 68.5,202C 64.8484,201.501 61.1817,201.335 57.5,201.5C 56.2719,200.694 55.2719,199.694 54.5,198.5C 57.7258,191.379 60.3925,184.046 62.5,176.5 Z"/></g>
<g><path style="opacity:1" fill="#419057" d="M 147.5,188.5 C 147.167,189.167 146.833,189.833 146.5,190.5C 145.685,191.429 144.852,192.429 144,193.5C 143.667,192.833 143.333,192.167 143,191.5C 142.276,193.959 140.943,194.959 139,194.5C 138.167,195.5 137.333,196.5 136.5,197.5C 135.914,197.291 135.414,196.957 135,196.5C 132.597,199.567 129.597,201.9 126,203.5C 125.667,203.167 125.333,202.833 125,202.5C 121.148,203.73 117.981,205.063 115.5,206.5C 114.446,206.32 113.446,205.987 112.5,205.5C 112.511,206.441 112.011,207.108 111,207.5C 107.598,206.274 104.098,205.607 100.5,205.5C 98.444,204.801 96.444,203.801 94.5,202.5C 96.7415,202.276 99.0749,202.109 101.5,202C 100.437,200.812 99.1033,200.312 97.5,200.5C 97.5,200.167 97.5,199.833 97.5,199.5C 105.228,199.811 112.895,199.311 120.5,198C 124.193,196.286 127.859,194.619 131.5,193C 133.441,190.546 135.775,188.713 138.5,187.5C 137.525,189.193 136.192,190.693 134.5,192C 135.791,194.878 137.291,194.712 139,191.5C 139.333,192.167 139.667,192.833 140,193.5C 141.03,191.654 142.196,189.987 143.5,188.5C 143.56,189.043 143.893,189.376 144.5,189.5C 145.584,188.335 146.417,187.002 147,185.5C 147.483,186.448 147.649,187.448 147.5,188.5 Z"/></g>
<g><path style="opacity:1" fill="#3b8150" d="M 146.5,190.5 C 146.833,191.167 147.167,191.833 147.5,192.5C 147.167,193.167 146.833,193.833 146.5,194.5C 139.598,199.541 132.264,204.041 124.5,208C 116.227,209.33 107.893,209.83 99.5,209.5C 96.9902,209.073 94.6568,208.407 92.5,207.5C 93.1667,207.5 93.5,207.167 93.5,206.5C 95.9734,206.393 98.3067,206.059 100.5,205.5C 104.098,205.607 107.598,206.274 111,207.5C 112.011,207.108 112.511,206.441 112.5,205.5C 113.446,205.987 114.446,206.32 115.5,206.5C 117.981,205.063 121.148,203.73 125,202.5C 125.333,202.833 125.667,203.167 126,203.5C 129.597,201.9 132.597,199.567 135,196.5C 135.414,196.957 135.914,197.291 136.5,197.5C 137.333,196.5 138.167,195.5 139,194.5C 140.943,194.959 142.276,193.959 143,191.5C 143.333,192.167 143.667,192.833 144,193.5C 144.852,192.429 145.685,191.429 146.5,190.5 Z"/></g>
<g><path style="opacity:1" fill="#b3df7c" d="M 217.5,198.5 C 216.649,200.4 216.649,202.566 217.5,205C 220.463,206.961 223.129,209.294 225.5,212C 225.167,212.333 224.833,212.667 224.5,213C 225.035,215.109 226.035,215.609 227.5,214.5C 231.49,218.496 235.824,222.829 240.5,227.5C 240.833,227.333 241.167,227.167 241.5,227C 239.052,224.7 239.719,223.367 243.5,223C 243.167,222.667 242.833,222.333 242.5,222C 243.717,220.352 244.55,218.519 245,216.5C 246.012,218.864 247.345,220.198 249,220.5C 249.692,219.975 250.192,219.308 250.5,218.5C 250.123,216.521 248.789,214.688 246.5,213C 248.127,213.43 249.627,213.596 251,213.5C 252.396,211.473 254.062,211.14 256,212.5C 256.089,210.887 255.255,209.72 253.5,209C 256.172,208.515 257.505,209.682 257.5,212.5C 253.462,219.921 248.462,226.587 242.5,232.5C 240.234,231.08 238.067,229.413 236,227.5C 235.493,228.996 235.993,230.163 237.5,231C 236.551,231.617 235.718,231.451 235,230.5C 235.773,235.881 234.273,236.547 230.5,232.5C 229.833,232.833 229.167,233.167 228.5,233.5C 222.894,229.731 217.728,225.398 213,220.5C 212.667,220.833 212.333,221.167 212,221.5C 211.008,218.677 209.175,216.677 206.5,215.5C 204.264,213.986 204.597,212.486 207.5,211C 206.833,210.667 206.167,210.333 205.5,210C 205.952,208.388 207.285,207.388 209.5,207C 206.949,205.484 207.282,204.651 210.5,204.5C 210.33,203.178 210.663,202.011 211.5,201C 213.811,200.764 215.811,199.931 217.5,198.5 Z"/></g>
<g><path style="opacity:1" fill="#9bd48b" d="M 163.5,192.5 C 164.873,192.343 166.207,192.51 167.5,193C 163.032,195.381 158.365,197.381 153.5,199C 152.262,199.69 152.262,200.19 153.5,200.5C 149.896,203.213 146.23,206.38 142.5,210C 137.167,212.665 132.167,215.832 127.5,219.5C 122.703,222.708 117.37,224.708 111.5,225.5C 112.85,224.176 112.683,223.176 111,222.5C 108.153,223.405 105.32,223.905 102.5,224C 106.655,221.727 106.322,220.561 101.5,220.5C 107.842,218.733 114.176,216.566 120.5,214C 127.133,209.679 133.8,205.346 140.5,201C 143.529,200.461 146.529,199.794 149.5,199C 151.731,196.614 154.397,194.781 157.5,193.5C 159.481,194.089 161.481,193.755 163.5,192.5 Z"/></g>
<g><path style="opacity:1" fill="#b9e397" d="M 168.5,202.5 C 165.418,203.017 162.418,203.85 159.5,205C 161.087,205.862 162.754,206.529 164.5,207C 162.603,208.11 160.77,208.276 159,207.5C 158.583,208.756 157.75,209.423 156.5,209.5C 152.639,210.35 149.472,212.35 147,215.5C 146.667,215.167 146.333,214.833 146,214.5C 142.286,217.051 139.119,220.051 136.5,223.5C 133.753,221.141 131.087,221.474 128.5,224.5C 128.027,222.753 127.693,221.086 127.5,219.5C 132.167,215.832 137.167,212.665 142.5,210C 146.23,206.38 149.896,203.213 153.5,200.5C 156.167,199.833 158.833,199.167 161.5,198.5C 163.761,197.591 165.928,197.258 168,197.5C 169.067,198.191 170.234,198.691 171.5,199C 169.5,199.667 167.5,200.333 165.5,201C 166.737,201.232 167.737,201.732 168.5,202.5 Z"/></g>
<g><path style="opacity:1" fill="#81c67d" d="M 166.5,191.5 C 165.209,191.263 164.209,191.596 163.5,192.5C 161.481,193.755 159.481,194.089 157.5,193.5C 154.397,194.781 151.731,196.614 149.5,199C 146.529,199.794 143.529,200.461 140.5,201C 133.8,205.346 127.133,209.679 120.5,214C 114.176,216.566 107.842,218.733 101.5,220.5C 100.5,220.5 99.5,220.5 98.5,220.5C 99.0906,219.849 99.7573,219.182 100.5,218.5C 100.167,218.167 99.8333,217.833 99.5,217.5C 98.2322,218.428 96.8989,218.595 95.5,218C 96.7305,216.595 98.0639,215.429 99.5,214.5C 101.372,213.489 103.372,212.655 105.5,212C 103.026,211.963 101.026,211.13 99.5,209.5C 107.893,209.83 116.227,209.33 124.5,208C 132.264,204.041 139.598,199.541 146.5,194.5C 152.659,192.723 158.826,191.057 165,189.5C 165.717,190.044 166.217,190.711 166.5,191.5 Z"/></g>
<g><path style="opacity:1" fill="#6dbf65" d="M 57.5,201.5 C 61.1817,201.335 64.8484,201.501 68.5,202C 76.3674,204.467 84.3674,206.3 92.5,207.5C 94.6568,208.407 96.9902,209.073 99.5,209.5C 101.026,211.13 103.026,211.963 105.5,212C 103.372,212.655 101.372,213.489 99.5,214.5C 97.54,215.138 95.7067,215.138 94,214.5C 89.9576,217.446 85.4576,217.946 80.5,216C 73.8211,214.161 67.4878,211.494 61.5,208C 59.4974,206.181 58.164,204.015 57.5,201.5 Z"/></g>
<g><path style="opacity:1" fill="#d3eea3" d="M 156.5,209.5 C 157.568,210.434 158.901,210.768 160.5,210.5C 166.588,211.042 171.255,213.875 174.5,219C 173.004,219.507 171.837,219.007 171,217.5C 170.333,218.167 169.667,218.833 169,219.5C 167.817,218.269 166.651,218.269 165.5,219.5C 166.025,220.192 166.692,220.692 167.5,221C 166.903,222.628 167.237,224.295 168.5,226C 167.421,226.956 166.255,227.789 165,228.5C 164.383,229.449 164.549,230.282 165.5,231C 163.77,232.852 162.604,232.686 162,230.5C 156.735,234.392 152.068,233.725 148,228.5C 146.66,229.868 145.326,231.201 144,232.5C 141.98,231.968 141.147,230.635 141.5,228.5C 141.318,226.409 141.652,224.409 142.5,222.5C 142.167,222.167 141.833,221.833 141.5,221.5C 139.796,223.041 137.963,224.375 136,225.5C 135.5,225.333 135,225.167 134.5,225C 135.416,224.722 136.082,224.222 136.5,223.5C 139.119,220.051 142.286,217.051 146,214.5C 146.333,214.833 146.667,215.167 147,215.5C 149.472,212.35 152.639,210.35 156.5,209.5 Z"/></g>
<g><path style="opacity:1" fill="#89cc6f" d="M 54.5,198.5 C 55.2719,199.694 56.2719,200.694 57.5,201.5C 58.164,204.015 59.4974,206.181 61.5,208C 67.4878,211.494 73.8211,214.161 80.5,216C 85.4576,217.946 89.9576,217.446 94,214.5C 95.7067,215.138 97.54,215.138 99.5,214.5C 98.0639,215.429 96.7305,216.595 95.5,218C 96.8989,218.595 98.2322,218.428 99.5,217.5C 99.8333,217.833 100.167,218.167 100.5,218.5C 99.7573,219.182 99.0906,219.849 98.5,220.5C 95.2234,220.216 92.0567,220.549 89,221.5C 79.312,219.622 70.1453,217.288 61.5,214.5C 59.7718,212.607 57.7718,210.94 55.5,209.5C 54.4749,208.626 53.8082,207.459 53.5,206C 54.3223,203.566 54.6556,201.066 54.5,198.5 Z"/></g>
<g><path style="opacity:1" fill="#bfe47e" d="M 197.5,215.5 C 198.675,215.281 199.675,215.614 200.5,216.5C 202.756,221.345 205.756,225.678 209.5,229.5C 209.833,229.167 210.167,228.833 210.5,228.5C 208.321,224.043 206.988,219.71 206.5,215.5C 209.175,216.677 211.008,218.677 212,221.5C 212.333,221.167 212.667,220.833 213,220.5C 217.728,225.398 222.894,229.731 228.5,233.5C 229.167,233.167 229.833,232.833 230.5,232.5C 234.273,236.547 235.773,235.881 235,230.5C 235.718,231.451 236.551,231.617 237.5,231C 235.993,230.163 235.493,228.996 236,227.5C 238.067,229.413 240.234,231.08 242.5,232.5C 231,246.247 217,256.58 200.5,263.5C 199.903,263.265 199.57,262.765 199.5,262C 202.091,253.673 203.258,245.506 203,237.5C 204.251,241.082 205.251,244.749 206,248.5C 207.514,241.831 206.68,234.998 203.5,228C 203.833,227.667 204.167,227.333 204.5,227C 201.905,223.258 199.572,219.424 197.5,215.5 Z"/></g>
<g><path style="opacity:1" fill="#d8f1a0" d="M 190.5,229.5 C 194.117,236.038 195.117,243.038 193.5,250.5C 192.271,248.077 191.271,245.577 190.5,243C 190.833,242.667 191.167,242.333 191.5,242C 189.776,241.552 189.109,240.718 189.5,239.5C 188.863,243.465 187.863,247.298 186.5,251C 187.167,252 187.833,253 188.5,254C 185.272,255.563 183.105,258.063 182,261.5C 180.244,260.452 178.41,260.452 176.5,261.5C 172.389,259.365 168.722,257.365 165.5,255.5C 163.117,256.462 162.117,255.462 162.5,252.5C 154.436,250.942 148.936,246.275 146,238.5C 143.152,239.433 142.986,240.933 145.5,243C 144.655,244.558 145.321,245.558 147.5,246C 146.207,246.49 144.873,246.657 143.5,246.5C 141.5,241.833 139.5,237.167 137.5,232.5C 138.167,230.5 139.5,229.167 141.5,228.5C 141.147,230.635 141.98,231.968 144,232.5C 145.326,231.201 146.66,229.868 148,228.5C 152.068,233.725 156.735,234.392 162,230.5C 162.604,232.686 163.77,232.852 165.5,231C 164.549,230.282 164.383,229.449 165,228.5C 166.255,227.789 167.421,226.956 168.5,226C 167.237,224.295 166.903,222.628 167.5,221C 166.692,220.692 166.025,220.192 165.5,219.5C 166.651,218.269 167.817,218.269 169,219.5C 169.667,218.833 170.333,218.167 171,217.5C 171.837,219.007 173.004,219.507 174.5,219C 171.255,213.875 166.588,211.042 160.5,210.5C 164.304,208.187 168.304,208.02 172.5,210C 178.629,216.462 184.629,222.962 190.5,229.5 Z"/></g>
<g><path style="opacity:1" fill="#a0d477" d="M 61.5,214.5 C 70.1453,217.288 79.312,219.622 89,221.5C 92.0567,220.549 95.2234,220.216 98.5,220.5C 99.5,220.5 100.5,220.5 101.5,220.5C 106.322,220.561 106.655,221.727 102.5,224C 105.32,223.905 108.153,223.405 111,222.5C 112.683,223.176 112.85,224.176 111.5,225.5C 108.09,225.457 104.757,225.957 101.5,227C 102.056,227.383 102.389,227.883 102.5,228.5C 101.732,229.263 101.232,230.263 101,231.5C 99.0429,230.146 97.0429,230.479 95,232.5C 94.7238,230.233 94.0571,227.9 93,225.5C 91.3333,226.833 89.6667,226.833 88,225.5C 86.8455,226.743 85.5122,227.743 84,228.5C 80.2546,227.703 76.4213,227.203 72.5,227C 70.8333,225.667 69.1667,224.333 67.5,223C 68.4506,222.282 68.6172,221.449 68,220.5C 65.2893,218.951 63.1226,216.951 61.5,214.5 Z"/></g>
<g><path style="opacity:1" fill="#b2dd7a" d="M 58.5,176.5 C 56.1658,185.168 53.8324,193.835 51.5,202.5C 51.6912,206.074 52.6912,209.407 54.5,212.5C 55.1667,213.833 55.8333,213.833 56.5,212.5C 55.8728,211.583 55.5394,210.583 55.5,209.5C 57.7718,210.94 59.7718,212.607 61.5,214.5C 63.1226,216.951 65.2893,218.951 68,220.5C 68.6172,221.449 68.4506,222.282 67.5,223C 69.1667,224.333 70.8333,225.667 72.5,227C 76.4213,227.203 80.2546,227.703 84,228.5C 85.5122,227.743 86.8455,226.743 88,225.5C 89.6667,226.833 91.3333,226.833 93,225.5C 94.0571,227.9 94.7238,230.233 95,232.5C 97.0429,230.479 99.0429,230.146 101,231.5C 101.232,230.263 101.732,229.263 102.5,228.5C 103.216,228.783 104.049,229.116 105,229.5C 106.351,227.99 108.018,226.99 110,226.5C 110.937,228.641 112.77,230.641 115.5,232.5C 116.541,230.009 117.374,230.009 118,232.5C 119.174,230.329 121.007,229.329 123.5,229.5C 123.263,230.791 123.596,231.791 124.5,232.5C 124.218,233.778 123.551,234.778 122.5,235.5C 121.197,237.142 119.864,238.809 118.5,240.5C 116.876,240.64 115.71,239.973 115,238.5C 113.434,239.061 112.101,238.394 111,236.5C 110.316,238.359 109.316,240.026 108,241.5C 107.195,239.099 106.362,239.266 105.5,242C 106.524,243.367 106.024,244.2 104,244.5C 102.374,243.711 100.874,242.711 99.5,241.5C 99.7093,240.914 100.043,240.414 100.5,240C 98.9559,239.71 97.6226,239.044 96.5,238C 97.7112,237.107 97.7112,236.274 96.5,235.5C 94.6783,236.429 93.3449,235.762 92.5,233.5C 91.2798,234.711 90.1131,234.711 89,233.5C 87.2942,234.308 86.4609,235.641 86.5,237.5C 82.65,237.701 81.65,239.534 83.5,243C 80.8333,245 80.8333,247 83.5,249C 82.5494,249.718 82.3828,250.551 83,251.5C 83.6543,250.304 84.1543,250.304 84.5,251.5C 81.0888,253.725 81.0888,255.391 84.5,256.5C 85.1272,257.417 85.4606,258.417 85.5,259.5C 74.6979,253.702 65.0312,246.369 56.5,237.5C 59.4188,234.413 59.9188,230.746 58,226.5C 56.3829,225.149 55.2162,223.482 54.5,221.5C 53.5105,223.588 53.8439,225.588 55.5,227.5C 54.126,231.313 53.2926,230.98 53,226.5C 51.2417,225.531 50.7417,224.364 51.5,223C 50.5,222.667 49.5,222.333 48.5,222C 48.8333,221.667 49.1667,221.333 49.5,221C 43.9052,216.509 41.7385,211.009 43,204.5C 47.3814,196.329 50.548,187.662 52.5,178.5C 53.4105,175.216 54.9105,172.216 57,169.5C 56.4836,174.07 55.3169,178.57 53.5,183C 53.6667,183.5 53.8333,184 54,184.5C 55.2373,181.552 56.7373,178.885 58.5,176.5 Z"/></g>
<g><path style="opacity:1" fill="#c4e892" d="M 127.5,219.5 C 127.693,221.086 128.027,222.753 128.5,224.5C 131.087,221.474 133.753,221.141 136.5,223.5C 136.082,224.222 135.416,224.722 134.5,225C 135,225.167 135.5,225.333 136,225.5C 137.963,224.375 139.796,223.041 141.5,221.5C 141.833,221.833 142.167,222.167 142.5,222.5C 141.652,224.409 141.318,226.409 141.5,228.5C 139.5,229.167 138.167,230.5 137.5,232.5C 136.751,233.531 136.085,234.698 135.5,236C 136.554,237.388 136.72,238.888 136,240.5C 134.877,237.751 133.377,235.251 131.5,233C 130.026,233.973 128.526,234.473 127,234.5C 126.583,233.244 125.75,232.577 124.5,232.5C 123.596,231.791 123.263,230.791 123.5,229.5C 121.007,229.329 119.174,230.329 118,232.5C 117.374,230.009 116.541,230.009 115.5,232.5C 112.77,230.641 110.937,228.641 110,226.5C 108.018,226.99 106.351,227.99 105,229.5C 104.049,229.116 103.216,228.783 102.5,228.5C 102.389,227.883 102.056,227.383 101.5,227C 104.757,225.957 108.09,225.457 111.5,225.5C 117.37,224.708 122.703,222.708 127.5,219.5 Z"/></g>
<g><path style="opacity:1" fill="#caea8f" d="M 197.5,215.5 C 199.572,219.424 201.905,223.258 204.5,227C 204.167,227.333 203.833,227.667 203.5,228C 206.68,234.998 207.514,241.831 206,248.5C 205.251,244.749 204.251,241.082 203,237.5C 203.258,245.506 202.091,253.673 199.5,262C 199.57,262.765 199.903,263.265 200.5,263.5C 199.22,264.931 197.553,265.598 195.5,265.5C 194.957,265.44 194.624,265.107 194.5,264.5C 198.211,256.527 199.878,248.361 199.5,240C 196.601,236.335 193.601,232.835 190.5,229.5C 184.629,222.962 178.629,216.462 172.5,210C 168.304,208.02 164.304,208.187 160.5,210.5C 158.901,210.768 157.568,210.434 156.5,209.5C 157.75,209.423 158.583,208.756 159,207.5C 160.77,208.276 162.603,208.11 164.5,207C 162.754,206.529 161.087,205.862 159.5,205C 162.418,203.85 165.418,203.017 168.5,202.5C 173.651,202.027 178.817,201.693 184,201.5C 186.069,202.264 188.236,202.764 190.5,203C 189.833,203.333 189.167,203.667 188.5,204C 190.916,204.661 192.582,206.161 193.5,208.5C 192.45,210.102 193.117,210.935 195.5,211C 195.5,212.333 195.5,213.667 195.5,215C 196.094,215.464 196.761,215.631 197.5,215.5 Z"/></g>
<g><path style="opacity:1" fill="#bce277" d="M 118.5,240.5 C 117.951,242.734 118.285,245.068 119.5,247.5C 119.023,248.478 118.357,249.311 117.5,250C 118.684,251.145 118.684,252.312 117.5,253.5C 114.463,255.186 113.13,254.186 113.5,250.5C 112.167,250.5 110.833,250.5 109.5,250.5C 109.657,249.127 109.49,247.793 109,246.5C 108.026,248.878 107.359,248.544 107,245.5C 104.873,247.57 105.039,249.403 107.5,251C 107.056,252.762 106.556,252.595 106,250.5C 105.508,255.598 105.675,260.432 106.5,265C 105.244,265.417 104.577,266.25 104.5,267.5C 97.7029,266.01 91.3696,263.343 85.5,259.5C 85.4606,258.417 85.1272,257.417 84.5,256.5C 81.0888,255.391 81.0888,253.725 84.5,251.5C 84.1543,250.304 83.6543,250.304 83,251.5C 82.3828,250.551 82.5494,249.718 83.5,249C 80.8333,247 80.8333,245 83.5,243C 81.65,239.534 82.65,237.701 86.5,237.5C 86.4609,235.641 87.2942,234.308 89,233.5C 90.1131,234.711 91.2798,234.711 92.5,233.5C 93.3449,235.762 94.6783,236.429 96.5,235.5C 97.7112,236.274 97.7112,237.107 96.5,238C 97.6226,239.044 98.9559,239.71 100.5,240C 100.043,240.414 99.7093,240.914 99.5,241.5C 100.874,242.711 102.374,243.711 104,244.5C 106.024,244.2 106.524,243.367 105.5,242C 106.362,239.266 107.195,239.099 108,241.5C 109.316,240.026 110.316,238.359 111,236.5C 112.101,238.394 113.434,239.061 115,238.5C 115.71,239.973 116.876,240.64 118.5,240.5 Z"/></g>
<g><path style="opacity:1" fill="#d6ef97" d="M 190.5,229.5 C 193.601,232.835 196.601,236.335 199.5,240C 199.878,248.361 198.211,256.527 194.5,264.5C 194.624,265.107 194.957,265.44 195.5,265.5C 186.442,269.92 176.775,272.587 166.5,273.5C 159.396,269.442 152.396,265.109 145.5,260.5C 139.01,253.241 133.51,245.241 129,236.5C 127.883,237.949 127.216,239.616 127,241.5C 125.227,239.581 123.727,237.581 122.5,235.5C 123.551,234.778 124.218,233.778 124.5,232.5C 125.75,232.577 126.583,233.244 127,234.5C 128.526,234.473 130.026,233.973 131.5,233C 133.377,235.251 134.877,237.751 136,240.5C 136.72,238.888 136.554,237.388 135.5,236C 136.085,234.698 136.751,233.531 137.5,232.5C 139.5,237.167 141.5,241.833 143.5,246.5C 144.873,246.657 146.207,246.49 147.5,246C 145.321,245.558 144.655,244.558 145.5,243C 142.986,240.933 143.152,239.433 146,238.5C 148.936,246.275 154.436,250.942 162.5,252.5C 162.117,255.462 163.117,256.462 165.5,255.5C 168.722,257.365 172.389,259.365 176.5,261.5C 178.41,260.452 180.244,260.452 182,261.5C 183.105,258.063 185.272,255.563 188.5,254C 187.833,253 187.167,252 186.5,251C 187.863,247.298 188.863,243.465 189.5,239.5C 189.109,240.718 189.776,241.552 191.5,242C 191.167,242.333 190.833,242.667 190.5,243C 191.271,245.577 192.271,248.077 193.5,250.5C 195.117,243.038 194.117,236.038 190.5,229.5 Z"/></g>
<g><path style="opacity:1" fill="#ccea82" d="M 122.5,235.5 C 123.727,237.581 125.227,239.581 127,241.5C 127.216,239.616 127.883,237.949 129,236.5C 133.51,245.241 139.01,253.241 145.5,260.5C 152.396,265.109 159.396,269.442 166.5,273.5C 159.968,275.045 153.301,275.712 146.5,275.5C 139.071,270.921 132.071,266.588 125.5,262.5C 124.139,260.972 122.972,259.305 122,257.5C 119.05,258.232 117.55,256.899 117.5,253.5C 118.684,252.312 118.684,251.145 117.5,250C 118.357,249.311 119.023,248.478 119.5,247.5C 118.285,245.068 117.951,242.734 118.5,240.5C 119.864,238.809 121.197,237.142 122.5,235.5 Z"/></g>
<g><path style="opacity:1" fill="#c7e778" d="M 117.5,253.5 C 117.55,256.899 119.05,258.232 122,257.5C 122.972,259.305 124.139,260.972 125.5,262.5C 132.071,266.588 139.071,270.921 146.5,275.5C 131.867,275.506 117.867,272.839 104.5,267.5C 104.577,266.25 105.244,265.417 106.5,265C 105.675,260.432 105.508,255.598 106,250.5C 106.556,252.595 107.056,252.762 107.5,251C 105.039,249.403 104.873,247.57 107,245.5C 107.359,248.544 108.026,248.878 109,246.5C 109.49,247.793 109.657,249.127 109.5,250.5C 110.833,250.5 112.167,250.5 113.5,250.5C 113.13,254.186 114.463,255.186 117.5,253.5 Z"/></g>
</svg>
